<svg width="62" height="62" viewBox="0 0 62 62" fill="none" xmlns="http://www.w3.org/2000/svg">
<path d="M54 17.059V0H52V17.059C49.714 17.3146 47.6126 18.4358 46.1274 20.1923C44.6422 21.9488 43.886 24.2074 44.014 26.504C44.1419 28.8007 45.1445 30.9613 46.8156 32.5419C48.4868 34.1225 50.6998 35.0033 53 35.0033C55.3003 35.0033 57.5132 34.1225 59.1844 32.5419C60.8556 30.9613 61.8581 28.8007 61.9861 26.504C62.1141 24.2074 61.3578 21.9488 59.8726 20.1923C58.3874 18.4358 56.286 17.3146 54 17.059V17.059ZM52.5 25H53.5C54.1191 25.0006 54.716 25.2309 55.1751 25.6463C55.6341 26.0617 55.9227 26.6327 55.985 27.2487C56.0472 27.8647 55.8786 28.4819 55.512 28.9807C55.1453 29.4795 54.6065 29.8246 54 29.949V31H52V29.949C51.4355 29.8338 50.9281 29.5271 50.5637 29.0808C50.1992 28.6346 50.0001 28.0762 50 27.5H52C52 27.6326 52.0527 27.7598 52.1465 27.8536C52.2402 27.9473 52.3674 28 52.5 28H53.5C53.6326 28 53.7598 27.9473 53.8536 27.8536C53.9473 27.7598 54 27.6326 54 27.5C54 27.3674 53.9473 27.2402 53.8536 27.1464C53.7598 27.0527 53.6326 27 53.5 27H52.5C51.8809 26.9994 51.284 26.7691 50.8249 26.3537C50.3659 25.9383 50.0773 25.3673 50.0151 24.7513C49.9528 24.1353 50.1214 23.5181 50.4881 23.0193C50.8548 22.5205 51.3935 22.1754 52 22.051V21H54V22.051C54.5645 22.1662 55.0719 22.4729 55.4363 22.9192C55.8008 23.3654 55.9999 23.9238 56 24.5H54C54 24.3674 53.9473 24.2402 53.8536 24.1464C53.7598 24.0527 53.6326 24 53.5 24H52.5C52.3674 24 52.2402 24.0527 52.1465 24.1464C52.0527 24.2402 52 24.3674 52 24.5C52 24.6326 52.0527 24.7598 52.1465 24.8536C52.2402 24.9473 52.3674 25 52.5 25Z" fill="black"/>
<path d="M58 53.9997H28.219C28.3251 53.9996 28.4284 53.9657 28.514 53.9029C28.5996 53.8402 28.663 53.7519 28.695 53.6507L31.595 44.5417C31.7401 44.0925 31.7471 43.6101 31.615 43.1569C31.4829 42.7037 31.2178 42.3006 30.854 41.9997L26.514 38.3837L28.393 35.0117L30.444 37.8847C30.6921 38.2339 31.0305 38.5091 31.4229 38.6808C31.8154 38.8526 32.2471 38.9144 32.672 38.8597L39.062 38.0597C39.1836 38.0445 39.2954 37.9852 39.3761 37.893C39.4569 37.8009 39.5009 37.6822 39.5 37.5597V34.7497C39.5 34.6171 39.4473 34.4899 39.3536 34.3962C39.2598 34.3024 39.1326 34.2497 39 34.2497H33.714L32.845 32.0787C32.2357 30.557 31.2581 29.2104 30 28.1597L28.649 27.0337C26.975 25.6381 24.9456 24.7361 22.788 24.4287L20.271 24.0687C19.9207 24.0188 19.5636 24.0477 19.2259 24.1534C18.8882 24.2591 18.5783 24.4389 18.319 24.6797L12.41 30.1647C12.3173 30.2505 12.2605 30.3682 12.2511 30.4942C12.2416 30.6201 12.2802 30.745 12.359 30.8437L14.234 33.1877C14.2757 33.2395 14.3274 33.2825 14.386 33.3141C14.4445 33.3457 14.5088 33.3653 14.575 33.3717C14.6411 33.3784 14.7078 33.3718 14.7714 33.3524C14.8349 33.333 14.8939 33.3012 14.945 33.2587L20.356 28.7497L22.333 29.4087L19.109 35.2087C18.7216 35.8996 18.5957 36.7067 18.7541 37.4828C18.9125 38.2588 19.3448 38.952 19.972 39.4357L26.262 44.3277L24.447 53.3997C24.4322 53.4724 24.4337 53.5474 24.4514 53.6194C24.4692 53.6914 24.5027 53.7585 24.5496 53.816C24.5965 53.8734 24.6556 53.9197 24.7226 53.9515C24.7896 53.9832 24.8628 53.9997 24.937 53.9997H4C2.93913 53.9997 1.92172 54.4211 1.17157 55.1713C0.421427 55.9214 0 56.9388 0 57.9997C0 59.0606 0.421427 60.078 1.17157 60.8281C1.92172 61.5783 2.93913 61.9997 4 61.9997H58C59.0609 61.9997 60.0783 61.5783 60.8284 60.8281C61.5786 60.078 62 59.0606 62 57.9997C62 56.9388 61.5786 55.9214 60.8284 55.1713C60.0783 54.4211 59.0609 53.9997 58 53.9997ZM4 59.4997C3.70333 59.4997 3.41332 59.4117 3.16664 59.2469C2.91997 59.0821 2.72771 58.8478 2.61418 58.5737C2.50065 58.2996 2.47094 57.998 2.52882 57.7071C2.5867 57.4161 2.72956 57.1488 2.93934 56.939C3.14912 56.7293 3.41639 56.5864 3.70736 56.5285C3.99834 56.4707 4.29994 56.5004 4.57403 56.6139C4.84811 56.7274 5.08238 56.9197 5.2472 57.1664C5.41203 57.413 5.5 57.703 5.5 57.9997C5.5 58.3975 5.34196 58.7791 5.06066 59.0604C4.77936 59.3417 4.39782 59.4997 4 59.4997V59.4997ZM58 59.4997C57.7033 59.4997 57.4133 59.4117 57.1666 59.2469C56.92 59.0821 56.7277 58.8478 56.6142 58.5737C56.5007 58.2996 56.4709 57.998 56.5288 57.7071C56.5867 57.4161 56.7296 57.1488 56.9393 56.939C57.1491 56.7293 57.4164 56.5864 57.7074 56.5285C57.9983 56.4707 58.2999 56.5004 58.574 56.6139C58.8481 56.7274 59.0824 56.9197 59.2472 57.1664C59.412 57.413 59.5 57.703 59.5 57.9997C59.5 58.3975 59.342 58.7791 59.0607 59.0604C58.7794 59.3417 58.3978 59.4997 58 59.4997V59.4997Z" fill="black"/>
<path d="M9.00009 46.4999H17.5131C17.8552 46.4987 18.193 46.4238 18.5036 46.2804C18.8142 46.137 19.0903 45.9285 19.3131 45.6689L21.4771 43.1459L18.7401 41.0179C18.244 40.6318 17.8199 40.1613 17.4871 39.6279L16.2031 41.7679L8.96509 42.2199C8.83793 42.2278 8.71858 42.284 8.63142 42.3769C8.54425 42.4698 8.49585 42.5925 8.49609 42.7199V45.9999C8.49609 46.0659 8.50916 46.1313 8.53453 46.1922C8.55991 46.2531 8.5971 46.3084 8.64395 46.3549C8.69081 46.4014 8.7464 46.4381 8.80752 46.463C8.86865 46.4879 8.9341 46.5005 9.00009 46.4999Z" fill="black"/>
<path d="M30.8943 27.77C32.9825 27.77 34.6753 26.0772 34.6753 23.989C34.6753 21.9008 32.9825 20.208 30.8943 20.208C28.8061 20.208 27.1133 21.9008 27.1133 23.989C27.1133 26.0772 28.8061 27.77 30.8943 27.77Z" fill="black"/>
<path d="M10 23.2188H4V25.2188H10V23.2188Z" fill="black"/>
<path d="M6 29.2188H0V31.2188H6V29.2188Z" fill="black"/>
<path d="M10 35.2188H4V37.2188H10V35.2188Z" fill="black"/>
</svg>
