<svg width="81" height="80" viewBox="0 0 81 80" fill="none" xmlns="http://www.w3.org/2000/svg">
<path d="M79.8257 44.8316H72.1163C73.8016 43.7529 75.0153 42.076 75.513 40.138C76.0114 38.1999 75.7569 36.1452 74.8004 34.3878C73.8439 32.63 72.2574 31.3002 70.36 30.6656L72.5744 28.0546H72.5738C73.2262 27.2834 73.503 26.2627 73.3305 25.2677C73.1575 24.2721 72.5526 23.4049 71.6788 22.8982L69.5364 21.6621V21.6627C69.2027 21.469 68.8389 21.334 68.46 21.2626C68.3623 20.3117 67.9019 19.4349 67.1737 18.8155C67.4985 17.9226 67.5174 16.9478 67.2284 16.0432C66.9393 15.1386 66.3589 14.3551 65.577 13.8154C63.938 12.6965 61.4721 11.4152 58.53 11.1591L59.3755 7.50614C59.8097 5.62939 59.3359 3.65778 58.097 2.18346C56.8576 0.708573 54.9965 -0.0967287 53.0735 0.00813055C51.1499 0.113601 49.3881 1.11752 48.3172 2.71804L46.2312 5.8431C44.0314 3.87264 41.4091 2.95248 39.4716 2.52104V2.5216C38.624 2.33744 37.7406 2.41445 36.9376 2.74259C36.1346 3.07072 35.4498 3.63435 34.9733 4.35862C33.875 4.61421 32.8694 5.17058 32.0692 5.96522C31.269 6.75932 30.7053 7.76097 30.4419 8.85757L30.2309 9.7125V9.71194C30.0518 10.4034 29.6165 11.0005 29.0133 11.3827C28.41 11.765 27.684 11.9033 26.9825 11.77C25.3552 11.4921 23.6956 11.4653 22.0606 11.6902C21.031 11.8314 20.0878 12.3414 19.4065 13.1266C18.7257 13.9112 18.3529 14.9162 18.3574 15.956C18.3624 16.995 18.7452 17.9967 19.4339 18.7746C18.9573 19.3918 18.5231 20.0408 18.1353 20.7172C16.4304 18.3779 14.2976 16.2373 12.3087 15.8811C11.9053 15.8102 11.494 15.9553 11.2245 16.2639C9.89464 17.7812 9.57601 20.7953 9.7183 23.6781C7.85726 22.956 5.55421 22.3683 3.92575 22.956C3.54126 23.0983 3.25944 23.4314 3.18355 23.8343C2.51334 27.2127 6.95377 33.0532 8.99624 34.8077C9.22224 34.9991 9.45775 35.1788 9.70273 35.3451C9.6073 35.5543 9.52471 35.7686 9.45383 35.9874C8.92201 37.6397 9.20439 39.4462 10.215 40.8581L13.0276 44.8313H2.16799C1.52066 44.8313 0.996094 45.3559 0.996094 46.0032V52.2533C0.996094 52.9006 1.52066 53.4252 2.16799 53.4252H3.88674V75.6914C3.88841 76.8303 4.34155 77.9224 5.14736 78.7277C5.95262 79.5335 7.04469 79.9867 8.18371 79.9883H73.8107C74.9497 79.9867 76.0418 79.5335 76.8471 78.7277C77.6529 77.9224 78.106 76.8304 78.1077 75.6914V53.4252H79.8265C80.1373 53.4252 80.4353 53.3019 80.6552 53.082C80.875 52.8621 80.9984 52.5641 80.9984 52.2533V46.0032C80.9984 45.6924 80.875 45.3944 80.6552 45.1745C80.4353 44.9546 80.1373 44.8313 79.8265 44.8313L79.8257 44.8316ZM73.4193 38.1719C73.4131 39.2261 73.1107 40.2574 72.5471 41.148C71.9834 42.0392 71.1804 42.7534 70.23 43.21C69.1223 43.7379 68.1111 44.2848 67.2127 44.8318H59.5562C58.6578 44.2849 57.6455 43.738 56.5389 43.21H56.5394C55.002 42.4823 53.8815 41.0923 53.4958 39.436C53.1096 37.7796 53.5014 36.038 54.5589 34.706C55.6169 33.3745 57.2246 32.5982 58.925 32.5988H67.8443C69.322 32.5999 70.7389 33.1876 71.7841 34.2323C72.8293 35.2775 73.4176 36.6943 73.4191 38.1721L73.4193 38.1719ZM34.7071 41.1407L40.6636 43.7189L40.5185 44.8316H31.6802L34.7071 41.1407ZM51.0317 38.7689C51.2332 41.2427 52.5719 43.4822 54.6551 44.8316H42.8831L43.055 43.5224C45.2883 41.3137 48.0261 39.6825 51.0317 38.7691L51.0317 38.7689ZM60.658 21.8629C60.5872 21.4678 60.6943 21.0615 60.9516 20.7529C61.2088 20.4449 61.5894 20.2663 61.9912 20.2658H64.7803C65.1821 20.2658 65.5626 20.4443 65.8199 20.7524C66.0777 21.061 66.1849 21.4678 66.1129 21.8629L64.5911 30.2553H62.1832L60.658 21.8629ZM58.4063 23.6788H58.4068C58.4654 23.6447 58.5268 23.6163 58.591 23.594L59.8003 30.2487H59.1362L55.9844 26.5314H55.985C55.7802 26.2898 55.6937 25.9695 55.7478 25.6575C55.8019 25.345 55.9917 25.0733 56.2662 24.9142L58.4063 23.6788ZM70.5064 24.9148L70.5069 24.9143C70.7815 25.0733 70.9712 25.3451 71.0254 25.6576C71.0789 25.9701 70.9919 26.2904 70.7865 26.5315L67.6347 30.2487H66.9707L68.185 23.6007C68.2491 23.6225 68.3111 23.651 68.3691 23.685L70.5064 24.9148ZM36.3685 18.4253C37.873 16.5737 39.9529 12.0094 37.0655 7.98765C36.5968 7.33919 36.4857 6.57188 36.753 5.93632C37.1208 5.07357 38.0494 4.59366 38.9657 4.79233C40.8814 5.21756 43.5767 6.19861 45.5284 8.43754C45.7678 8.71322 46.1221 8.86109 46.486 8.83822C46.8504 8.81534 47.183 8.62393 47.3861 8.32035L50.269 4.01112C50.9336 3.02952 52.019 2.41624 53.2026 2.35423C54.3863 2.29173 55.5303 2.78784 56.2943 3.69355C57.0582 4.59982 57.3529 5.8113 57.0912 6.96761L55.9237 12.019C55.8411 12.3745 55.9293 12.7484 56.162 13.0302C56.3947 13.312 56.7452 13.4688 57.1101 13.4549C60.0789 13.341 62.6354 14.6362 64.257 15.7423C64.9562 16.2306 65.2565 17.1174 64.9975 17.9298H64.7804H61.9914C61.0751 17.9309 60.1916 18.2713 59.5121 18.8857C58.8318 19.5001 58.4043 20.3451 58.3117 21.2569C57.9328 21.3284 57.5684 21.4634 57.2352 21.6565L55.0946 22.8926C54.2207 23.3993 53.6157 24.2665 53.4429 25.2615C53.2699 26.2565 53.5461 27.2771 54.1973 28.0489L56.4128 30.66H56.4134C53.8402 31.5278 51.8887 33.6489 51.238 36.2851C47.6408 37.1997 44.3417 39.0302 41.6614 41.5978L39.6926 40.7445L42.9069 33.3242L49.2414 30.8242C49.8452 30.5859 50.1421 29.9034 49.9038 29.299C49.6655 28.6952 48.983 28.3983 48.3786 28.6366L44.2222 30.2818L47.2111 23.3771L52.1895 21.4066C52.7939 21.1689 53.0908 20.4864 52.853 19.8826C52.6153 19.2788 51.9328 18.9813 51.329 19.2191L48.5287 20.3268L50.8133 15.0515V15.0521C51.0722 14.4578 50.7999 13.7664 50.2061 13.5075C49.6118 13.2486 48.9204 13.5203 48.6615 14.1147L46.3786 19.3899L45.2709 16.5913C45.0326 15.9869 44.3501 15.6906 43.7457 15.9289C43.1419 16.1666 42.845 16.8497 43.0833 17.4535L45.0599 22.4457L42.071 29.3504L40.4258 25.1941L40.4253 25.1946C40.187 24.5925 39.5062 24.2978 38.9041 24.5356C38.3025 24.7739 38.0073 25.4552 38.2456 26.0567L40.7457 32.3929L37.533 39.8149L35.5658 38.9633C35.6172 36.4884 35.197 29.313 29.2063 23.6001V23.6007C28.5154 22.9104 28.1538 21.9561 28.2146 20.9812C28.2749 20.0063 28.7515 19.1045 29.5227 18.5052C30.2939 17.9058 31.2856 17.6664 32.2455 17.8489C33.1841 18.0543 34.0976 18.3601 34.9704 18.7613C35.4587 18.9834 36.0351 18.845 36.3688 18.4253L36.3685 18.4253ZM20.6839 15.8298C20.7319 14.8968 21.434 14.1278 22.3593 13.9955C23.7555 13.8013 25.1735 13.823 26.5636 14.0597C27.8516 14.2957 29.1814 14.0334 30.2836 13.3269C31.3863 12.6199 32.1787 11.5205 32.5012 10.2516L32.7155 9.39722C32.9443 8.47645 33.5096 7.67561 34.2998 7.1516C34.393 7.95016 34.6893 8.71135 35.1609 9.36265C37.1017 12.0624 35.8205 14.9426 35.0325 16.2456C34.2853 15.9532 33.5146 15.7222 32.7295 15.5548C31.1 15.2339 29.4112 15.6335 28.0982 16.6508C26.7851 17.6681 25.9765 19.2038 25.8806 20.8619C25.7852 22.5203 26.4113 24.1388 27.5982 25.3005C33.2233 30.6634 33.2825 37.6791 33.2233 39.2663L29.1105 44.2819L28.5168 34.419V34.4196C28.4185 32.6841 27.5033 31.0981 26.0496 30.1443C25.8582 30.0177 25.6595 29.9021 25.4541 29.7989C25.5401 29.516 25.6115 29.2286 25.6684 28.9378C26.1623 26.2938 25.9636 18.9549 23.3247 16.7502C23.011 16.4873 22.5825 16.4075 22.1952 16.5392C21.8034 16.6787 21.4351 16.8752 21.1014 17.1224C20.8096 16.7569 20.6611 16.297 20.684 15.8299L20.6839 15.8298ZM22.2967 19.1346C23.4496 21.1001 23.8324 26.0097 23.3637 28.5098C23.3185 28.7508 23.2582 28.9886 23.184 29.2224C22.6845 29.2068 22.1851 29.2592 21.6995 29.3787C21.7191 28.2821 21.5416 27.1912 21.1761 26.1565C20.7475 25.0381 20.2162 23.9617 19.5901 22.941C20.484 21.1769 21.4651 19.8019 22.2965 19.1345L22.2967 19.1346ZM12.6091 18.4471C14.8323 19.6206 18.0187 24.2285 18.9719 26.9332H18.9714C19.3352 27.9796 19.4423 29.0979 19.2839 30.1944L14.7525 31.7899V31.7894C13.9444 31.0332 13.3295 30.094 12.9606 29.0504C12.0074 26.3394 11.604 20.7551 12.6023 18.4469L12.6091 18.4471ZM5.48393 25.0549C6.54812 25.0549 8.17598 25.5125 9.97616 26.3267V26.3273C10.1291 27.5148 10.3908 28.6856 10.7574 29.8256C11.1213 30.8597 11.6659 31.8212 12.3669 32.6644C11.9149 32.8759 11.4941 33.1482 11.1169 33.4741C10.9115 33.3374 10.7145 33.189 10.5276 33.0288C8.58396 31.3725 5.81033 27.3115 5.47718 25.0549H5.48393ZM13.7012 41.7267L16.7359 40.658H16.7353C17.3458 40.4426 17.6661 39.7724 17.4502 39.1618C17.2348 38.5513 16.5645 38.2316 15.954 38.447L12.2853 39.7378L12.1179 39.5034C11.5409 38.6881 11.3796 37.6495 11.6821 36.698C11.9851 35.746 12.7167 34.9916 13.6587 34.6594L21.9402 31.7454C22.8827 31.4133 23.9262 31.5433 24.7584 32.0964C25.591 32.6488 26.1155 33.5607 26.1747 34.5579L26.5558 40.8738L22.962 42.1361C22.6691 42.2399 22.4291 42.4553 22.2952 42.736C22.1607 43.0167 22.1439 43.3393 22.2472 43.6322C22.4631 44.2427 23.1328 44.5631 23.7434 44.3471L26.6983 43.3063L26.7887 44.8332H15.8967L13.7012 41.7267ZM75.7639 75.6916C75.7622 76.7698 74.8889 77.6431 73.8107 77.6448H8.18369C7.10554 77.6432 6.23223 76.7698 6.23051 75.6916V53.4255H75.7633L75.7639 75.6916ZM78.6545 51.0812H3.34017V47.1748H78.6545V51.0812Z" fill="black"/>
<path d="M31.6212 65.9249H50.3716C51.9067 65.9249 53.3253 65.1057 54.0926 63.7765C54.8605 62.4472 54.8605 60.8088 54.0926 59.4795C53.3253 58.1503 51.9067 57.3311 50.3716 57.3311H31.6212C30.086 57.3311 28.6674 58.1503 27.9001 59.4795C27.1323 60.8088 27.1323 62.4472 27.9001 63.7765C28.6674 65.1057 30.086 65.9249 31.6212 65.9249ZM31.6212 59.6748H50.3716C51.4503 59.6748 52.3248 60.5493 52.3248 61.628C52.3248 62.7067 51.4503 63.5812 50.3716 63.5812H31.6212C30.5425 63.5812 29.668 62.7067 29.668 61.628C29.668 60.5493 30.5425 59.6748 31.6212 59.6748Z" fill="black"/>
</svg>
