<svg width="62" height="44" viewBox="0 0 62 44" fill="none" xmlns="http://www.w3.org/2000/svg">
<path d="M9.69346 5.12922H9.70458C9.96148 5.12627 10.2067 5.02074 10.3863 4.83586C10.566 4.65097 10.6653 4.40186 10.6624 4.14329L10.6407 2.20234C10.6378 1.94571 10.5345 1.70058 10.3532 1.5201C10.1719 1.33963 9.92717 1.23837 9.67217 1.23828H9.66105C9.40414 1.24124 9.15891 1.34676 8.97929 1.53165C8.79967 1.71654 8.70035 1.96566 8.70318 2.22423L8.72494 4.16519C8.72785 4.42182 8.83116 4.66694 9.01247 4.84741C9.19378 5.02788 9.43846 5.12914 9.69346 5.12922V5.12922Z" fill="black"/>
<path d="M5.12666 6.92914C5.30805 6.74606 5.40978 6.49798 5.40947 6.23943C5.40916 5.98089 5.30684 5.73305 5.125 5.55042L3.73335 4.15315C3.55129 3.97127 3.30499 3.86949 3.04846 3.87012C2.79194 3.87075 2.54614 3.97376 2.36497 4.15654C2.1838 4.33932 2.08205 4.58695 2.08203 4.84513C2.08202 5.10331 2.18374 5.35095 2.36489 5.53375L3.7565 6.93103C3.9398 7.11105 4.18586 7.21166 4.44196 7.21131C4.69807 7.21096 4.94386 7.10966 5.12666 6.92914V6.92914Z" fill="black"/>
<path d="M14.3015 7.10997C14.4833 7.29138 14.7283 7.39412 14.9843 7.39626C15.2403 7.39839 15.4869 7.29976 15.6717 7.1214L17.0332 5.77315C17.2157 5.59163 17.3192 5.34466 17.321 5.08643C17.3228 4.82819 17.2228 4.57979 17.0428 4.39571C16.8629 4.21163 16.6177 4.10691 16.3611 4.10453C16.1046 4.10215 15.8575 4.20231 15.6742 4.38302L14.3127 5.73126C14.1296 5.91263 14.0256 6.15975 14.0235 6.4183C14.0214 6.67684 14.1214 6.92563 14.3015 7.10997Z" fill="black"/>
<path d="M5.95431 5.05089C6.05877 5.28553 6.24952 5.47028 6.48649 5.56634C6.72346 5.66239 6.9882 5.66227 7.22508 5.566C7.34214 5.5159 7.44825 5.44308 7.53735 5.3517C7.62644 5.26032 7.69677 5.15216 7.74432 5.03341C7.79188 4.91467 7.81571 4.78765 7.81448 4.65963C7.81324 4.53161 7.78696 4.40509 7.73713 4.28729L6.97273 2.48013C6.87178 2.24269 6.68135 2.05526 6.44325 1.95897C6.20514 1.86268 5.93881 1.86541 5.70269 1.96654C5.46658 2.06767 5.27998 2.25895 5.18384 2.49841C5.0877 2.73786 5.08988 3.00592 5.18991 3.24375C5.18991 3.24375 5.95342 5.04874 5.95431 5.05089Z" fill="black"/>
<path d="M13.6694 2.09647C13.5518 2.0475 13.4257 2.02235 13.2985 2.02246C13.1712 2.02257 13.0452 2.04794 12.9277 2.09711C12.8102 2.14628 12.7035 2.21829 12.6137 2.30902C12.5239 2.39975 12.4527 2.50742 12.4043 2.62586L11.6749 4.40447C11.6263 4.5228 11.6014 4.6496 11.6016 4.77762C11.6017 4.90564 11.6269 5.03238 11.6757 5.15059C11.7246 5.26881 11.7961 5.37618 11.8861 5.46659C11.9762 5.557 12.083 5.62866 12.2006 5.6775C12.4384 5.773 12.7039 5.77109 12.9403 5.67216C13.1767 5.57323 13.3653 5.38514 13.4657 5.1481L14.1951 3.36948C14.2437 3.25115 14.2686 3.12435 14.2684 2.99633C14.2683 2.86831 14.2431 2.74158 14.1942 2.62336C14.1454 2.50515 14.0739 2.39778 13.9839 2.30737C13.8938 2.21696 13.7869 2.1453 13.6694 2.09647Z" fill="black"/>
<path d="M19.3061 7.74172C19.2104 7.50177 19.0239 7.30991 18.7876 7.20832C18.5514 7.10672 18.2847 7.10371 18.0463 7.19994L16.2601 7.92167C16.0217 8.01809 15.8311 8.20585 15.7302 8.44368C15.6293 8.68151 15.6264 8.94994 15.7221 9.18993C15.8224 9.42612 16.0093 9.61426 16.244 9.71518C16.4787 9.81609 16.743 9.82202 16.9819 9.73171L18.7681 9.00998C19.0065 8.91358 19.1971 8.72582 19.298 8.48798C19.3989 8.25015 19.4019 7.98172 19.3061 7.74172Z" fill="black"/>
<path d="M3.15359 7.86495L1.33127 7.12847C1.21317 7.0805 1.08682 7.05644 0.959462 7.05766C0.832105 7.05889 0.706238 7.08538 0.589064 7.13561C0.471891 7.18585 0.36571 7.25885 0.276599 7.35043C0.187488 7.44202 0.117195 7.55039 0.0697437 7.66934C0.0222923 7.7883 -0.00138637 7.91551 6.27066e-05 8.04368C0.00151178 8.17186 0.0280602 8.29849 0.0781885 8.41633C0.128317 8.53416 0.201041 8.6409 0.2922 8.73042C0.383359 8.81994 0.491162 8.89048 0.609441 8.93803L2.43176 9.67451C2.67048 9.76749 2.93586 9.76287 3.17125 9.66165C3.40663 9.56043 3.59339 9.37062 3.69166 9.13274C3.73907 9.01394 3.76277 8.8869 3.76138 8.75889C3.76 8.63087 3.73357 8.50438 3.68361 8.38665C3.63364 8.26891 3.56111 8.16224 3.47017 8.07273C3.37923 7.98322 3.27165 7.91261 3.15359 7.86495V7.86495Z" fill="black"/>
<path d="M4.88083 10.896C5.38034 11.0883 13.8189 10.9745 14.2175 10.9836C14.3705 10.9826 14.5212 10.9452 14.6572 10.8745C14.7932 10.8039 14.9106 10.7019 15.0001 10.5769C15.0895 10.4519 15.1484 10.3075 15.1719 10.1553C15.1954 10.0031 15.1828 9.84742 15.1352 9.70101C14.8433 8.83021 14.355 8.03927 13.7086 7.39015C13.1929 6.87053 12.5805 6.45844 11.9063 6.17749C11.2321 5.89654 10.5094 5.75227 9.77969 5.75293H9.73783C8.96022 5.76039 8.19226 5.92718 7.48079 6.24312C6.76933 6.55906 6.12925 7.01753 5.59959 7.59058C5.04338 8.18106 4.60905 8.87669 4.32172 9.63722C4.27627 9.75681 4.25468 9.88425 4.25818 10.0122C4.26168 10.1402 4.29021 10.2663 4.34213 10.3832C4.39406 10.5001 4.46836 10.6055 4.56079 10.6935C4.65322 10.7815 4.76197 10.8503 4.88083 10.896V10.896Z" fill="black"/>
<path d="M33.5628 30.9748C33.5774 30.9748 33.5923 30.9743 33.6072 30.9732C40.063 30.5151 40.6797 25.6069 40.6875 23.8113C40.6881 23.7281 40.6724 23.6457 40.6412 23.5686C40.6101 23.4916 40.5641 23.4215 40.506 23.3623C40.4479 23.3032 40.3788 23.2562 40.3026 23.224C40.2264 23.1918 40.1446 23.1751 40.0619 23.1748C40.0513 23.1748 40.0405 23.1751 40.0297 23.1756C33.4737 23.5111 32.9207 28.5227 32.9379 30.3461C32.9388 30.5126 33.0049 30.672 33.1219 30.7897C33.2389 30.9074 33.3973 30.9739 33.5628 30.9748V30.9748Z" fill="black"/>
<path d="M20.1332 18.3045C20.1077 18.3016 20.0821 18.3001 20.0564 18.3001C19.9063 18.2951 19.7597 18.346 19.6445 18.443C19.5293 18.54 19.4538 18.6763 19.4322 18.8258C19.2124 20.8908 19.1715 27.821 28.2749 29.0193C28.3045 29.0232 28.3344 29.0251 28.3643 29.0251C28.5131 29.0298 28.6585 28.9797 28.7733 28.8841C28.888 28.7886 28.9641 28.6541 28.9873 28.5061C29.2396 26.4106 29.3876 19.3432 20.1332 18.3045Z" fill="black"/>
<path d="M2.64235 32.7094C3.42348 33.1779 4.31792 33.4204 5.22718 33.4102C5.68063 33.4143 6.13262 33.3578 6.57127 33.2421C6.79183 33.1765 6.98199 33.034 7.10774 32.8402C7.23349 32.6464 7.28662 32.4139 7.25763 32.1843C7.01521 30.2652 6.2631 28.8517 5.02236 27.982C3.753 27.1736 2.22201 26.891 0.750253 27.1936C0.506398 27.2504 0.293859 27.4 0.15718 27.6111C0.0205009 27.8221 -0.0297085 28.0782 0.0170744 28.3257C0.411104 30.4071 1.29424 31.882 2.64235 32.7094Z" fill="black"/>
<path d="M11.8348 33.2423C12.2734 33.358 12.7254 33.4145 13.1789 33.4103C14.0881 33.4206 14.9826 33.1781 15.7637 32.7096C17.1118 31.8821 17.9949 30.4073 18.389 28.3259C18.4357 28.0784 18.3855 27.8223 18.2489 27.6112C18.1122 27.4002 17.8996 27.2506 17.6558 27.1938C16.1842 26.891 14.6532 27.1733 13.3839 27.9817C12.1432 28.8514 11.3911 30.2654 11.1484 32.184C11.1193 32.4137 11.1724 32.6463 11.2981 32.8402C11.4239 33.0341 11.6141 33.1767 11.8348 33.2423V33.2423Z" fill="black"/>
<path d="M44.344 27.1936C44.1001 27.2504 43.8876 27.4 43.7509 27.6111C43.6143 27.8221 43.564 28.0782 43.6108 28.3257C44.0049 30.4071 44.888 31.882 46.2361 32.7094C47.0172 33.1779 47.9117 33.4204 48.8209 33.4102C49.2744 33.4143 49.7264 33.3578 50.165 33.2421C50.3856 33.1765 50.5757 33.034 50.7015 32.8402C50.8272 32.6464 50.8804 32.4139 50.8514 32.1843C50.609 30.2652 49.8569 28.8517 48.6161 27.982C47.3467 27.1736 45.8158 26.891 44.344 27.1936V27.1936Z" fill="black"/>
<path d="M56.9777 27.9817C55.7369 28.8515 54.9848 30.2654 54.7422 32.184C54.7131 32.4137 54.7661 32.6463 54.8919 32.8402C55.0176 33.0341 55.2079 33.1767 55.4285 33.2423C55.8672 33.358 56.3192 33.4145 56.7726 33.4103C57.6819 33.4206 58.5763 33.1781 59.3574 32.7096C60.7056 31.8821 61.5887 30.4073 61.9827 28.3259C62.0295 28.0784 61.9793 27.8223 61.8426 27.6112C61.7059 27.4002 61.4934 27.2506 61.2495 27.1938C59.7779 26.8909 58.247 27.1733 56.9777 27.9817V27.9817Z" fill="black"/>
<path d="M60.0625 37.8002H53.7651V27.5254C54.4389 26.787 56.2894 24.4955 56.1825 21.6865C56.1099 19.777 55.1662 18.0564 53.3773 16.573C53.2095 16.4332 52.9996 16.3545 52.7818 16.3498C52.564 16.3452 52.351 16.4148 52.1774 16.5473C52.0738 16.6258 49.6413 18.5073 49.4218 21.5608C49.2794 23.5391 50.0967 25.498 51.8276 27.3921V37.8002H43.5757C43.4689 37.5373 43.4623 37.244 43.5573 36.9766C43.609 36.8932 43.6898 36.8324 43.7839 36.8061C44.0336 36.7559 44.2536 36.6088 44.3963 36.3965C44.539 36.1842 44.5929 35.924 44.5464 35.672C44.4998 35.42 44.3566 35.1967 44.1476 35.0502C43.9386 34.9038 43.6808 34.846 43.4298 34.8895C43.116 34.9537 42.8185 35.0819 42.5558 35.2663C42.2931 35.4507 42.0707 35.6873 41.9024 35.9616C41.5881 36.5189 41.4806 37.1705 41.5992 37.8002H40.7446C40.8631 37.1705 40.7556 36.5189 40.4413 35.9616C40.273 35.6873 40.0506 35.4507 39.7879 35.2663C39.5252 35.0819 39.2277 34.9537 38.9139 34.8895C38.7885 34.8678 38.6602 34.8712 38.5361 34.8995C38.4121 34.9277 38.2948 34.9803 38.1909 35.0542C38.087 35.1281 37.9987 35.2219 37.9308 35.3301C37.8629 35.4384 37.8169 35.5591 37.7954 35.6852C37.7739 35.8114 37.7773 35.9406 37.8054 36.0654C37.8334 36.1903 37.8857 36.3084 37.9591 36.4129C38.0325 36.5174 38.1257 36.6064 38.2333 36.6747C38.3408 36.7429 38.4607 36.7892 38.5861 36.8109C38.6649 36.8421 38.7326 36.8963 38.7805 36.9666C38.8723 37.2378 38.8665 37.5328 38.7642 37.8002H31.9687V19.1786C31.692 19.2373 31.4104 19.2696 31.1277 19.2748C31.1102 19.275 31.0854 19.2752 31.068 19.2752C30.7187 19.2743 30.3708 19.2323 30.0312 19.15V37.8002H23.232C23.1251 37.5373 23.1186 37.244 23.2136 36.9766C23.2652 36.8932 23.3461 36.8324 23.4402 36.8061C23.6899 36.7559 23.9099 36.6088 24.0525 36.3965C24.1952 36.1842 24.2492 35.924 24.2026 35.672C24.1561 35.42 24.0128 35.1967 23.8038 35.0502C23.5949 34.9038 23.337 34.846 23.0861 34.8895C22.7722 34.9537 22.4747 35.0819 22.212 35.2663C21.9493 35.4507 21.727 35.6873 21.5587 35.9616C21.2443 36.5189 21.1369 37.1705 21.2554 37.8002H20.4008C20.5194 37.1705 20.4119 36.5189 20.0975 35.9616C19.9292 35.6873 19.7069 35.4507 19.4442 35.2663C19.1815 35.0819 18.884 34.9537 18.5701 34.8895C18.4448 34.8678 18.3164 34.8712 18.1924 34.8995C18.0683 34.9277 17.951 34.9803 17.8471 35.0542C17.6374 35.2034 17.4951 35.4304 17.4517 35.6852C17.4082 35.94 17.4671 36.2018 17.6154 36.4129C17.7636 36.624 17.9892 36.7672 18.2423 36.8109C18.3211 36.8421 18.3888 36.8963 18.4367 36.9666C18.5285 37.2378 18.5228 37.5328 18.4205 37.8002H10.1719V27.5252C10.8459 26.7865 12.6962 24.4951 12.5892 21.6865C12.5166 19.777 11.573 18.0564 9.78399 16.573C9.61619 16.4331 9.40634 16.3545 9.18853 16.3498C8.97072 16.3452 8.75773 16.4147 8.58417 16.5473C8.48058 16.6258 6.04806 18.5077 5.82834 21.5608C5.68596 23.5392 6.50329 25.4982 8.23438 27.3923V37.8002H1.9375C1.42381 37.8007 0.931318 38.0064 0.568085 38.3719C0.204852 38.7375 0.000547487 39.2332 0 39.7502V41.7002C0.000547487 42.2172 0.204852 42.7129 0.568085 43.0784C0.931318 43.444 1.42381 43.6496 1.9375 43.6502H60.0625C60.5762 43.6496 61.0687 43.444 61.4319 43.0784C61.7951 42.7129 61.9994 42.2172 62 41.7002V39.7502C61.9994 39.2332 61.7951 38.7375 61.4319 38.3719C61.0687 38.0064 60.5762 37.8007 60.0625 37.8002Z" fill="black"/>
<path d="M50.2583 7.38083C50.3459 7.31561 51.1304 6.76193 51.6443 7.25658C51.7362 7.3451 51.8445 7.41455 51.963 7.46096C52.0816 7.50736 52.208 7.52981 52.3352 7.52703C52.4623 7.52424 52.5877 7.49628 52.7041 7.44473C52.8206 7.39318 52.9258 7.31906 53.0137 7.22659C53.1017 7.13413 53.1707 7.02513 53.2168 6.90582C53.2629 6.78652 53.2852 6.65924 53.2824 6.53126C53.2797 6.40328 53.2519 6.2771 53.2007 6.15992C53.1494 6.04275 53.0758 5.93687 52.9839 5.84834C52.653 5.52474 52.2437 5.29395 51.7967 5.17894C51.3497 5.06393 50.8806 5.06871 50.436 5.19279C50.2932 4.80168 50.049 4.45618 49.7287 4.19214C49.4084 3.9281 49.0237 3.75515 48.6146 3.69125C48.4894 3.66781 48.3608 3.66944 48.2363 3.69606C48.1117 3.72268 47.9935 3.77376 47.8886 3.84639C47.7837 3.91901 47.694 4.01174 47.6247 4.11929C47.5554 4.22683 47.5079 4.34707 47.4848 4.47313C47.4617 4.59918 47.4636 4.72858 47.4902 4.85392C47.5169 4.97925 47.5679 5.09806 47.6402 5.20355C47.7125 5.30904 47.8048 5.39914 47.9118 5.46869C48.0188 5.53824 48.1384 5.58588 48.2636 5.60888C48.4443 5.6422 48.7464 5.69838 48.7104 6.55912C48.7034 6.74262 48.7481 6.92437 48.8393 7.0834C48.9306 7.24243 49.0646 7.37227 49.226 7.45792C49.3885 7.54186 49.5708 7.57908 49.7529 7.56548C49.9351 7.55188 50.11 7.48799 50.2583 7.38083V7.38083Z" fill="black"/>
<path d="M31.0767 17.325H31.0989C31.3846 17.3159 31.6649 17.2442 31.9202 17.1149C32.1756 16.9855 32.3998 16.8017 32.5772 16.5761C32.8693 16.7236 33.191 16.8022 33.5178 16.8059C33.7626 16.8067 34.005 16.7573 34.2302 16.6608C34.491 16.543 34.7232 16.3694 34.9104 16.152C35.0976 15.9345 35.2354 15.6786 35.3142 15.4021C35.3654 15.4047 35.4664 15.4064 35.4667 15.4064C35.727 15.4137 35.986 15.3678 36.2281 15.2712C36.4702 15.1746 36.6902 15.0295 36.8747 14.8447C37.071 14.6354 37.2195 14.3856 37.31 14.1127C37.4005 13.8398 37.4308 13.5503 37.3988 13.2643C37.6748 13.1854 37.9292 13.0442 38.1427 12.8513C38.3563 12.6585 38.5233 12.4192 38.6311 12.1517C38.7389 11.8841 38.7846 11.5953 38.7648 11.3073C38.745 11.0192 38.6602 10.7395 38.5168 10.4894C38.742 10.3106 38.9236 10.0824 39.048 9.82224C39.1723 9.56208 39.2361 9.2768 39.2344 8.98811C39.2327 8.69942 39.1656 8.41492 39.0381 8.15627C38.9107 7.89761 38.7264 7.67161 38.4991 7.49547C38.6394 7.24364 38.7208 6.96294 38.7371 6.6747C38.7534 6.38645 38.7042 6.09826 38.5933 5.83203C38.4823 5.5658 38.3125 5.32853 38.0967 5.13827C37.881 4.94801 37.6249 4.80976 37.3481 4.73403C37.3765 4.44774 37.3427 4.15867 37.2489 3.88688C37.1551 3.61509 37.0037 3.36711 36.8051 3.16016C36.6218 2.98083 36.4046 2.84022 36.1665 2.74664C35.9284 2.65305 35.674 2.60837 35.4185 2.61523C35.359 2.61523 35.2988 2.61738 35.2378 2.62169C35.1558 2.34629 35.0151 2.0922 34.8255 1.87713C34.636 1.66206 34.4021 1.4912 34.1402 1.37644C33.9204 1.28543 33.6849 1.23886 33.4472 1.23939C33.1129 1.24352 32.7842 1.3261 32.4871 1.48055C32.3069 1.25715 32.0804 1.07604 31.8235 0.94986C31.5665 0.823679 31.2853 0.755472 30.9995 0.75C30.6938 0.756584 30.3937 0.834115 30.1226 0.976554C29.8516 1.11899 29.6169 1.32249 29.4367 1.5712C29.1221 1.3981 28.7701 1.30511 28.4115 1.30034C28.1586 1.29956 27.9083 1.35213 27.6768 1.45465C27.4177 1.57574 27.1879 1.75225 27.0036 1.9719C26.8192 2.19154 26.6847 2.44901 26.6094 2.72636C26.5681 2.72422 26.5271 2.72312 26.4867 2.72312C26.2105 2.71184 25.9353 2.76197 25.6805 2.86995C25.4258 2.97793 25.1979 3.14111 25.013 3.34785C24.8281 3.5546 24.6907 3.79983 24.6107 4.0661C24.5307 4.33236 24.51 4.6131 24.5501 4.88833C24.2752 4.97079 24.0226 5.11522 23.8115 5.31065C23.6004 5.50607 23.4363 5.74736 23.3317 6.01616C23.2272 6.28497 23.1848 6.57423 23.208 6.86197C23.2311 7.14971 23.3191 7.42835 23.4653 7.67673C23.2423 7.85838 23.0634 8.08881 22.9422 8.35051C22.821 8.61221 22.7607 8.89828 22.7659 9.18695C22.7711 9.47563 22.8417 9.75932 22.9722 10.0164C23.1027 10.2735 23.2898 10.4973 23.5191 10.6707C23.3819 10.9242 23.3038 11.2059 23.291 11.4943C23.2781 11.7828 23.3307 12.0704 23.4449 12.3352C23.559 12.6001 23.7317 12.8353 23.9497 13.023C24.1677 13.2106 24.4254 13.3457 24.7031 13.4181C24.6779 13.7046 24.715 13.9933 24.8119 14.2639C24.9089 14.5345 25.0633 14.7806 25.2644 14.9849C25.6317 15.3362 26.1225 15.5264 26.629 15.5137C26.6979 15.5137 26.7679 15.5105 26.8386 15.5046C26.9239 15.7789 27.0675 16.0313 27.2596 16.244C27.4517 16.4567 27.6875 16.6248 27.9508 16.7363C28.1643 16.8221 28.3923 16.8659 28.6222 16.8653C28.9644 16.8612 29.3006 16.7744 29.6025 16.6123C29.7831 16.8304 30.0083 17.0069 30.2626 17.1299C30.5169 17.2528 30.7946 17.3194 31.0767 17.325V17.325ZM31 7.0875C31.3832 7.0875 31.7578 7.20187 32.0764 7.41613C32.395 7.6304 32.6434 7.93495 32.79 8.29127C32.9367 8.64758 32.975 9.03966 32.9003 9.41793C32.8255 9.79619 32.641 10.1436 32.37 10.4164C32.0991 10.6891 31.7538 10.8748 31.378 10.95C31.0022 11.0253 30.6126 10.9867 30.2586 10.8391C29.9045 10.6915 29.6019 10.4415 29.389 10.1209C29.1761 9.80019 29.0625 9.42317 29.0625 9.0375C29.063 8.5205 29.2674 8.02483 29.6306 7.65925C29.9938 7.29367 30.4863 7.08805 31 7.0875V7.0875Z" fill="black"/>
</svg>
