<svg width="58" height="57" viewBox="0 0 58 57" fill="none" xmlns="http://www.w3.org/2000/svg">
<path d="M52.083 40.0761L50.445 41.1681C49.7212 41.652 48.8701 41.9103 47.9995 41.9103C47.1289 41.9103 46.2778 41.652 45.554 41.1681C44.4705 40.4477 43.1929 40.0751 41.892 40.1001C42.4053 39.4393 42.8626 38.7369 43.259 38.0001H46C51.537 38.0001 53 33.4211 53 31.0001C53 30.7349 52.8946 30.4805 52.7071 30.293C52.5196 30.1054 52.2652 30.0001 52 30.0001H44.949C44.8774 28.8358 44.6697 27.684 44.33 26.5681L46.263 24.6351C50.178 20.7201 47.975 16.4481 46.263 14.7351C46.0755 14.5476 45.8212 14.4423 45.556 14.4423C45.2908 14.4423 45.0365 14.5476 44.849 14.7351L39.86 19.7231C38.9946 18.9607 38.0443 18.3003 37.028 17.7551L37 15.0001C37 9.46307 32.421 8.00007 30 8.00007C29.7348 8.00007 29.4804 8.10543 29.2929 8.29297C29.1054 8.4805 29 8.73486 29 9.00007V16.0511C27.8361 16.1227 26.6846 16.3304 25.569 16.6701L23.636 14.7381C22.8045 13.7858 21.7084 13.1024 20.4873 12.7751C19.2662 12.4478 17.9753 12.4913 16.779 12.9001C16.0173 13.1616 15.2975 13.5321 14.642 14.0001H3C2.73478 14.0001 2.48043 13.8947 2.29289 13.7072C2.10536 13.5196 2 13.2653 2 13.0001C2 12.7349 2.10536 12.4805 2.29289 12.293C2.48043 12.1054 2.73478 12.0001 3 12.0001H5C5.26522 12.0001 5.51957 11.8947 5.70711 11.7072C5.89464 11.5196 6 11.2653 6 11.0001C6 10.4696 6.21071 9.96093 6.58579 9.58586C6.96086 9.21079 7.46957 9.00007 8 9.00007C8.53043 9.00007 9.03914 9.21079 9.41421 9.58586C9.78929 9.96093 10 10.4696 10 11.0001H12C12 10.0265 11.645 9.08632 11.0014 8.3558C10.3578 7.62528 9.46984 7.15457 8.50402 7.03189C7.53819 6.90922 6.56078 7.143 5.755 7.68943C4.94921 8.23585 4.37038 9.0574 4.127 10.0001H3C2.20435 10.0001 1.44129 10.3161 0.87868 10.8788C0.316071 11.4414 0 12.2044 0 13.0001C0 13.7957 0.316071 14.5588 0.87868 15.1214C1.44129 15.684 2.20435 16.0001 3 16.0001H13.635C13.6636 16.0534 13.6971 16.1039 13.735 16.1511L18.724 21.1391C17.9556 22.0129 17.2911 22.973 16.744 24.0001H14C8.463 24.0001 7 28.5791 7 31.0001C7 31.2653 7.10536 31.5196 7.29289 31.7072C7.48043 31.8947 7.73478 32.0001 8 32.0001H15.035C15.1124 33.1642 15.3255 34.3154 15.67 35.4301L13.736 37.3641C12.4703 38.5416 11.6987 40.1556 11.577 41.8801C10.8543 41.8132 10.1593 41.5686 9.554 41.1681L7.917 40.0761C6.8647 39.3733 5.62741 38.9988 4.362 39.0001H2V41.0001H4.362C5.23229 40.9992 6.08324 41.2568 6.807 41.7401L8.445 42.8321C9.49685 43.5358 10.7339 43.9115 11.9995 43.9115C13.2651 43.9115 14.5022 43.5358 15.554 42.8321C16.2778 42.3482 17.1289 42.0899 17.9995 42.0899C18.8701 42.0899 19.7212 42.3482 20.445 42.8321C21.4968 43.5358 22.7339 43.9115 23.9995 43.9115C25.2651 43.9115 26.5022 43.5358 27.554 42.8321C28.2778 42.3482 29.1289 42.0899 29.9995 42.0899C30.8701 42.0899 31.7212 42.3482 32.445 42.8321C33.4968 43.5358 34.7339 43.9115 35.9995 43.9115C37.2651 43.9115 38.5022 43.5358 39.554 42.8321C40.2778 42.3482 41.1289 42.0899 41.9995 42.0899C42.8701 42.0899 43.7212 42.3482 44.445 42.8321C45.4968 43.5358 46.7339 43.9115 47.9995 43.9115C49.2651 43.9115 50.5022 43.5358 51.554 42.8321L53.192 41.7401C53.916 41.2566 54.7674 40.999 55.638 41.0001H58V39.0001H55.638C54.3726 38.9988 53.1353 39.3733 52.083 40.0761V40.0761ZM46 36.0001H44.124C44.5772 34.7103 44.8514 33.3644 44.939 32.0001H50.89C50.7372 33.164 50.1463 34.2258 49.2377 34.9691C48.329 35.7124 47.1711 36.0811 46 36.0001V36.0001ZM45.479 16.9361C46.194 17.8671 46.527 19.0357 46.4101 20.2037C46.2932 21.3717 45.7353 22.4512 44.85 23.2221L43.522 24.5501C42.932 23.3165 42.1763 22.1692 41.276 21.1401L45.479 16.9361ZM35 15.0101L35.02 16.8821C33.7248 16.4206 32.372 16.141 31 16.0511V10.1111C32.1651 10.265 33.2276 10.8576 33.9708 11.7679C34.7141 12.6782 35.0822 13.8377 35 15.0101V15.0101ZM22.222 16.1511L23.55 17.4791C22.3161 18.069 21.1685 18.8246 20.139 19.7251L15.933 15.5191C16.8622 14.7974 18.0332 14.4606 19.2038 14.5782C20.3744 14.6959 21.455 15.259 22.222 16.1511V16.1511ZM14 26.0001H15.875C15.4178 27.2892 15.1405 28.6352 15.051 30.0001H9.11C9.26275 28.8361 9.85369 27.7743 10.7623 27.031C11.671 26.2878 12.8289 25.9191 14 26.0001V26.0001ZM14.445 41.1681C14.1813 41.3396 13.9 41.4824 13.606 41.5941C13.7999 40.5125 14.3421 39.5239 15.15 38.7791L16.468 37.4611C16.9123 38.3921 17.4515 39.2747 18.077 40.0951C16.7858 40.0781 15.5197 40.4522 14.445 41.1681V41.1681ZM29 29.0001C29 29.2653 29.1054 29.5196 29.2929 29.7072C29.4804 29.8947 29.7348 30.0001 30 30.0001H32.417L31 33.2301V32.0001C31 31.7349 30.8946 31.4805 30.7071 31.293C30.5196 31.1054 30.2652 31.0001 30 31.0001H27.583L29 27.7701V29.0001ZM31 38.2101L32.462 34.8761L34.9 37.3121C33.7697 38.1934 32.4222 38.7528 31 38.9311V38.2101ZM36.312 35.9001L33.325 32.9131L33.725 32.0021H37.932C37.753 33.4236 37.1933 34.7704 36.312 35.9001ZM34.6 30.0001L34.862 29.4001C34.9162 29.2789 34.9454 29.148 34.9479 29.0153C34.9503 28.8825 34.9259 28.7507 34.8761 28.6276C34.8264 28.5045 34.7522 28.3928 34.6582 28.299C34.5642 28.2053 34.4522 28.1315 34.329 28.0821L36.312 26.1001C37.1933 27.2304 37.7527 28.5779 37.931 30.0001H34.6ZM31.585 28.0001H31V23.0691C32.4222 23.2474 33.7697 23.8068 34.9 24.6881L31.585 28.0001ZM27.231 26.8191L25.1 24.6881C26.1943 23.8354 27.4926 23.2838 28.866 23.0881L27.231 26.8191ZM23.688 26.1001L26.37 28.7831L25.838 30.0001H22.069C22.2473 28.5779 22.8067 27.2304 23.688 26.1001V26.1001ZM25.059 32.0001C25.0571 32.1313 25.0815 32.2616 25.1306 32.3833C25.1798 32.505 25.2528 32.6157 25.3452 32.7089C25.4377 32.802 25.5479 32.8757 25.6693 32.9257C25.7906 32.9757 25.9207 33.001 26.052 33.0001H26.585L23.685 35.9001C22.8048 34.7694 22.2464 33.4219 22.069 32.0001H25.059ZM29 33.4141V38.9301C27.5778 38.7518 26.2303 38.1924 25.1 37.3111L29 33.4141ZM33.555 41.1681C33.2494 40.9674 32.9272 40.7931 32.592 40.6471C34.9349 40.0184 36.9694 38.5596 38.3166 36.5423C39.6638 34.525 40.2318 32.0867 39.9147 29.6817C39.5977 27.2768 38.4173 25.069 36.5933 23.4697C34.7694 21.8705 32.4263 20.9887 30.0005 20.9887C27.5747 20.9887 25.2316 21.8705 23.4077 23.4697C21.5837 25.069 20.4033 27.2768 20.0863 29.6817C19.7692 32.0867 20.3372 34.525 21.6844 36.5423C23.0316 38.5596 25.0661 40.0184 27.409 40.6471C27.0738 40.7931 26.7516 40.9674 26.446 41.1681C25.8827 41.5436 25.2401 41.7837 24.5686 41.8696C23.897 41.9555 23.2147 41.8848 22.575 41.6631C20.3063 40.0818 18.6012 37.8181 17.7076 35.201C16.8141 32.584 16.7787 29.7501 17.6066 27.1116C18.4345 24.473 20.0826 22.1674 22.3111 20.53C24.5396 18.8926 27.2323 18.0087 29.9977 18.0071C32.7631 18.0054 35.4569 18.886 37.6874 20.5207C39.9179 22.1554 41.5687 24.459 42.3998 27.0966C43.2309 29.7341 43.1989 32.568 42.3085 35.1861C41.4182 37.8043 39.7158 40.0701 37.449 41.6541C36.8068 41.8809 36.1205 41.9551 35.4446 41.8707C34.7687 41.7864 34.1218 41.5458 33.555 41.1681V41.1681Z" fill="black"/>
<path d="M9.555 47.168L7.917 46.076C6.8647 45.3732 5.62741 44.9987 4.362 45H2V47H4.362C5.23229 46.9992 6.08324 47.2567 6.807 47.74L8.445 48.832C9.49685 49.5358 10.7339 49.9115 11.9995 49.9115C13.2651 49.9115 14.5022 49.5358 15.554 48.832C16.2701 48.3208 17.1207 48.0315 18 48V46C16.7258 46.0304 15.489 46.4367 14.445 47.168C13.7213 47.6517 12.8704 47.9099 12 47.9099C11.1296 47.9099 10.2787 47.6517 9.555 47.168V47.168Z" fill="black"/>
<path d="M30.445 53.1677L28.808 54.2597C28.0842 54.743 27.2333 55.0005 26.363 54.9997H24V56.9997H26.362C27.6274 57.001 28.8647 56.6265 29.917 55.9237L31.555 54.8317C32.2788 54.3478 33.1299 54.0895 34.0005 54.0895C34.8711 54.0895 35.7222 54.3478 36.446 54.8317C37.4897 55.5627 38.7261 55.9691 40 55.9997V53.9997C39.1211 53.968 38.2708 53.6787 37.555 53.1677C36.5031 52.4637 35.2658 52.0879 34 52.0879C32.7342 52.0879 31.4969 52.4637 30.445 53.1677V53.1677Z" fill="black"/>
<path d="M30.107 48.168C29.3832 48.6519 28.5321 48.9102 27.6615 48.9102C26.7909 48.9102 25.9398 48.6519 25.216 48.168L23.58 47.076C22.5172 46.3756 21.2728 46.0016 20 46V48C20.8782 48.0003 21.7372 48.2575 22.471 48.74L24.108 49.832C25.1599 50.5356 26.397 50.9112 27.6625 50.9112C28.928 50.9112 30.1651 50.5356 31.217 49.832C31.9332 49.3209 32.7837 49.0316 33.663 49H34V47H33.663C32.3885 47.0307 31.1515 47.437 30.107 48.168Z" fill="black"/>
<path d="M53.107 54.168C52.3832 54.6519 51.5321 54.9102 50.6615 54.9102C49.7909 54.9102 48.9398 54.6519 48.216 54.168L46.58 53.076C45.5172 52.3756 44.2728 52.0016 43 52V54C43.8782 54.0003 44.7372 54.2575 45.471 54.74L47.108 55.832C48.1599 56.5356 49.397 56.9112 50.6625 56.9112C51.928 56.9112 53.1651 56.5356 54.217 55.832C54.9332 55.3209 55.7837 55.0316 56.663 55H58V53H56.663C55.3885 53.0307 54.1515 53.437 53.107 54.168V54.168Z" fill="black"/>
<path d="M16.068 52.076L14.431 53.168C13.7072 53.6519 12.8561 53.9102 11.9855 53.9102C11.1148 53.9102 10.2638 53.6519 9.53997 53.168C8.51685 52.4387 7.29903 52.0319 6.04297 52V54C6.90376 54.0349 7.73484 54.3245 8.43097 54.832C9.48281 55.5358 10.7199 55.9115 11.9855 55.9115C13.251 55.9115 14.4881 55.5358 15.54 54.832L17.178 53.74C17.9017 53.2567 18.7527 52.9992 19.623 53H21.985V51H19.623C18.3576 50.9987 17.1203 51.3732 16.068 52.076V52.076Z" fill="black"/>
<path d="M54.0006 45H49.6386C48.3732 44.9987 47.1359 45.3732 46.0836 46.076L44.4456 47.168C43.7218 47.6519 42.8707 47.9102 42.0001 47.9102C41.1295 47.9102 40.2784 47.6519 39.5546 47.168C38.5318 46.4389 37.3143 46.0321 36.0586 46V48C36.9194 48.0349 37.7505 48.3245 38.4466 48.832C39.4984 49.5358 40.7355 49.9115 42.0011 49.9115C43.2667 49.9115 44.5037 49.5358 45.5556 48.832L47.1936 47.74C47.9174 47.2567 48.7683 46.9992 49.6386 47H54.0006V45Z" fill="black"/>
<path d="M4 52H2V54H4V52Z" fill="black"/>
<path d="M21 55H19V57H21V55Z" fill="black"/>
<path d="M42 5.00007H44C44.2652 5.00007 44.5196 4.89472 44.7071 4.70718C44.8946 4.51964 45 4.26529 45 4.00007C45 3.46964 45.2107 2.96093 45.5858 2.58586C45.9609 2.21079 46.4696 2.00007 47 2.00007C47.5304 2.00007 48.0391 2.21079 48.4142 2.58586C48.7893 2.96093 49 3.46964 49 4.00007H51C51 3.02649 50.6449 2.08632 50.0014 1.3558C49.3578 0.625281 48.4698 0.154566 47.504 0.0318908C46.5382 -0.0907848 45.5608 0.143002 44.755 0.689427C43.9492 1.23585 43.3704 2.0574 43.127 3.00007H42C41.2044 3.00007 40.4413 3.31615 39.8787 3.87875C39.3161 4.44136 39 5.20442 39 6.00007C39 6.79572 39.3161 7.55879 39.8787 8.1214C40.4413 8.684 41.2044 9.00007 42 9.00007H56V7.00007H42C41.7348 7.00007 41.4804 6.89472 41.2929 6.70718C41.1054 6.51964 41 6.26529 41 6.00007C41 5.73486 41.1054 5.4805 41.2929 5.29297C41.4804 5.10543 41.7348 5.00007 42 5.00007Z" fill="black"/>
<path d="M55 12H52V14H55V12Z" fill="black"/>
<path d="M20 6H15V8H20V6Z" fill="black"/>
<path d="M58 45H56V47H58V45Z" fill="black"/>
<path d="M52 50H50V52H52V50Z" fill="black"/>
</svg>
