<svg width="50" height="51" viewBox="0 0 50 51" fill="none" xmlns="http://www.w3.org/2000/svg">
<path d="M25 18H21C20.7348 18 20.4804 17.8946 20.2929 17.7071C20.1054 17.5196 20 17.2652 20 17V7C20 5.14348 20.7375 3.36301 22.0503 2.05025C23.363 0.737498 25.1435 0 27 0C28.8565 0 30.637 0.737498 31.9497 2.05025C33.2625 3.36301 34 5.14348 34 7V9C34 9.26522 33.8946 9.51957 33.7071 9.70711C33.5196 9.89464 33.2652 10 33 10H29C28.7348 10 28.4804 9.89464 28.2929 9.70711C28.1054 9.51957 28 9.26522 28 9V6H26V17C26 17.2652 25.8946 17.5196 25.7071 17.7071C25.5196 17.8946 25.2652 18 25 18ZM22 16H24V5C24 4.73478 24.1054 4.48043 24.2929 4.29289C24.4804 4.10536 24.7348 4 25 4H29C29.2652 4 29.5196 4.10536 29.7071 4.29289C29.8946 4.48043 30 4.73478 30 5V8H32V7C32 5.67392 31.4732 4.40215 30.5355 3.46447C29.5979 2.52678 28.3261 2 27 2C25.6739 2 24.4021 2.52678 23.4645 3.46447C22.5268 4.40215 22 5.67392 22 7V16Z" fill="black"/>
<path d="M43 35H7C6.84475 35 6.69164 34.9639 6.55279 34.8944C6.41393 34.825 6.29315 34.7242 6.2 34.6L5 33C1.76728 28.6659 0.0142978 23.4069 0 18C0 17.7348 0.105357 17.4804 0.292893 17.2929C0.48043 17.1054 0.734784 17 1 17H49C49.2652 17 49.5196 17.1054 49.7071 17.2929C49.8946 17.4804 50 17.7348 50 18C49.9857 23.4069 48.2327 28.6659 45 33L43.8 34.6C43.7069 34.7242 43.5861 34.825 43.4472 34.8944C43.3084 34.9639 43.1552 35 43 35ZM7.5 33H42.5L43.4 31.8C46.1788 28.0893 47.7811 23.6307 48 19H2C2.21888 23.6307 3.82121 28.0893 6.6 31.8L7.5 33Z" fill="black"/>
<path d="M29 39H21C20.7348 39 20.4804 38.8946 20.2929 38.7071C20.1054 38.5196 20 38.2652 20 38V34C20 33.7348 20.1054 33.4804 20.2929 33.2929C20.4804 33.1054 20.7348 33 21 33H29C29.2652 33 29.5196 33.1054 29.7071 33.2929C29.8946 33.4804 30 33.7348 30 34V38C30 38.2652 29.8946 38.5196 29.7071 38.7071C29.5196 38.8946 29.2652 39 29 39ZM22 37H28V35H22V37Z" fill="black"/>
<path d="M27 51H23C22.7348 51 22.4804 50.8946 22.2929 50.7071C22.1054 50.5196 22 50.2652 22 50V38C22 37.7348 22.1054 37.4804 22.2929 37.2929C22.4804 37.1054 22.7348 37 23 37H27C27.2652 37 27.5196 37.1054 27.7071 37.2929C27.8946 37.4804 28 37.7348 28 38V50C28 50.2652 27.8946 50.5196 27.7071 50.7071C27.5196 50.8946 27.2652 51 27 51ZM24 49H26V39H24V49Z" fill="black"/>
<path d="M9 19H5C4.73478 19 4.48043 18.8946 4.29289 18.7071C4.10536 18.5196 4 18.2652 4 18V13H1C0.734784 13 0.48043 12.8946 0.292893 12.7071C0.105357 12.5196 0 12.2652 0 12V8C0 7.73478 0.105357 7.48043 0.292893 7.29289C0.48043 7.10536 0.734784 7 1 7H9C9.26522 7 9.51957 7.10536 9.70711 7.29289C9.89464 7.48043 10 7.73478 10 8V18C10 18.2652 9.89464 18.5196 9.70711 18.7071C9.51957 18.8946 9.26522 19 9 19ZM6 17H8V9H2V11H5C5.26522 11 5.51957 11.1054 5.70711 11.2929C5.89464 11.4804 6 11.7348 6 12V17Z" fill="black"/>
<path d="M45 19H41C40.7348 19 40.4804 18.8946 40.2929 18.7071C40.1054 18.5196 40 18.2652 40 18V8C40 7.73478 40.1054 7.48043 40.2929 7.29289C40.4804 7.10536 40.7348 7 41 7H49C49.2652 7 49.5196 7.10536 49.7071 7.29289C49.8946 7.48043 50 7.73478 50 8V12C50 12.2652 49.8946 12.5196 49.7071 12.7071C49.5196 12.8946 49.2652 13 49 13H46V18C46 18.2652 45.8946 18.5196 45.7071 18.7071C45.5196 18.8946 45.2652 19 45 19ZM42 17H44V12C44 11.7348 44.1054 11.4804 44.2929 11.2929C44.4804 11.1054 44.7348 11 45 11H48V9H42V17Z" fill="black"/>
</svg>
