<svg width="64" height="70" viewBox="0 0 64 70" fill="none" xmlns="http://www.w3.org/2000/svg">
<path d="M60.583 65H3.417C2.51108 64.9989 1.64257 64.6386 1.00199 63.998C0.361403 63.3574 0.00105863 62.4889 0 61.583V3.417C0.00105863 2.51108 0.361403 1.64257 1.00199 1.00199C1.64257 0.361403 2.51108 0.00105863 3.417 0H60.583C61.4889 0.00105863 62.3574 0.361403 62.998 1.00199C63.6386 1.64257 63.9989 2.51108 64 3.417V61.583C63.9989 62.4889 63.6386 63.3574 62.998 63.998C62.3574 64.6386 61.4889 64.9989 60.583 65V65ZM3.417 2C3.04127 2.00026 2.681 2.14964 2.41532 2.41532C2.14964 2.681 2.00026 3.04127 2 3.417V61.583C2.00026 61.9587 2.14964 62.319 2.41532 62.5847C2.681 62.8504 3.04127 62.9997 3.417 63H60.583C60.9587 62.9997 61.319 62.8504 61.5847 62.5847C61.8504 62.319 61.9997 61.9587 62 61.583V3.417C61.9997 3.04127 61.8504 2.681 61.5847 2.41532C61.319 2.14964 60.9587 2.00026 60.583 2H3.417Z" fill="black"/>
<path d="M55 70H45C44.7348 70 44.4804 69.8946 44.2929 69.7071C44.1054 69.5196 44 69.2652 44 69V64C44 63.7348 44.1054 63.4804 44.2929 63.2929C44.4804 63.1054 44.7348 63 45 63H55C55.2652 63 55.5196 63.1054 55.7071 63.2929C55.8946 63.4804 56 63.7348 56 64V69C56 69.2652 55.8946 69.5196 55.7071 69.7071C55.5196 69.8946 55.2652 70 55 70ZM46 68H54V65H46V68Z" fill="black"/>
<path d="M19 70H9C8.73478 70 8.48043 69.8946 8.29289 69.7071C8.10536 69.5196 8 69.2652 8 69V64C8 63.7348 8.10536 63.4804 8.29289 63.2929C8.48043 63.1054 8.73478 63 9 63H19C19.2652 63 19.5196 63.1054 19.7071 63.2929C19.8946 63.4804 20 63.7348 20 64V69C20 69.2652 19.8946 69.5196 19.7071 69.7071C19.5196 69.8946 19.2652 70 19 70ZM10 68H18V65H10V68Z" fill="black"/>
<path d="M63 16H1C0.734784 16 0.48043 15.8946 0.292893 15.7071C0.105357 15.5196 0 15.2652 0 15C0 14.7348 0.105357 14.4804 0.292893 14.2929C0.48043 14.1054 0.734784 14 1 14H63C63.2652 14 63.5196 14.1054 63.7071 14.2929C63.8946 14.4804 64 14.7348 64 15C64 15.2652 63.8946 15.5196 63.7071 15.7071C63.5196 15.8946 63.2652 16 63 16Z" fill="black"/>
<path d="M54 12C53.2089 12 52.4355 11.7654 51.7777 11.3259C51.1199 10.8864 50.6072 10.2616 50.3045 9.53074C50.0017 8.79983 49.9225 7.99556 50.0769 7.21964C50.2312 6.44372 50.6122 5.73098 51.1716 5.17157C51.731 4.61216 52.4437 4.2312 53.2196 4.07686C53.9956 3.92252 54.7998 4.00173 55.5307 4.30448C56.2616 4.60723 56.8864 5.11993 57.3259 5.77772C57.7654 6.43552 58 7.20888 58 8C58 9.06087 57.5786 10.0783 56.8284 10.8284C56.0783 11.5786 55.0609 12 54 12ZM54 6C53.6044 6 53.2178 6.1173 52.8889 6.33706C52.56 6.55683 52.3036 6.86918 52.1522 7.23463C52.0009 7.60009 51.9613 8.00222 52.0384 8.39018C52.1156 8.77814 52.3061 9.13451 52.5858 9.41422C52.8655 9.69392 53.2219 9.8844 53.6098 9.96157C53.9978 10.0387 54.3999 9.99914 54.7654 9.84776C55.1308 9.69639 55.4432 9.44004 55.6629 9.11114C55.8827 8.78225 56 8.39557 56 8C56 7.46957 55.7893 6.96086 55.4142 6.58579C55.0391 6.21072 54.5304 6 54 6Z" fill="black"/>
<path d="M10 12C9.20888 12 8.43552 11.7654 7.77772 11.3259C7.11993 10.8864 6.60723 10.2616 6.30448 9.53074C6.00173 8.79983 5.92252 7.99556 6.07686 7.21964C6.2312 6.44372 6.61217 5.73098 7.17158 5.17157C7.73099 4.61216 8.44372 4.2312 9.21964 4.07686C9.99556 3.92252 10.7998 4.00173 11.5307 4.30448C12.2616 4.60723 12.8864 5.11993 13.3259 5.77772C13.7654 6.43552 14 7.20888 14 8C14 9.06087 13.5786 10.0783 12.8284 10.8284C12.0783 11.5786 11.0609 12 10 12ZM10 6C9.60444 6 9.21776 6.1173 8.88886 6.33706C8.55996 6.55683 8.30362 6.86918 8.15224 7.23463C8.00087 7.60009 7.96126 8.00222 8.03843 8.39018C8.1156 8.77814 8.30608 9.13451 8.58579 9.41422C8.86549 9.69392 9.22186 9.8844 9.60982 9.96157C9.99778 10.0387 10.3999 9.99914 10.7654 9.84776C11.1308 9.69639 11.4432 9.44004 11.6629 9.11114C11.8827 8.78225 12 8.39557 12 8C12 7.46957 11.7893 6.96086 11.4142 6.58579C11.0391 6.21072 10.5304 6 10 6Z" fill="black"/>
<path d="M45 12H20C19.7348 12 19.4804 11.8946 19.2929 11.7071C19.1054 11.5196 19 11.2652 19 11V5C19 4.73478 19.1054 4.48043 19.2929 4.29289C19.4804 4.10536 19.7348 4 20 4H45C45.2652 4 45.5196 4.10536 45.7071 4.29289C45.8946 4.48043 46 4.73478 46 5V11C46 11.2652 45.8946 11.5196 45.7071 11.7071C45.5196 11.8946 45.2652 12 45 12ZM21 10H44V6H21V10Z" fill="black"/>
<path d="M32.0016 56C28.9926 56.0003 26.0407 55.1777 23.4655 53.6213C20.8902 52.0649 18.7896 49.8339 17.3909 47.1697C15.9922 44.5055 15.3487 41.5096 15.53 38.506C15.7113 35.5024 16.7104 32.6056 18.4194 30.1289C20.1284 27.6523 22.482 25.6901 25.2258 24.4547C27.9695 23.2194 30.9989 22.7578 33.9861 23.12C36.9732 23.4822 39.8045 24.6543 42.1735 26.5096C44.5425 28.3649 46.3591 30.8327 47.4266 33.646C47.514 33.8925 47.5013 34.1634 47.3913 34.4006C47.2812 34.6379 47.0827 34.8226 46.8381 34.9152C46.5936 35.0078 46.3225 35.0009 46.0829 34.896C45.8434 34.7911 45.6544 34.5965 45.5566 34.354C44.3684 31.2236 42.1333 28.601 39.231 26.9313C36.3287 25.2616 32.938 24.6478 29.6345 25.1942C26.3311 25.7405 23.3185 27.4133 21.1083 29.9285C18.8981 32.4437 17.6264 35.6463 17.5093 38.9926C17.3922 42.3389 18.4367 45.6226 20.4657 48.2862C22.4946 50.9498 25.3828 52.8291 28.64 53.6051C31.8971 54.3811 35.3225 54.0059 38.3345 52.5432C41.3464 51.0806 43.7594 48.6206 45.1636 45.581C45.2186 45.4618 45.2966 45.3545 45.3931 45.2654C45.4896 45.1763 45.6026 45.1071 45.7259 45.0617C45.8491 45.0163 45.98 44.9956 46.1113 45.0008C46.2425 45.006 46.3714 45.037 46.4906 45.092C46.6099 45.147 46.7171 45.225 46.8062 45.3215C46.8953 45.4179 46.9646 45.531 47.01 45.6542C47.0554 45.7775 47.0761 45.9084 47.0709 46.0396C47.0656 46.1709 47.0347 46.2998 46.9796 46.419C45.6543 49.2763 43.5407 51.6959 40.8874 53.3931C38.2341 55.0904 35.1513 55.9948 32.0016 56V56Z" fill="black"/>
<path d="M32 52.5C28.5522 52.5 25.2456 51.1304 22.8076 48.6924C20.3696 46.2544 19 42.9478 19 39.5C19 36.0522 20.3696 32.7456 22.8076 30.3076C25.2456 27.8696 28.5522 26.5 32 26.5C34.3356 26.511 36.6213 27.1766 38.5975 28.4214C40.5738 29.6662 42.1614 31.4402 43.18 33.542C43.2446 33.6591 43.2851 33.7879 43.299 33.9209C43.313 34.0539 43.3001 34.1883 43.2612 34.3162C43.2223 34.4441 43.1581 34.5629 43.0725 34.6656C42.9869 34.7683 42.8815 34.8528 42.7627 34.9141C42.6438 34.9753 42.5139 35.0121 42.3806 35.0223C42.2473 35.0325 42.1133 35.0158 41.9865 34.9733C41.8597 34.9308 41.7428 34.8633 41.6425 34.7747C41.5423 34.6862 41.4609 34.5785 41.403 34.458C40.5612 32.676 39.2305 31.1699 37.5657 30.1151C35.901 29.0602 33.9708 28.5001 32 28.5C30.0915 28.4987 28.2155 28.994 26.5563 29.9372C24.8971 30.8805 23.5119 32.2391 22.5368 33.8797C21.5617 35.5203 21.0302 37.3864 20.9945 39.2946C20.9589 41.2028 21.4204 43.0874 22.3335 44.7633C23.2467 46.4392 24.5803 47.8486 26.203 48.8531C27.8258 49.8576 29.682 50.4226 31.5893 50.4926C33.4965 50.5626 35.3892 50.1351 37.0812 49.2522C38.7732 48.3694 40.2064 47.0614 41.24 45.457C41.3113 45.3467 41.4036 45.2515 41.5117 45.1769C41.6198 45.1023 41.7416 45.0497 41.87 45.0221C41.9984 44.9945 42.131 44.9925 42.2602 45.0161C42.3894 45.0398 42.5127 45.0887 42.623 45.16C42.7333 45.2313 42.8285 45.3236 42.9031 45.4317C42.9777 45.5398 43.0304 45.6616 43.0579 45.79C43.0855 45.9184 43.0875 46.051 43.0639 46.1802C43.0402 46.3094 42.9913 46.4327 42.92 46.543C41.7453 48.3719 40.1295 49.8761 38.2213 50.917C36.313 51.958 34.1737 52.5023 32 52.5V52.5Z" fill="black"/>
<path d="M46.708 47H42.292C41.8169 46.9995 41.3614 46.8105 41.0254 46.4746C40.6895 46.1386 40.5005 45.6831 40.5 45.208V34.792C40.5005 34.3169 40.6895 33.8614 41.0254 33.5254C41.3614 33.1895 41.8169 33.0005 42.292 33H46.708C47.1831 33.0005 47.6386 33.1895 47.9746 33.5254C48.3105 33.8614 48.4995 34.3169 48.5 34.792V45.208C48.4995 45.6831 48.3105 46.1386 47.9746 46.4746C47.6386 46.8105 47.1831 46.9995 46.708 47V47ZM42.5 45H46.5V35H42.5V45Z" fill="black"/>
</svg>
