<svg width="62" height="62" viewBox="0 0 62 62" fill="none" xmlns="http://www.w3.org/2000/svg">
<path d="M24.6196 11.9395C25.3702 11.2636 26.5711 11.2636 27.3217 12.0146C27.9973 12.6904 27.9973 13.8918 27.2467 14.6427L25.2951 16.5951C24.5445 17.2709 23.3436 17.2709 22.668 16.5951C21.9174 15.8442 21.9174 14.6427 22.668 13.8918L24.6196 11.9395ZM57.1204 25.606C57.1955 24.9302 57.1955 24.1793 57.1955 23.5035C57.1955 18.8478 55.4691 14.4926 52.5418 11.0384C49.6144 7.58419 45.4861 5.0311 40.6823 4.13C39.4063 3.90473 37.9802 3.75455 36.6291 3.75455H24.3944C22.9683 3.75455 21.6172 3.90473 20.3412 4.13C15.5373 5.0311 11.4091 7.58419 8.48174 11.0384C5.55441 14.4926 3.82804 18.8478 3.82804 23.5035C3.82804 24.1793 3.82804 24.9302 3.9031 25.606H57.1204ZM60.9484 23.5035C60.9484 24.8551 60.7983 26.2818 60.5731 27.7086C60.423 28.6097 59.7475 29.2855 58.8468 29.3606V32.2891V35.7433C59.0719 35.8935 59.2971 36.0437 59.4472 36.2689C60.423 37.17 61.0235 38.5217 61.0235 39.9484C61.0235 41.3751 60.423 42.6517 59.4472 43.6279L59.3722 43.703C59.2221 43.8531 58.9969 44.0033 58.8468 44.1535V47.4575L58.9969 47.6077C59.5974 48.3586 60.1228 49.1095 60.423 50.0106C60.7983 50.9868 61.0235 51.963 61.0235 53.0142C61.0235 55.267 60.1228 57.2944 58.6216 58.7962C57.1204 60.2981 55.0187 61.1992 52.7669 61.1992H8.25656C5.92971 61.1992 3.9031 60.2981 2.40191 58.7962C0.900716 57.2944 0 55.267 0 53.0142C0 51.963 0.150119 50.9868 0.525418 50.0106C0.900716 49.1095 1.42613 48.2084 2.17673 47.4575V44.1535C1.95155 44.0033 1.72637 43.8531 1.50119 43.6279L1.42613 43.4777C0.525418 42.5766 0 41.3 0 39.9484C0 38.5217 0.600477 37.17 1.50119 36.2689C1.72637 36.0437 1.95155 35.8935 2.17673 35.7433V32.2891V29.3606C1.35107 29.2855 0.600477 28.6848 0.450358 27.8588C0.150119 26.3569 0.0750597 24.9302 0.0750597 23.5035C0.0750597 17.9467 2.10167 12.6904 5.62947 8.63546C9.08222 4.50546 13.9611 1.50182 19.5906 0.450546C21.1668 0.150182 22.7431 0 24.3944 0H36.6291C38.2054 0 39.8567 0.150182 41.4329 0.450546C47.0624 1.50182 51.9413 4.50546 55.394 8.63546C58.9218 12.6904 60.9484 17.9467 60.9484 23.5035ZM55.0938 29.3606H48.1132V30.4119H55.0938V29.3606ZM44.3603 29.3606H35.5032V30.4119H44.3603V29.3606ZM31.7502 29.3606H5.92971V30.4119H31.7502V29.3606ZM19.4404 37.0199L20.4162 35.518C20.7915 34.9924 21.392 34.7671 21.9925 34.7671V34.692H55.0938V34.1664H46.2367H33.6267H5.92971V34.692H16.8884C18.2395 34.692 18.84 36.0437 19.4404 37.0199ZM55.0938 45.1297H5.92971V46.8568H38.2804C38.956 46.8568 39.6315 47.2322 39.9317 47.833L42.1835 51.3622L44.9607 47.6077C45.261 47.1571 45.8614 46.8568 46.4619 46.8568H55.0938V45.1297ZM17.9393 41.3751L15.9126 38.4466H5.25418C5.029 38.4466 4.87888 38.5217 4.72876 38.5968H4.6537C4.50358 38.6719 4.2784 38.747 4.12828 38.8971C3.9031 39.1975 3.75298 39.573 3.75298 39.9484C3.75298 40.3239 3.82804 40.6242 4.05322 40.9246H4.12828C4.2784 41.0748 4.50358 41.225 4.6537 41.3H4.72876C4.87888 41.3751 5.029 41.3751 5.25418 41.3751H17.9393ZM21.0167 41.3751H55.7693C55.9194 41.3751 56.1446 41.3751 56.2947 41.3H56.3698C56.5199 41.225 56.67 41.1499 56.8202 40.9997V40.9246C57.1204 40.6993 57.2705 40.3239 57.2705 39.9484C57.2705 39.573 57.1204 39.1975 56.8202 38.8971C56.67 38.747 56.5199 38.6719 56.3698 38.5968H56.2947C56.1446 38.5217 55.9194 38.4466 55.7693 38.4466H22.9683L21.0167 41.3751ZM37.2296 50.6113H4.42852C4.2784 50.8366 4.12828 51.137 4.05322 51.4373C3.82804 51.8879 3.75298 52.4135 3.75298 53.0142C3.75298 54.2157 4.20334 55.3421 5.029 56.093C5.85465 56.919 6.98055 57.4446 8.25656 57.4446H52.7669C54.0429 57.4446 55.1688 56.919 55.9945 56.093C56.7451 55.3421 57.2705 54.2157 57.2705 53.0142C57.2705 52.4135 57.1955 51.8879 56.9703 51.4373C56.8952 51.137 56.7451 50.8366 56.595 50.6113H47.3626L43.6097 55.7926C42.8591 56.7688 41.2077 56.7688 40.5322 55.6424L37.2296 50.6113ZM21.7673 7.20873C22.4428 7.95964 22.4428 9.1611 21.7673 9.83692C21.0167 10.5878 19.8157 10.5878 19.1402 9.91201L17.1136 7.95964C16.363 7.20873 16.363 6.00728 17.1136 5.25637C17.8642 4.58055 18.9901 4.50546 19.7407 5.25637L21.7673 7.20873ZM32.8011 7.20873C33.5517 7.95964 33.5517 9.1611 32.8011 9.83692C32.1255 10.5878 30.9246 10.5878 30.174 9.91201L28.2224 7.95964C27.4718 7.20873 27.4718 6.00728 28.1474 5.25637C28.898 4.58055 30.0989 4.50546 30.8495 5.25637L32.8011 7.20873ZM43.8348 7.20873C44.5854 7.95964 44.5854 9.1611 43.9099 9.83692C43.1593 10.5878 41.9583 10.5878 41.2077 9.91201L39.2562 7.95964C38.5056 7.20873 38.5056 6.00728 39.2562 5.25637C39.9317 4.58055 41.1327 4.50546 41.8833 5.25637L43.8348 7.20873ZM13.5858 11.9395C14.3364 11.2636 15.4623 11.2636 16.2129 12.0146C16.9635 12.6904 16.9635 13.8918 16.2129 14.6427L14.1863 16.5951C13.5107 17.2709 12.3098 17.2709 11.5592 16.5951C10.8836 15.8442 10.8836 14.6427 11.5592 13.8918L13.5858 11.9395ZM46.7622 11.9395C47.5128 11.2636 48.7137 11.2636 49.3893 12.0146C50.1398 12.6904 50.1398 13.8918 49.3893 14.6427L47.4377 16.5951C46.6871 17.2709 45.4861 17.2709 44.8106 16.5951C44.06 15.8442 44.06 14.6427 44.8106 13.8918L46.7622 11.9395ZM35.7284 11.9395C36.479 11.2636 37.6049 11.2636 38.3555 12.0146C39.1061 12.6904 39.1061 13.8918 38.3555 14.6427L36.3289 16.5951C35.6533 17.2709 34.4524 17.2709 33.7018 16.5951C32.9512 15.8442 33.0262 14.6427 33.7018 13.8918L35.7284 11.9395Z" fill="black"/>
</svg>
