<svg width="60" height="60" viewBox="0 0 60 60" fill="none" xmlns="http://www.w3.org/2000/svg">
<path d="M11.6014 51.376C11.264 51.5244 10.8838 51.5434 10.5333 51.4294C10.1828 51.3153 9.88661 51.0763 9.70114 50.7578C9.51568 50.4393 9.45397 50.0636 9.52779 49.7025C9.60161 49.3414 9.80578 49.0202 10.1014 48.8C10.2064 48.7212 10.2949 48.6225 10.3618 48.5095C10.4287 48.3965 10.4727 48.2714 10.4913 48.1414C10.5099 48.0114 10.5027 47.879 10.4701 47.7518C10.4375 47.6246 10.3802 47.5051 10.3014 47.4C10.2226 47.2949 10.1239 47.2064 10.0109 47.1395C9.89786 47.0726 9.77279 47.0286 9.64278 47.0101C9.51278 46.9915 9.3804 46.9987 9.25318 47.0313C9.12597 47.0639 9.00642 47.1212 8.90136 47.2C8.21575 47.7152 7.74315 48.4642 7.57327 49.3048C7.40339 50.1454 7.54805 51.0191 7.97979 51.7601C8.41154 52.5011 9.10032 53.0578 9.91539 53.3245C10.7305 53.5912 11.6151 53.5494 12.4014 53.207C12.5257 53.1572 12.6387 53.083 12.7338 52.9886C12.8288 52.8943 12.904 52.7819 12.9548 52.658C13.0056 52.5341 13.031 52.4013 13.0295 52.2674C13.0279 52.1335 12.9995 52.0012 12.946 51.8785C12.8924 51.7558 12.8147 51.6451 12.7175 51.553C12.6203 51.4608 12.5056 51.3892 12.3802 51.3422C12.2548 51.2953 12.1213 51.274 11.9875 51.2796C11.8537 51.2852 11.7224 51.3177 11.6014 51.375V51.376Z" fill="black"/>
<path d="M58.1091 12.0227C58.6049 11.1103 58.9059 10.1049 58.993 9.07017C59.08 8.03541 58.9513 6.99386 58.6148 6.01146C58.2784 5.02906 57.7416 4.12723 57.0385 3.36309C56.3354 2.59894 55.4812 1.98913 54.5302 1.57227C53.5791 1.15541 52.5518 0.940586 51.5134 0.941409C50.475 0.942231 49.4481 1.15868 48.4977 1.57704C47.5473 1.99541 46.6941 2.60657 45.9922 3.37183C45.2903 4.13709 44.755 5.03977 44.4201 6.0227C43.8796 5.96693 43.3335 6.00311 42.8051 6.1297C37.7907 2.7731 31.7314 1.34341 25.7454 2.10444C19.7595 2.86547 14.2507 5.76586 10.2357 10.2704C6.22074 14.775 3.97046 20.5797 3.90014 26.6134C3.82981 32.6472 5.94418 38.5028 9.85308 43.0997C8.05477 43.3977 6.44381 44.3859 5.36323 45.8539C4.28265 47.322 3.8178 49.1538 4.06767 50.9594C4.31753 52.7651 5.26237 54.4018 6.70101 55.5212C8.13964 56.6407 9.95842 57.1543 11.7701 56.9527C11.8701 56.9417 11.9601 56.9227 12.0561 56.9087C12.2081 56.8857 12.3561 56.8617 12.5101 56.8287C12.6301 56.8017 12.7471 56.7687 12.8651 56.7367C12.9831 56.7047 13.0951 56.6717 13.2081 56.6367C13.3431 56.5917 13.4761 56.5427 13.6081 56.4907C13.6911 56.4567 13.7721 56.4217 13.8531 56.3847C14.0041 56.3177 14.1531 56.2477 14.2971 56.1707C14.3371 56.1497 14.3751 56.1257 14.4151 56.1037C15.2417 55.6455 15.9667 55.0243 16.5461 54.2777C16.982 55.1319 17.6548 55.8424 18.4839 56.3243C19.313 56.8062 20.2634 57.0391 21.2214 56.9951C22.1794 56.9511 23.1045 56.6321 23.8859 56.0763C24.6674 55.5204 25.2722 54.7512 25.6281 53.8607C26.8252 54.0998 28.064 54.0203 29.2207 53.6301C30.3774 53.24 31.4113 52.553 32.2191 51.6377C32.4801 51.6027 32.7381 51.5587 32.9971 51.5157V58.9997C32.9971 59.2649 33.1024 59.5193 33.29 59.7068C33.4775 59.8943 33.7319 59.9997 33.9971 59.9997H53.9981C54.2633 59.9997 54.5177 59.8943 54.7052 59.7068C54.8927 59.5193 54.9981 59.2649 54.9981 58.9997V33.9997H57.9981C58.2633 33.9997 58.5177 33.8943 58.7052 33.7068C58.8927 33.5193 58.9981 33.2649 58.9981 32.9997V12.9997C58.9966 12.7558 58.905 12.5212 58.7409 12.3408C58.5767 12.1604 58.3517 12.0471 58.1091 12.0227V12.0227ZM43.9981 7.9997C44.2879 8.00523 44.5753 8.05341 44.8511 8.1427C44.9837 8.18196 45.1231 8.19327 45.2604 8.17591C45.3976 8.15855 45.5298 8.1129 45.6485 8.04185C45.7672 7.97079 45.8699 7.87588 45.95 7.76311C46.0301 7.65034 46.086 7.52217 46.1141 7.3867C46.3581 6.20173 46.9859 5.13026 47.9004 4.33823C48.815 3.54621 49.9651 3.07781 51.1728 3.0056C52.3805 2.93339 53.5783 3.26138 54.5807 3.93878C55.5831 4.61619 56.3341 5.6052 56.7176 6.75265C57.101 7.90011 57.0954 9.14197 56.7016 10.2859C56.3079 11.4299 55.5479 12.4121 54.5394 13.0804C53.5309 13.7487 52.3303 14.0659 51.1233 13.9828C49.9163 13.8997 48.7704 13.4209 47.8631 12.6207C47.6806 12.4603 47.446 12.3718 47.2031 12.3717C47.168 12.3717 47.1329 12.3737 47.0981 12.3777C46.96 12.3921 46.8265 12.4352 46.706 12.504C46.5855 12.5729 46.4806 12.6661 46.3981 12.7777C46.1228 13.1563 45.7618 13.4643 45.3447 13.6767C44.9276 13.8891 44.4662 13.9998 43.9981 13.9997C43.2024 13.9997 42.4394 13.6836 41.8768 13.121C41.3142 12.5584 40.9981 11.7954 40.9981 10.9997C40.9981 10.2041 41.3142 9.44099 41.8768 8.87838C42.4394 8.31577 43.2024 7.9997 43.9981 7.9997ZM5.87108 26.8747C5.86944 22.7993 6.95112 18.7967 9.00532 15.2769C11.0595 11.7571 14.0124 8.84652 17.5615 6.84338C21.1107 4.84023 25.1285 3.81648 29.2034 3.87699C33.2784 3.93749 37.264 5.08007 40.7521 7.1877C40.072 7.76918 39.56 8.52208 39.2692 9.36825C38.9783 10.2144 38.9193 11.123 39.0981 11.9997H32.9831C32.8802 11.924 32.7638 11.8686 32.6401 11.8367C29.33 11.0011 25.8366 11.2826 22.703 12.6375C19.5694 13.9924 16.9714 16.3447 15.3128 19.3287C13.6542 22.3127 13.0281 25.7611 13.5318 29.1376C14.0355 32.5142 15.6408 35.6297 18.0981 37.9997C18.0981 38.0207 18.0851 38.0397 18.0811 38.0607C16.7651 38.2297 15.5253 38.7727 14.5087 39.6253C13.4921 40.4779 12.7416 41.6042 12.3461 42.8707C8.17534 38.593 5.85028 32.8491 5.87108 26.8747V26.8747ZM29.9981 33.9997H32.9981V38.5857L31.7981 37.3857C31.2325 36.8014 30.4995 36.407 29.7003 36.2571C28.901 36.1072 28.0749 36.2091 27.3361 36.5487C26.9307 35.8193 26.3479 35.2039 25.6416 34.7594C24.9353 34.315 24.1283 34.0558 23.2953 34.006C22.4623 33.9562 21.6301 34.1172 20.8759 34.4743C20.1216 34.8313 19.4696 35.3728 18.9801 36.0487C17.1906 34.1251 16.0018 31.7207 15.5598 29.1309C15.1178 26.5411 15.4418 23.8785 16.492 21.4702C17.5422 19.062 19.2728 17.0128 21.4714 15.5745C23.67 14.1362 26.2408 13.3713 28.8681 13.3737C28.9101 13.3737 28.9511 13.3807 28.9931 13.3817V32.9997C28.9931 33.1314 29.0191 33.2619 29.0697 33.3835C29.1202 33.5052 29.1944 33.6157 29.2877 33.7086C29.3811 33.8015 29.492 33.8751 29.6139 33.925C29.7358 33.975 29.8663 34.0004 29.9981 33.9997ZM30.9981 31.9997V27.9997H32.9981V31.9997H30.9981ZM15.9161 50.7877C15.8941 50.9297 15.8661 51.0687 15.8321 51.2067C15.7865 51.3895 15.7304 51.5694 15.6641 51.7457C15.6221 51.8587 15.5791 51.9707 15.5291 52.0787C15.4416 52.2702 15.3414 52.4556 15.2291 52.6337C15.1791 52.7147 15.1291 52.7967 15.0761 52.8747C14.9415 53.0623 14.7942 53.2404 14.6351 53.4077C14.5821 53.4657 14.5351 53.5257 14.4761 53.5797C14.3021 53.7459 14.1163 53.8993 13.9201 54.0387C13.8601 54.0817 13.8051 54.1307 13.7431 54.1707C13.5407 54.3006 13.3291 54.4155 13.1101 54.5147C13.0391 54.5477 12.9731 54.5897 12.9011 54.6147C12.6734 54.704 12.4395 54.7762 12.2011 54.8307C12.1241 54.8507 12.0511 54.8807 11.9721 54.8967C11.2472 55.0517 10.4969 55.0438 9.7755 54.8736C9.05404 54.7033 8.3794 54.375 7.8003 53.9123C7.22119 53.4496 6.75207 52.864 6.42682 52.1979C6.10157 51.5318 5.92831 50.8018 5.91955 50.0606C5.91079 49.3193 6.06675 48.5854 6.37616 47.9118C6.68558 47.2382 7.14072 46.6417 7.70873 46.1655C8.27674 45.6892 8.94343 45.345 9.66066 45.1577C10.3779 44.9705 11.1277 44.9449 11.8561 45.0827C11.9441 45.0987 12.0311 45.1137 12.1191 45.1347C13.2202 45.388 14.2031 46.0069 14.9075 46.8903C15.6119 47.7738 15.9963 48.8698 15.9981 49.9997C15.9922 50.2642 15.9648 50.5277 15.9161 50.7877V50.7877ZM32.9981 49.4917C32.5871 49.5667 32.1731 49.6347 31.7541 49.6917C31.5475 49.6936 31.3451 49.7501 31.1673 49.8555C30.9896 49.9609 30.8429 50.1114 30.7421 50.2917C30.0808 51.0508 29.2045 51.5911 28.2293 51.8411C27.2541 52.0911 26.226 52.039 25.2811 51.6917C25.1424 51.6407 24.9941 51.621 24.8469 51.6341C24.6997 51.6473 24.5572 51.6929 24.4298 51.7677C24.3023 51.8424 24.193 51.9445 24.1097 52.0666C24.0264 52.1887 23.9712 52.3277 23.9481 52.4737C23.8896 52.8882 23.7448 53.2859 23.5229 53.6408C23.301 53.9958 23.007 54.3003 22.66 54.5345C22.3131 54.7687 21.9207 54.9274 21.5085 55.0003C21.0963 55.0733 20.6734 55.0589 20.2671 54.958C19.8608 54.8572 19.4802 54.6721 19.1499 54.4149C18.8197 54.1576 18.5471 53.8339 18.3499 53.4646C18.1527 53.0953 18.0353 52.6888 18.0051 52.2712C17.975 51.8537 18.0329 51.4345 18.1751 51.0407C18.2184 50.9145 18.236 50.7809 18.2269 50.6478C18.2178 50.5147 18.1822 50.3848 18.1221 50.2657C18.0854 50.2064 18.0421 50.1514 17.9931 50.1017C17.9931 50.0687 17.9981 50.0377 17.9981 50.0017C17.9966 48.7095 17.6374 47.4429 16.9604 46.3422C16.2833 45.2416 15.3148 44.3498 14.1621 43.7657C14.4304 42.6873 15.0528 41.7301 15.9296 41.0474C16.8063 40.3646 17.8868 39.9957 18.9981 39.9997C19.2633 39.9997 19.5177 39.8943 19.7052 39.7068C19.8927 39.5193 19.9981 39.2649 19.9981 38.9997C19.9974 38.2989 20.2425 37.62 20.6907 37.0812C21.139 36.5424 21.762 36.1779 22.4512 36.0511C23.1405 35.9244 23.8524 36.0433 24.4631 36.3873C25.0737 36.7313 25.5443 37.2785 25.7931 37.9337C25.3115 38.6643 25.0982 39.5393 25.1893 40.4096C25.2805 41.2799 25.6706 42.0917 26.2931 42.7067L32.9981 49.4137V49.4917ZM52.9981 32.8747V57.9997H34.9981V48.9997C34.998 48.7345 34.8926 48.4802 34.7051 48.2927L27.7051 41.2927C27.5144 41.1018 27.3682 40.8711 27.2771 40.6171C27.1859 40.3632 27.1521 40.0922 27.1779 39.8236C27.2037 39.555 27.2885 39.2954 27.4263 39.0634C27.5641 38.8315 27.7515 38.6328 27.9751 38.4817C28.3531 38.2492 28.7998 38.1543 29.2396 38.2132C29.6795 38.2721 30.0855 38.481 30.3891 38.8047L33.2891 41.7047C33.4287 41.8451 33.6069 41.9408 33.801 41.9799C33.9951 42.0189 34.1964 41.9994 34.3794 41.9239C34.5625 41.8484 34.719 41.7203 34.8291 41.5558C34.9392 41.3912 34.998 41.1977 34.9981 40.9997V25.6187C34.984 25.2706 35.0856 24.9276 35.2869 24.6432C35.4883 24.3588 35.778 24.1491 36.1111 24.0467C36.3336 23.9873 36.5668 23.9799 36.7926 24.0251C37.0184 24.0703 37.2308 24.1669 37.4132 24.3074C37.5957 24.4479 37.7434 24.6286 37.8448 24.8353C37.9462 25.0421 37.9987 25.2694 37.9981 25.4997V31.9997C37.9981 32.2649 38.1034 32.5193 38.291 32.7068C38.4785 32.8943 38.7329 32.9997 38.9981 32.9997C39.2633 32.9997 39.5177 32.8943 39.7052 32.7068C39.8927 32.5193 39.9981 32.2649 39.9981 31.9997V25.4997C39.9981 25.1019 40.1561 24.7203 40.4374 24.439C40.7187 24.1577 41.1003 23.9997 41.4981 23.9997C41.8959 23.9997 42.2774 24.1577 42.5587 24.439C42.8401 24.7203 42.9981 25.1019 42.9981 25.4997V31.9997C42.9981 32.2649 43.1034 32.5193 43.291 32.7068C43.4785 32.8943 43.7329 32.9997 43.9981 32.9997C44.2633 32.9997 44.5177 32.8943 44.7052 32.7068C44.8927 32.5193 44.9981 32.2649 44.9981 31.9997V25.4997C44.9981 25.3027 45.0369 25.1077 45.1123 24.9257C45.1876 24.7437 45.2981 24.5783 45.4374 24.439C45.5767 24.2998 45.7421 24.1893 45.9241 24.1139C46.106 24.0385 46.3011 23.9997 46.4981 23.9997C46.6951 23.9997 46.8901 24.0385 47.0721 24.1139C47.2541 24.1893 47.4195 24.2998 47.5587 24.439C47.698 24.5783 47.8085 24.7437 47.8839 24.9257C47.9593 25.1077 47.9981 25.3027 47.9981 25.4997V31.9997C47.9981 32.2649 48.1034 32.5193 48.291 32.7068C48.4785 32.8943 48.7329 32.9997 48.9981 32.9997C49.2633 32.9997 49.5177 32.8943 49.7052 32.7068C49.8927 32.5193 49.9981 32.2649 49.9981 31.9997V25.4997C49.9975 25.2722 50.0487 25.0476 50.1478 24.8428C50.2469 24.638 50.3913 24.4584 50.57 24.3177C50.7487 24.1769 50.9571 24.0787 51.1794 24.0303C51.4017 23.982 51.6321 23.9849 51.8531 24.0387C51.9143 24.0528 51.9744 24.0712 52.0331 24.0937C52.3275 24.2257 52.5763 24.4419 52.748 24.7151C52.9198 24.9882 53.0068 25.3061 52.9981 25.6287V32.8747ZM56.9981 31.9997H54.9981V27.9997H56.9981V31.9997ZM56.9981 25.9997H54.9981V25.6287C55.0086 24.9002 54.7992 24.1855 54.397 23.5781C53.9949 22.9706 53.4188 22.4985 52.7441 22.2237H52.7391C52.5921 22.1682 52.4414 22.1231 52.2881 22.0887C51.7089 21.9566 51.1058 21.9733 50.5348 22.1374C49.9639 22.3014 49.4438 22.6073 49.0231 23.0267L48.9981 23.0517C48.677 22.7223 48.2938 22.4597 47.8707 22.2792C47.4475 22.0986 46.9929 22.0036 46.5328 21.9997C46.0728 21.9958 45.6166 22.0831 45.1904 22.2564C44.7643 22.4298 44.3767 22.6858 44.0501 23.0097C44.0321 23.0097 44.0171 22.9997 43.9991 22.9997C43.9811 22.9997 43.9661 23.0087 43.9481 23.0097C43.297 22.3624 42.4162 21.9991 41.4981 21.9991C40.58 21.9991 39.6992 22.3624 39.0481 23.0097C39.0311 23.0097 39.0161 22.9997 38.9981 22.9997C38.9801 22.9997 38.9691 23.0077 38.9531 23.0087C38.8612 22.9172 38.7644 22.8307 38.6631 22.7497C38.242 22.4197 37.7514 22.1898 37.2283 22.0776C36.7052 21.9653 36.1635 21.9735 35.6441 22.1017C34.8754 22.3115 34.1984 22.7708 33.7193 23.4075C33.2403 24.0442 32.9866 24.822 32.9981 25.6187V25.9997H30.9981V13.9997H40.0241C40.4358 14.5544 40.9589 15.0169 41.5599 15.3574C42.1609 15.698 42.8264 15.9092 43.5139 15.9773C44.2013 16.0455 44.8953 15.9692 45.5515 15.7533C46.2077 15.5374 46.8114 15.1867 47.3241 14.7237C48.7222 15.6674 50.3988 16.1096 52.0805 15.9781C53.7621 15.8466 55.3496 15.1492 56.5841 13.9997H56.9981V25.9997Z" fill="black"/>
<path d="M12.9961 35H10.9961V37H12.9961V35Z" fill="black"/>
<path d="M10.9961 31H8.99609V33H10.9961V31Z" fill="black"/>
<path d="M10 6C10.2652 6 10.5196 5.89464 10.7071 5.70711C10.8946 5.51957 11 5.26522 11 5V4H12C12.2652 4 12.5196 3.89464 12.7071 3.70711C12.8946 3.51957 13 3.26522 13 3C13 2.73478 12.8946 2.48043 12.7071 2.29289C12.5196 2.10536 12.2652 2 12 2H11V1C11 0.734784 10.8946 0.48043 10.7071 0.292893C10.5196 0.105357 10.2652 0 10 0C9.73478 0 9.48043 0.105357 9.29289 0.292893C9.10536 0.48043 9 0.734784 9 1V2H8C7.73478 2 7.48043 2.10536 7.29289 2.29289C7.10536 2.48043 7 2.73478 7 3C7 3.26522 7.10536 3.51957 7.29289 3.70711C7.48043 3.89464 7.73478 4 8 4H9V5C9 5.26522 9.10536 5.51957 9.29289 5.70711C9.48043 5.89464 9.73478 6 10 6Z" fill="black"/>
<path d="M4 9H5C5.26522 9 5.51957 8.89464 5.70711 8.70711C5.89464 8.51957 6 8.26522 6 8C6 7.73478 5.89464 7.48043 5.70711 7.29289C5.51957 7.10536 5.26522 7 5 7H4V6C4 5.73478 3.89464 5.48043 3.70711 5.29289C3.51957 5.10536 3.26522 5 3 5C2.73478 5 2.48043 5.10536 2.29289 5.29289C2.10536 5.48043 2 5.73478 2 6V7H1C0.734784 7 0.48043 7.10536 0.292893 7.29289C0.105357 7.48043 0 7.73478 0 8C0 8.26522 0.105357 8.51957 0.292893 8.70711C0.48043 8.89464 0.734784 9 1 9H2V10C2 10.2652 2.10536 10.5196 2.29289 10.7071C2.48043 10.8946 2.73478 11 3 11C3.26522 11 3.51957 10.8946 3.70711 10.7071C3.89464 10.5196 4 10.2652 4 10V9Z" fill="black"/>
</svg>
