<svg width="78" height="82" viewBox="0 0 78 82" fill="none" xmlns="http://www.w3.org/2000/svg">
<path d="M70.1619 3.84822H47.4539V2.30322C47.4539 1.21022 46.5679 0.324219 45.4749 0.324219H35.2849C34.1919 0.324219 33.3059 1.21022 33.3059 2.30322V3.84822H10.5979C6.62286 3.84822 3.38886 7.36522 3.38886 11.6882V22.9842C1.65486 27.0282 0.630859 32.1332 0.630859 37.7502V80.1762C0.630859 80.7252 0.930859 81.2312 1.41286 81.4932C1.89686 81.7562 2.48286 81.7332 2.94386 81.4362L6.92986 78.8612L10.9199 81.4362C11.4129 81.7542 12.0439 81.7562 12.5389 81.4412L16.8589 78.6912L21.3279 81.4512C21.5699 81.6002 21.8439 81.6752 22.1159 81.6752C22.4259 81.6752 22.7339 81.5792 22.9959 81.3902L26.6529 78.7432L30.7469 81.4302C31.2359 81.7512 31.8679 81.7592 32.3649 81.4482L36.5629 78.8242L41.2089 81.4782C41.6659 81.7392 42.2259 81.7422 42.6849 81.4852L47.1269 79.0062C47.5939 78.7452 47.8869 78.2552 47.8959 77.7202L48.1459 61.7232H58.8369C66.0229 61.7232 71.7079 51.9682 72.1249 39.2522H72.6649C75.2589 39.2522 77.3689 36.9832 77.3689 34.1942V11.6882C77.3709 7.36522 74.1359 3.84822 70.1619 3.84822ZM41.9639 78.4542L37.2749 75.7752C36.7959 75.5022 36.2049 75.5132 35.7359 75.8052L31.5909 78.3952L27.4359 75.6682C26.9149 75.3262 26.2369 75.3402 25.7329 75.7072L22.0509 78.3722L17.6369 75.6452C17.1489 75.3442 16.5299 75.3482 16.0429 75.6562L11.7399 78.3952L7.74286 75.8162C7.24686 75.4962 6.60986 75.4972 6.11586 75.8162L3.63086 77.4212V37.7502C3.63086 26.3812 8.35486 16.7772 13.9459 16.7772H52.2959C48.2269 20.8282 45.5259 28.6022 45.5209 37.7242V37.7272L44.9109 76.8092L41.9639 78.4542ZM48.2909 52.5422C49.3749 55.0622 50.7339 57.1672 52.2969 58.7232H48.1949L48.2909 52.5422ZM58.8379 58.7232C53.2459 58.7232 48.5219 49.1192 48.5219 37.7502C48.5219 26.3812 53.2469 16.7772 58.8379 16.7772C64.1809 16.7772 68.7209 25.5522 69.1149 36.2522L64.4329 36.2512C64.0479 31.0202 61.6929 26.9902 58.8359 26.9902C55.7109 26.9902 53.1779 31.8082 53.1779 37.7522C53.1779 43.6962 55.7109 48.5142 58.8359 48.5142C61.6929 48.5142 64.0489 44.4832 64.4329 39.2512L69.1149 39.2522C68.7209 49.9492 64.1809 58.7232 58.8379 58.7232ZM74.3709 34.1942C74.3709 35.3292 73.6059 36.2522 72.6669 36.2522H72.1269C71.7109 23.5342 66.0249 13.7772 58.8389 13.7772H13.9469C11.1189 13.7772 8.52286 15.2902 6.38886 17.8982V11.6882C6.38886 9.02022 8.27686 6.84822 10.5979 6.84822H33.3049V8.39322C33.3049 9.48622 34.1909 10.3722 35.2839 10.3722H45.4739C46.5669 10.3722 47.4529 9.48622 47.4529 8.39322V6.84822H70.1599C72.4809 6.84822 74.3689 9.01922 74.3689 11.6882V34.1942H74.3709Z" fill="black"/>
</svg>
