<svg width="66" height="71" viewBox="0 0 66 71" fill="none" xmlns="http://www.w3.org/2000/svg">
<path d="M5.0419 57.4033C5.69502 56.9186 6.39268 56.5221 7.13487 56.199C6.86768 56.3091 6.60049 56.4193 6.34073 56.5294C7.14229 56.199 7.97354 55.9713 8.83448 55.8465C8.5376 55.8832 8.24073 55.9272 7.94385 55.964C8.83448 55.8465 9.73252 55.8465 10.6231 55.964C10.3263 55.9272 10.0294 55.8832 9.73252 55.8465C10.5935 55.9713 11.4247 56.1916 12.2263 56.5294C11.9591 56.4193 11.6919 56.3091 11.4321 56.199C11.9814 56.434 12.5083 56.7057 13.0056 57.0288C13.4806 57.3372 13.9185 57.6897 14.4009 57.9761C15.6181 58.7032 17.0208 59.2613 18.4235 59.5257C19.2399 59.6799 20.086 59.7974 20.9247 59.8121C21.7708 59.8341 22.5946 59.724 23.4333 59.5991C24.836 59.3935 26.1942 58.8868 27.4411 58.2258C28.0126 57.9247 28.5173 57.5502 29.0442 57.183C29.6083 56.7865 30.2169 56.456 30.8552 56.1843C30.588 56.2944 30.3208 56.4046 30.061 56.5147C30.8626 56.1843 31.6938 55.9566 32.5548 55.8318C32.2579 55.8685 31.961 55.9126 31.6642 55.9493C32.5548 55.8318 33.4528 55.8318 34.3435 55.9493C34.0466 55.9126 33.7497 55.8685 33.4528 55.8318C34.3138 55.9566 35.145 56.1769 35.9466 56.5147C35.6794 56.4046 35.4122 56.2944 35.1524 56.1843C35.7017 56.4193 36.2286 56.691 36.7259 57.0141C37.2009 57.3226 37.6388 57.6751 38.1212 57.9615C39.3384 58.6885 40.7411 59.2466 42.1439 59.511C42.9603 59.6652 43.8064 59.7827 44.645 59.7974C45.4911 59.8194 46.3149 59.7093 47.1536 59.5844C48.5564 59.3788 49.9146 58.8721 51.1614 58.2111C51.7329 57.9101 52.2376 57.5355 52.7646 57.1683C53.3286 56.7718 53.9372 56.4413 54.5755 56.1696C54.3083 56.2797 54.0411 56.3899 53.7814 56.5001C54.5829 56.1696 55.4142 55.9419 56.2751 55.8171C55.9782 55.8538 55.6813 55.8979 55.3845 55.9346C56.2751 55.8171 57.1731 55.8171 58.0638 55.9346C57.7669 55.8979 57.47 55.8538 57.1731 55.8171C58.0341 55.9419 58.8653 56.1622 59.6669 56.5001C59.3997 56.3899 59.1325 56.2797 58.8728 56.1696C59.6224 56.4854 60.32 56.8893 60.9657 57.374C61.6114 57.8513 62.7989 57.9101 63.5411 57.7044C64.313 57.4915 65.1591 56.904 65.5376 56.1843C65.9458 55.4205 66.1536 54.4879 65.8716 53.636C65.7603 53.3716 65.6489 53.1072 65.5376 52.8502C65.2407 52.3508 64.8399 51.9616 64.3427 51.6679C62.2942 50.1477 59.7189 49.3693 57.1731 49.2518C54.6794 49.1416 52.0595 49.8246 49.9294 51.1097C49.4618 51.3888 49.0388 51.734 48.586 52.0277C48.0888 52.3508 47.5618 52.6299 47.0126 52.8576C47.2798 52.7474 47.547 52.6372 47.8067 52.5271C47.0052 52.8576 46.1739 53.0852 45.313 53.2101C45.6099 53.1733 45.9067 53.1293 46.2036 53.0926C45.313 53.2101 44.4149 53.2101 43.5243 53.0926C43.8212 53.1293 44.1181 53.1733 44.4149 53.2101C43.554 53.0852 42.7228 52.8649 41.9212 52.5271C42.1884 52.6372 42.4556 52.7474 42.7153 52.8576C42.1661 52.6226 41.6392 52.3508 41.1419 52.0277C40.6669 51.7193 40.229 51.3668 39.7466 51.0804C38.5294 50.3533 37.1267 49.7952 35.7239 49.5308C34.9075 49.3766 34.0614 49.2591 33.2228 49.2444C32.3767 49.2224 31.5528 49.3326 30.7142 49.4574C29.3114 49.663 27.9532 50.1697 26.7064 50.8307C26.1349 51.1318 25.6302 51.5063 25.1032 51.8735C24.5392 52.2701 23.9306 52.6005 23.2923 52.8722C23.5595 52.7621 23.8267 52.6519 24.0864 52.5418C23.2849 52.8722 22.4536 53.0999 21.5927 53.2247C21.8896 53.188 22.1864 53.144 22.4833 53.1072C21.5927 53.2247 20.6946 53.2247 19.804 53.1072C20.1009 53.144 20.3978 53.188 20.6946 53.2247C19.8337 53.0999 19.0024 52.8796 18.2009 52.5418C18.4681 52.6519 18.7353 52.7621 18.995 52.8722C18.0524 52.4683 17.2657 51.8955 16.4196 51.3374C15.3657 50.6397 14.1485 50.111 12.9388 49.7585C10.5489 49.0608 7.84737 49.0682 5.46494 49.8099C4.12159 50.2285 2.80049 50.838 1.66494 51.6752C0.945023 52.2113 0.38096 52.7547 0.128616 53.6507C-0.0940401 54.4438 0.00986619 55.494 0.462601 56.199C0.922757 56.904 1.60557 57.5282 2.45909 57.7191C3.28291 57.9247 4.33682 57.9247 5.0419 57.4033Z" fill="black"/>
<path d="M33.6459 12.32C33.631 10.0949 33.0002 7.79629 31.7459 5.93832C30.551 4.16113 28.9033 2.59691 26.9291 1.70097C24.9326 0.797693 22.7506 0.290974 20.5463 0.555349C18.5795 0.790349 16.6572 1.35582 15.017 2.50144C13.4064 3.63238 12.0037 5.04973 11.0982 6.80488C10.215 8.52332 9.71775 10.3813 9.71033 12.32C9.70291 13.6566 9.71033 14.9858 9.71033 16.3224C9.71033 18.8707 9.71033 21.4263 9.71033 23.9746C9.71033 27.786 9.71033 31.5974 9.71033 35.4088C9.71033 38.0158 9.71033 40.6229 9.71033 43.2299C9.71033 43.3915 9.71033 43.553 9.71033 43.7146C9.71033 44.5591 10.0814 45.455 10.69 46.0499C11.2689 46.6227 12.2189 47.056 13.0502 47.0193C13.9111 46.9825 14.8092 46.7035 15.4103 46.0499C16.0115 45.4036 16.39 44.6105 16.39 43.7146C16.39 41.6069 16.39 39.4919 16.39 37.3843C16.39 35.5336 16.39 33.683 16.39 31.8324C16.39 29.1152 16.39 26.4054 16.39 23.6882C16.39 22.2561 16.39 20.8241 16.39 19.3847C16.39 17.0347 16.3826 14.6847 16.39 12.3347C16.39 11.9529 16.4197 11.5783 16.4642 11.1964C16.4271 11.4902 16.3826 11.7839 16.3455 12.0777C16.4494 11.3213 16.6572 10.5869 16.9541 9.88926C16.8428 10.1536 16.7314 10.418 16.6201 10.675C16.9096 10.0214 17.2658 9.40457 17.7037 8.83176C17.533 9.05207 17.3549 9.27973 17.1842 9.50004C17.6443 8.91254 18.1713 8.38379 18.7576 7.92848C18.5349 8.09738 18.3049 8.27363 18.0822 8.44254C18.6834 7.98723 19.3291 7.60535 20.0193 7.3116C19.7521 7.42176 19.4849 7.53191 19.2252 7.64207C19.9377 7.34832 20.6799 7.15004 21.4443 7.03988C21.1474 7.0766 20.8506 7.12066 20.5537 7.15738C21.333 7.06191 22.1123 7.06191 22.8916 7.16473C22.5947 7.12801 22.2978 7.08394 22.001 7.04723C22.7431 7.15738 23.4557 7.35566 24.1459 7.63473C23.8787 7.52457 23.6115 7.41441 23.3517 7.30426C24.0271 7.59066 24.6506 7.95785 25.2369 8.39113C25.0142 8.22223 24.7842 8.04598 24.5615 7.87707C25.1627 8.33973 25.7045 8.87582 26.1721 9.47066C26.0014 9.25035 25.8232 9.02269 25.6525 8.80238C26.0904 9.38254 26.4615 9.99941 26.751 10.6677C26.6396 10.4033 26.5283 10.1389 26.417 9.88191C26.7064 10.5649 26.8994 11.2699 27.0107 12.0043C26.9736 11.7105 26.9291 11.4168 26.892 11.123C26.9439 11.5196 26.9736 11.9161 26.9736 12.3127C26.981 13.1646 27.3447 14.0458 27.9533 14.648C28.5322 15.2208 29.4822 15.6541 30.3135 15.6174C31.1744 15.5807 32.0725 15.3016 32.6736 14.648C33.26 14.0091 33.6459 13.2086 33.6459 12.32Z" fill="black"/>
<path d="M61.9701 12.32C61.9552 10.0949 61.3244 7.79629 60.0701 5.93832C58.8752 4.16113 57.2275 2.59691 55.2533 1.70097C53.2568 0.797693 51.0748 0.290974 48.8705 0.555349C46.9037 0.790349 44.9814 1.35582 43.3412 2.50144C41.7306 3.63238 40.3205 5.04973 39.4224 6.80488C38.5392 8.52332 38.042 10.3813 38.0345 12.32C38.0271 13.6493 38.0345 14.9785 38.0345 16.3077C38.0345 18.856 38.0345 21.4043 38.0345 23.9452C38.0345 27.7566 38.0345 31.568 38.0345 35.3794C38.0345 37.9938 38.0345 40.6082 38.0345 43.2299C38.0345 43.3915 38.0345 43.553 38.0345 43.7146C38.0345 44.5591 38.4056 45.455 39.0142 46.0499C39.5931 46.6227 40.5431 47.056 41.3744 47.0193C42.2353 46.9825 43.1334 46.7035 43.7345 46.0499C44.3357 45.4036 44.7142 44.6105 44.7142 43.7146C44.7142 41.5922 44.7142 39.4772 44.7142 37.3549C44.7142 35.5043 44.7142 33.6536 44.7142 31.803C44.7142 29.0858 44.7142 26.376 44.7142 23.6588C44.7142 22.2268 44.7142 20.7947 44.7142 19.3627C44.7142 17.02 44.7068 14.67 44.7142 12.3274C44.7142 11.9455 44.7439 11.571 44.7884 11.1891C44.7513 11.4829 44.7068 11.7766 44.6697 12.0704C44.7736 11.3139 44.9814 10.5796 45.2783 9.88191C45.167 10.1463 45.0556 10.4107 44.9443 10.6677C45.2338 10.0141 45.59 9.39723 46.0279 8.82441C45.8572 9.04473 45.6791 9.27238 45.5084 9.49269C45.9685 8.90519 46.4955 8.37644 47.0818 7.92113C46.8592 8.09004 46.6291 8.26629 46.4064 8.43519C47.0076 7.97988 47.6533 7.59801 48.3435 7.30426C48.0763 7.41441 47.8092 7.52457 47.5494 7.63473C48.2619 7.34098 49.0041 7.14269 49.7685 7.03254C49.4717 7.06926 49.1748 7.11332 48.8779 7.15004C49.6572 7.05457 50.4365 7.05457 51.2158 7.15738C50.9189 7.12066 50.622 7.0766 50.3252 7.03988C51.0674 7.15004 51.7798 7.34832 52.4701 7.62738C52.2029 7.51723 51.9357 7.40707 51.6759 7.29691C52.3513 7.58332 52.9748 7.95051 53.5611 8.38379C53.3384 8.21488 53.1084 8.03863 52.8857 7.86973C53.4869 8.33238 54.0287 8.86848 54.4963 9.46332C54.3255 9.24301 54.1474 9.01535 53.9767 8.79504C54.4146 9.37519 54.7857 9.99207 55.0752 10.6604C54.9638 10.396 54.8525 10.1316 54.7412 9.87457C55.0306 10.5575 55.2236 11.2625 55.3349 11.9969C55.2978 11.7032 55.2533 11.4094 55.2162 11.1157C55.2681 11.5122 55.2978 11.9088 55.2978 12.3054C55.3052 13.1572 55.6689 14.0385 56.2775 14.6407C56.8564 15.2135 57.8064 15.6468 58.6377 15.61C59.4986 15.5733 60.3966 15.2943 60.9978 14.6407C61.5916 14.0091 61.9775 13.2086 61.9701 12.32Z" fill="black"/>
<path d="M38.0402 22.6891C38.0402 24.3415 38.0402 25.9865 38.0402 27.6388C38.0402 30.2679 38.0402 32.897 38.0402 35.5334C38.0402 36.1356 38.0402 36.7451 38.0402 37.3473C39.1535 36.2457 40.2668 35.1441 41.3801 34.0426C40.4375 34.0426 39.4949 34.0426 38.5598 34.0426C36.3109 34.0426 34.0621 34.0426 31.8133 34.0426C29.082 34.0426 26.3508 34.0426 23.6195 34.0426C21.2668 34.0426 18.9141 34.0426 16.5613 34.0426C15.4109 34.0426 14.2531 34.0206 13.1027 34.0426C13.0879 34.0426 13.073 34.0426 13.0508 34.0426C14.1641 35.1441 15.2773 36.2457 16.3906 37.3473C16.3906 35.6949 16.3906 34.0499 16.3906 32.3976C16.3906 29.7685 16.3906 27.1395 16.3906 24.5031C16.3906 23.9009 16.3906 23.2913 16.3906 22.6891C15.2773 23.7907 14.1641 24.8923 13.0508 25.9938C13.9934 25.9938 14.9359 25.9938 15.8711 25.9938C18.1199 25.9938 20.3687 25.9938 22.6176 25.9938C25.3488 25.9938 28.0801 25.9938 30.8113 25.9938C33.1641 25.9938 35.5168 25.9938 37.8695 25.9938C39.0199 25.9938 40.1777 26.0085 41.3281 25.9938C41.343 25.9938 41.3578 25.9938 41.3801 25.9938C42.2336 25.9938 43.1391 25.6266 43.7402 25.0245C44.3191 24.4516 44.757 23.5116 44.7199 22.6891C44.6828 21.8373 44.4008 20.9487 43.7402 20.3538C43.0871 19.759 42.2855 19.3845 41.3801 19.3845C40.4375 19.3845 39.4949 19.3845 38.5598 19.3845C36.3109 19.3845 34.0621 19.3845 31.8133 19.3845C29.082 19.3845 26.3508 19.3845 23.6195 19.3845C21.2668 19.3845 18.9141 19.3845 16.5613 19.3845C15.4109 19.3845 14.2531 19.3698 13.1027 19.3845C13.0879 19.3845 13.073 19.3845 13.0508 19.3845C11.2473 19.3845 9.71094 20.8973 9.71094 22.6891C9.71094 24.3415 9.71094 25.9865 9.71094 27.6388C9.71094 30.2679 9.71094 32.897 9.71094 35.5334C9.71094 36.1356 9.71094 36.7451 9.71094 37.3473C9.71094 39.1318 11.2398 40.652 13.0508 40.652C13.9934 40.652 14.9359 40.652 15.8711 40.652C18.1199 40.652 20.3687 40.652 22.6176 40.652C25.3488 40.652 28.0801 40.652 30.8113 40.652C33.1641 40.652 35.5168 40.652 37.8695 40.652C39.0199 40.652 40.1777 40.6667 41.3281 40.652C41.343 40.652 41.3578 40.652 41.3801 40.652C43.1836 40.652 44.7199 39.1391 44.7199 37.3473C44.7199 35.6949 44.7199 34.0499 44.7199 32.3976C44.7199 29.7685 44.7199 27.1395 44.7199 24.5031C44.7199 23.9009 44.7199 23.2913 44.7199 22.6891C44.7199 21.8446 44.3488 20.9487 43.7402 20.3538C43.1613 19.781 42.2113 19.3477 41.3801 19.3845C40.5191 19.4212 39.6211 19.7002 39.0199 20.3538C38.4187 21.0001 38.0402 21.7932 38.0402 22.6891Z" fill="black"/>
<path d="M5.0419 68.3018C5.69502 67.8171 6.39268 67.4205 7.13487 67.0974C6.86768 67.2076 6.60049 67.3177 6.34073 67.4279C7.14229 67.0974 7.97354 66.8697 8.83448 66.7449C8.5376 66.7816 8.24073 66.8257 7.94385 66.8624C8.83448 66.7449 9.73252 66.7449 10.6231 66.8624C10.3263 66.8257 10.0294 66.7816 9.73252 66.7449C10.5935 66.8697 11.4247 67.0901 12.2263 67.4279C11.9591 67.3177 11.6919 67.2076 11.4321 67.0974C11.9814 67.3324 12.5083 67.6041 13.0056 67.9272C13.4806 68.2357 13.9185 68.5882 14.4009 68.8746C15.6181 69.6016 17.0208 70.1597 18.4235 70.4241C19.2399 70.5783 20.086 70.6958 20.9247 70.7105C21.7708 70.7325 22.5946 70.6224 23.4333 70.4976C24.836 70.2919 26.1942 69.7852 27.4411 69.1243C28.0126 68.8232 28.5173 68.4486 29.0442 68.0815C29.6083 67.6849 30.2169 67.3544 30.8552 67.0827C30.588 67.1929 30.3208 67.303 30.061 67.4132C30.8626 67.0827 31.6938 66.8551 32.5548 66.7302C32.2579 66.7669 31.961 66.811 31.6642 66.8477C32.5548 66.7302 33.4528 66.7302 34.3435 66.8477C34.0466 66.811 33.7497 66.7669 33.4528 66.7302C34.3138 66.8551 35.145 67.0754 35.9466 67.4132C35.6794 67.303 35.4122 67.1929 35.1524 67.0827C35.7017 67.3177 36.2286 67.5894 36.7259 67.9126C37.2009 68.221 37.6388 68.5735 38.1212 68.8599C39.3384 69.5869 40.7411 70.1451 42.1439 70.4094C42.9603 70.5636 43.8064 70.6811 44.645 70.6958C45.4911 70.7179 46.3149 70.6077 47.1536 70.4829C48.5564 70.2772 49.9146 69.7705 51.1614 69.1096C51.7329 68.8085 52.2376 68.434 52.7646 68.0668C53.3286 67.6702 53.9372 67.3397 54.5755 67.068C54.3083 67.1782 54.0411 67.2883 53.7814 67.3985C54.5829 67.068 55.4142 66.8404 56.2751 66.7155C55.9782 66.7522 55.6813 66.7963 55.3845 66.833C56.2751 66.7155 57.1731 66.7155 58.0638 66.833C57.7669 66.7963 57.47 66.7522 57.1731 66.7155C58.0341 66.8404 58.8653 67.0607 59.6669 67.3985C59.3997 67.2883 59.1325 67.1782 58.8728 67.068C59.6224 67.3838 60.32 67.7877 60.9657 68.2724C61.6114 68.7497 62.7989 68.8085 63.5411 68.6029C64.313 68.3899 65.1591 67.8024 65.5376 67.0827C65.9458 66.319 66.1536 65.3863 65.8716 64.5344C65.7603 64.2701 65.6489 64.0057 65.5376 63.7486C65.2407 63.2493 64.8399 62.8601 64.3427 62.5663C62.2942 61.0462 59.7189 60.2677 57.1731 60.1502C54.6794 60.0401 52.0595 60.723 49.9294 62.0082C49.4618 62.2872 49.0388 62.6324 48.586 62.9261C48.0888 63.2493 47.5618 63.5283 47.0126 63.756C47.2798 63.6458 47.547 63.5357 47.8067 63.4255C47.0052 63.756 46.1739 63.9836 45.313 64.1085C45.6099 64.0718 45.9067 64.0277 46.2036 63.991C45.313 64.1085 44.4149 64.1085 43.5243 63.991C43.8212 64.0277 44.1181 64.0718 44.4149 64.1085C43.554 63.9836 42.7228 63.7633 41.9212 63.4255C42.1884 63.5357 42.4556 63.6458 42.7153 63.756C42.1661 63.521 41.6392 63.2493 41.1419 62.9261C40.6669 62.6177 40.229 62.2652 39.7466 61.9788C38.5294 61.2518 37.1267 60.6936 35.7239 60.4293C34.9075 60.2751 34.0614 60.1576 33.2228 60.1429C32.3767 60.1208 31.5528 60.231 30.7142 60.3558C29.3114 60.5615 27.9532 61.0682 26.7064 61.7291C26.1349 62.0302 25.6302 62.4047 25.1032 62.7719C24.5392 63.1685 23.9306 63.499 23.2923 63.7707C23.5595 63.6605 23.8267 63.5504 24.0864 63.4402C23.2849 63.7707 22.4536 63.9983 21.5927 64.1232C21.8896 64.0865 22.1864 64.0424 22.4833 64.0057C21.5927 64.1232 20.6946 64.1232 19.804 64.0057C20.1009 64.0424 20.3978 64.0865 20.6946 64.1232C19.8337 63.9983 19.0024 63.778 18.2009 63.4402C18.4681 63.5504 18.7353 63.6605 18.995 63.7707C18.0524 63.3668 17.2657 62.794 16.4196 62.2358C15.3657 61.5382 14.1485 61.0094 12.9388 60.6569C10.5489 59.9593 7.84737 59.9666 5.46494 60.7083C4.12159 61.1269 2.80049 61.7365 1.66494 62.5736C0.945023 63.1097 0.38096 63.6532 0.128616 64.5491C-0.0940401 65.3422 0.00986619 66.3924 0.462601 67.0974C0.922757 67.8024 1.60557 68.4266 2.45909 68.6176C3.28291 68.8158 4.33682 68.8232 5.0419 68.3018Z" fill="black"/>
</svg>
