<svg width="77" height="73" viewBox="0 0 77 73" fill="none" xmlns="http://www.w3.org/2000/svg">
<path d="M51.8653 72.5089L37.6426 57.8555L51.8653 43.1934V49.4907H63.8138L69.4736 59.1563L67.2424 63.0156C66.1053 64.9884 63.9775 66.2203 61.686 66.2203H51.8653V72.5089V72.5089ZM41.2435 57.8555L49.2809 66.1341V63.6273H61.686C63.0557 63.6273 64.3221 62.895 65.0026 61.7148L66.4757 59.1563L62.3321 52.075H49.2809V49.5682L41.2435 57.8555Z" fill="black"/>
<path d="M67.983 61.7328L61.97 51.4384L54.6045 38.8438C54.1479 38.0684 54.4064 37.0605 55.1817 36.5867L55.1903 36.5781L66.7683 29.7984C67.156 29.5744 67.604 29.5055 68.0347 29.6261C68.4482 29.7381 68.8014 30.0052 69.0254 30.3756L69.034 30.3842L75.7276 41.8244C76.8905 43.8058 76.8991 46.2782 75.7448 48.2682L73.9271 51.4211L67.983 61.7328ZM57.3009 38.3441L64.1926 50.1375L67.9658 56.5899L71.6873 50.1462L73.505 46.9932C74.1942 45.8044 74.1855 44.3313 73.4964 43.1511L67.2766 32.512L57.3009 38.3441Z" fill="black"/>
<path d="M57.5758 28.2129L37.7708 23.225L43.2238 20.0721L37.2539 9.72592L42.7931 0H47.2469C49.5384 0 51.6662 1.23189 52.8033 3.20464L57.7137 11.7073L63.1667 8.56294L57.5758 28.2129ZM44.585 22.2774L55.7754 25.0944L58.9369 13.9815L56.7661 15.2393L50.5635 4.49684C49.883 3.31663 48.6166 2.58439 47.2469 2.58439H44.2921L40.2346 9.70869L46.7645 21.0111L44.585 22.2774Z" fill="black"/>
<path d="M31.2064 23.8625C30.9307 23.8625 30.655 23.7936 30.4138 23.6558L30.3966 23.6472L18.7324 17.0053C18.3533 16.7899 18.0691 16.4281 17.9485 16.006C17.8279 15.5839 17.8795 15.1445 18.0949 14.7655L18.1035 14.7483L24.6679 3.2391C25.805 1.24051 27.9414 0 30.2329 0H45.7565L39.8641 10.3548L32.645 23.0269C32.4297 23.406 32.0678 23.6902 31.6457 23.8022C31.5079 23.8453 31.3528 23.8625 31.2064 23.8625ZM20.8085 15.2221L30.8618 20.9422L37.6243 9.07982L41.3113 2.593H30.2329C28.8632 2.593 27.5882 3.33386 26.9077 4.52268L20.8085 15.2221Z" fill="black"/>
<path d="M15.1492 52.1189H3.96741L1.76207 48.3112C0.61632 46.3385 0.607706 43.8747 1.75345 41.8847L6.65518 33.382L1.20212 30.2291L21.0072 25.2412L26.598 44.8826L21.145 41.7382L15.1492 52.1189ZM5.44913 49.5345H13.6503L20.1801 38.2235L22.3596 39.4726L19.1981 28.3597L8.00767 31.1767L10.1872 32.4344L3.99326 43.1683C3.3127 44.3571 3.3127 45.8302 4.00187 47.0104L5.44913 49.5345Z" fill="black"/>
<path d="M15.7862 66.2552C13.5119 66.2552 11.3927 65.0319 10.2556 63.0506L2.47656 49.5342H29.0269C29.9314 49.5342 30.6722 50.275 30.6722 51.1796V64.6098C30.6722 65.5143 29.9314 66.2552 29.0269 66.2552H15.812C15.8034 66.2552 15.7948 66.2552 15.7862 66.2552ZM6.93894 52.1186L12.4954 61.7584C13.1673 62.9386 14.4337 63.6708 15.7862 63.6708C15.7948 63.6708 15.7948 63.6708 15.8034 63.6708H28.0879V52.1186H6.93894Z" fill="black"/>
<path d="M37.1599 45.4587C34.2912 45.4587 31.9911 44.7179 30.3112 43.262C27.7958 41.0653 27.3047 37.8692 27.1497 35.6466C26.9774 32.9503 26.7448 31.4944 26.7448 31.4772L26.4863 29.8662L28.1145 29.9868C28.6055 30.0213 29.0707 30.0816 29.4756 30.1419L29.5531 30.1505C29.6134 30.1591 29.6737 30.1677 29.734 30.1763C29.7427 30.1763 29.7513 30.1763 29.7685 30.185L29.8374 30.1936C30.1303 30.2453 30.4318 30.3056 30.7247 30.3659C33.5159 30.9947 35.704 32.2697 37.2374 34.1563C38.4176 35.6122 39.1843 37.3954 39.5203 39.4543C39.5289 39.5146 39.5375 39.5749 39.5461 39.6352C39.5461 39.6611 39.5547 39.6955 39.5547 39.7214L39.5633 39.7817C39.8907 42.211 39.6581 44.1924 39.6495 44.2785L39.5203 45.3381L38.452 45.4157C38.0127 45.4415 37.582 45.4587 37.1599 45.4587ZM29.5014 32.7607C29.5704 33.4585 29.6565 34.3717 29.7254 35.483C29.846 37.2404 30.2078 39.7558 31.9997 41.3237C33.1885 42.3575 34.92 42.883 37.1426 42.883C37.1599 42.1852 37.1426 41.2203 36.9962 40.1607C36.9876 40.109 36.9789 40.0487 36.9703 39.9971C36.9703 39.9712 36.9617 39.9367 36.9617 39.9109L36.9531 39.8851C36.3501 36.1291 34.0586 33.7773 30.1389 32.8986C29.9494 32.8383 29.734 32.7952 29.5014 32.7607Z" fill="black"/>
<path d="M40.9155 45.6144C40.0541 45.6144 39.1495 45.5541 38.2019 45.4335L37.1251 45.2957L37.0734 44.2102C37.0734 44.1413 36.9959 42.5476 37.2974 40.3767C37.4094 39.567 37.5903 38.74 37.8401 37.9302C39.0031 34.157 41.553 31.4348 45.2056 30.065H45.2142L45.2487 30.0478L45.3176 30.022C45.7052 29.8841 46.0757 29.7635 46.4547 29.6602H46.4633C47.1353 29.4793 47.8331 29.3328 48.5481 29.2208H48.5567C49.0563 29.1519 49.5129 29.1002 49.9609 29.0658H49.9781C50.1159 29.0571 50.2538 29.0485 50.4002 29.0399C50.8913 28.9968 51.4598 28.9796 52.1231 28.9968L53.6393 29.0227L53.3809 30.513C53.3809 30.5302 53.0535 32.3996 52.4591 35.4233C52.1404 37.0515 51.5374 40.0752 49.4095 42.3839C47.4368 44.529 44.594 45.6144 40.9155 45.6144ZM39.6578 42.9783C48.2035 43.5814 49.3148 37.9905 49.9178 34.9237C50.1849 33.5626 50.3916 32.4427 50.5467 31.6243C50.4088 31.6329 50.2796 31.6415 50.1504 31.6501C49.7627 31.676 49.3665 31.7277 48.9271 31.788C48.3155 31.8827 47.7211 32.0033 47.1439 32.1584C46.8424 32.2445 46.5409 32.3393 46.2307 32.4513L46.2049 32.4599L46.136 32.4858C43.207 33.5798 41.2429 35.6732 40.3039 38.7141C40.0971 39.3774 39.9421 40.0838 39.8473 40.7472C39.7353 41.6258 39.6836 42.4012 39.6578 42.9783Z" fill="black"/>
</svg>
