<svg width="72" height="84" viewBox="0 0 72 84" fill="none" xmlns="http://www.w3.org/2000/svg">
<path d="M48.16 22.2402C48.2393 22.0536 48.2801 21.853 48.2801 21.6502C48.2801 21.4475 48.2393 21.2469 48.16 21.0602C46.5751 17.3282 43.6093 14.3528 39.8824 12.7558C36.1554 11.1588 31.9555 11.0637 28.16 12.4902H28.06C27.5294 9.02158 25.7064 5.88198 22.957 3.70156C20.2076 1.52114 16.7353 0.461271 13.237 0.734659C9.73861 1.00805 6.4731 2.59447 4.09582 5.17552C1.71855 7.75657 0.405442 11.1412 0.420042 14.6502V81.6502C0.420042 82.0481 0.578077 82.4296 0.859382 82.7109C1.14069 82.9922 1.52222 83.1502 1.92004 83.1502C2.31787 83.1502 2.6994 82.9922 2.9807 82.7109C3.26201 82.4296 3.42004 82.0481 3.42004 81.6502V14.6502C3.55817 11.9117 4.72246 9.32554 6.68115 7.4066C8.63985 5.48766 11.2493 4.37665 13.9901 4.2947C16.731 4.21275 19.4021 5.16588 21.472 6.96437C23.5418 8.76287 24.8585 11.2748 25.16 14.0002C22.213 15.8791 19.9766 18.6871 18.8048 21.9798C17.6329 25.2725 17.5926 28.862 18.69 32.1802C18.7539 32.3732 18.8559 32.5514 18.9899 32.7043C19.1238 32.8571 19.2871 32.9816 19.47 33.0702C19.6724 33.1694 19.8947 33.2207 20.12 33.2202C20.3011 33.217 20.4803 33.1831 20.65 33.1202L47.31 23.1202C47.5056 23.0415 47.6824 22.9225 47.8288 22.7708C47.9753 22.6192 48.0882 22.4384 48.16 22.2402V22.2402Z" fill="black"/>
<path d="M40.2614 36.9001L39.2614 34.0601C39.1288 33.6835 38.852 33.375 38.4919 33.2025C38.1319 33.03 37.718 33.0075 37.3414 33.1401C36.9648 33.2728 36.6563 33.5495 36.4838 33.9096C36.3112 34.2697 36.2888 34.6835 36.4214 35.0601L37.4214 37.9001C37.5233 38.1927 37.7138 38.4463 37.9666 38.6255C38.2193 38.8047 38.5216 38.9007 38.8314 38.9001C38.9979 38.8988 39.1631 38.8718 39.3214 38.8201C39.5101 38.7571 39.6844 38.6572 39.8341 38.5262C39.9838 38.3951 40.1059 38.2357 40.1934 38.057C40.2809 37.8783 40.332 37.684 40.3436 37.4854C40.3553 37.2868 40.3273 37.0878 40.2614 36.9001V36.9001Z" fill="black"/>
<path d="M50.2889 66.0805L48.6189 61.2205C48.5532 61.0347 48.4516 60.8636 48.3198 60.717C48.188 60.5705 48.0287 60.4513 47.8509 60.3664C47.673 60.2814 47.4802 60.2323 47.2834 60.2218C47.0866 60.2114 46.8897 60.2398 46.7039 60.3055C46.518 60.3711 46.347 60.4727 46.2004 60.6045C46.0539 60.7363 45.9347 60.8956 45.8498 61.0735C45.7648 61.2513 45.7157 61.4441 45.7052 61.6409C45.6948 61.8377 45.7232 62.0347 45.7889 62.2205L47.4589 67.0805C47.5613 67.3747 47.7534 67.6294 48.0081 67.8088C48.2628 67.9881 48.5673 68.0832 48.8789 68.0805C49.0424 68.0833 49.2051 68.0562 49.3589 68.0005C49.5467 67.9364 49.7199 67.8358 49.8685 67.7043C50.0172 67.5728 50.1382 67.4132 50.2247 67.2346C50.3112 67.0561 50.3614 66.8621 50.3724 66.664C50.3835 66.4659 50.355 66.2675 50.2889 66.0805V66.0805Z" fill="black"/>
<path d="M43.6111 46.6301L41.9411 41.7701C41.8085 41.3935 41.5317 41.085 41.1716 40.9125C40.8116 40.7399 40.3977 40.7175 40.0211 40.8501C39.6445 40.9827 39.336 41.2595 39.1634 41.6196C38.9909 41.9796 38.9685 42.3935 39.1011 42.7701L40.7711 47.6301C40.8748 47.9235 41.0672 48.1774 41.3216 48.3565C41.5761 48.5357 41.8799 48.6313 42.1911 48.6301C42.3574 48.6271 42.5224 48.6002 42.6811 48.5501C43.0588 48.4185 43.3688 48.1424 43.5432 47.7825C43.7175 47.4225 43.742 47.0081 43.6111 46.6301V46.6301Z" fill="black"/>
<path d="M47.0017 56.3598L45.3317 51.4898C45.1991 51.1132 44.9223 50.8047 44.5622 50.6322C44.2022 50.4597 43.7883 50.4372 43.4117 50.5698C43.0351 50.7024 42.7266 50.9792 42.5541 51.3393C42.3815 51.6994 42.3591 52.1132 42.4917 52.4898L44.1617 57.3498C44.2667 57.6424 44.4594 57.8954 44.7135 58.0744C44.9677 58.2534 45.2709 58.3496 45.5817 58.3498C45.7485 58.3526 45.9144 58.3255 46.0717 58.2698C46.2584 58.2057 46.4305 58.1054 46.5783 57.9747C46.7261 57.8439 46.8467 57.6853 46.9331 57.5078C47.0195 57.3304 47.07 57.1377 47.0818 56.9407C47.0936 56.7437 47.0663 56.5463 47.0017 56.3598V56.3598Z" fill="black"/>
<path d="M51.9997 71.0006C51.8671 70.624 51.5903 70.3155 51.2302 70.1429C50.8701 69.9704 50.4563 69.948 50.0797 70.0806C49.7031 70.2132 49.3946 70.49 49.222 70.85C49.0495 71.2101 49.0271 71.624 49.1597 72.0006L50.1597 74.8406C50.2647 75.1331 50.4574 75.3862 50.7115 75.5652C50.9657 75.7441 51.2688 75.8403 51.5797 75.8406C51.7465 75.8433 51.9124 75.8162 52.0697 75.7606C52.4443 75.631 52.7524 75.3584 52.9266 75.0024C53.1009 74.6464 53.1272 74.2359 52.9997 73.8606L51.9997 71.0006Z" fill="black"/>
<path d="M46.4501 29.1203C46.2141 28.7954 45.8586 28.5776 45.462 28.5147C45.0654 28.4519 44.66 28.5492 44.3351 28.7853C44.0102 29.0213 43.7924 29.3768 43.7296 29.7734C43.6668 30.17 43.7641 30.5754 44.0001 30.9003L45.7701 33.3103C45.9103 33.4992 46.0928 33.6527 46.3028 33.7586C46.5129 33.8645 46.7449 33.9199 46.9801 33.9203C47.2577 33.9231 47.5305 33.8483 47.7678 33.7044C48.0052 33.5604 48.1976 33.353 48.3234 33.1056C48.4492 32.8582 48.5034 32.5805 48.4798 32.304C48.4563 32.0274 48.3559 31.7629 48.1901 31.5403L46.4501 29.1203Z" fill="black"/>
<path d="M57.3719 44C57.1157 43.7674 56.7869 43.6304 56.4413 43.6124C56.0957 43.5944 55.7545 43.6964 55.4756 43.9012C55.1966 44.106 54.997 44.401 54.9107 44.7361C54.8244 45.0713 54.8566 45.4259 55.0019 45.74L58.0019 49.89C58.1421 50.079 58.3245 50.2325 58.5346 50.3384C58.7447 50.4443 58.9766 50.4997 59.2119 50.5C59.5313 50.4974 59.8422 50.3961 60.1019 50.21C60.261 50.0933 60.3955 49.9464 60.4977 49.7776C60.6 49.6088 60.6679 49.4215 60.6976 49.2264C60.7273 49.0314 60.7183 48.8323 60.671 48.6408C60.6237 48.4492 60.539 48.2688 60.4219 48.11L57.3719 44Z" fill="black"/>
<path d="M51.2785 35.6804C51.0424 35.3595 50.6886 35.1455 50.2948 35.0855C49.9009 35.0255 49.4994 35.1244 49.1785 35.3604C48.8576 35.5965 48.6436 35.9503 48.5836 36.3442C48.5235 36.738 48.6224 37.1395 48.8585 37.4604L51.8585 41.6004C51.9976 41.7905 52.1798 41.9449 52.3901 42.0509C52.6005 42.157 52.8329 42.2116 53.0685 42.2104C53.3856 42.2126 53.6948 42.1107 53.9485 41.9204C54.1076 41.8037 54.2421 41.6568 54.3444 41.488C54.4466 41.3192 54.5145 41.1319 54.5442 40.9368C54.574 40.7418 54.5649 40.5427 54.5176 40.3512C54.4703 40.1596 54.3856 39.9792 54.2685 39.8204L51.2785 35.6804Z" fill="black"/>
<path d="M63.4591 52.25C63.3559 52.0646 63.2146 51.9033 63.0445 51.7765C62.8743 51.6498 62.6792 51.5606 62.472 51.5148C62.2649 51.469 62.0503 51.4677 61.8426 51.511C61.6349 51.5542 61.4388 51.6411 61.2671 51.7657C61.0954 51.8904 60.9521 52.0501 60.8467 52.2342C60.7413 52.4183 60.6761 52.6227 60.6555 52.8339C60.6349 53.045 60.6594 53.2581 60.7272 53.4592C60.7951 53.6602 60.9048 53.8445 61.0491 54L64.0491 58.14C64.2847 58.4585 64.6366 58.6709 65.0282 58.7309C65.4197 58.7908 65.8191 58.6935 66.1391 58.46C66.2982 58.3433 66.4328 58.1964 66.535 58.0276C66.6372 57.8588 66.7052 57.6715 66.7349 57.4764C66.7646 57.2814 66.7556 57.0823 66.7082 56.8908C66.6609 56.6992 66.5763 56.5188 66.4591 56.36L63.4591 52.25Z" fill="black"/>
<path d="M71.3397 63.0006L69.5597 60.5906C69.3237 60.2697 68.9698 60.0557 68.576 59.9957C68.1822 59.9357 67.7806 60.0345 67.4597 60.2706C67.1388 60.5066 66.9248 60.8605 66.8648 61.2543C66.8048 61.6481 66.9037 62.0497 67.1397 62.3706L68.9197 64.7806C69.1571 65.0997 69.5107 65.3124 69.9039 65.3723C70.2971 65.4322 70.6981 65.3346 71.0197 65.1006C71.3389 64.8632 71.5515 64.5096 71.6114 64.1164C71.6713 63.7232 71.5737 63.3222 71.3397 63.0006V63.0006Z" fill="black"/>
<path d="M28.6994 41.6804C28.8957 41.657 29.0854 41.5948 29.2574 41.4973C29.4294 41.3999 29.5803 41.2692 29.7013 41.1128C29.8223 40.9564 29.911 40.7775 29.9622 40.5866C30.0133 40.3956 30.026 40.1964 29.9994 40.0004L29.6994 37.0004C29.679 36.8035 29.6201 36.6124 29.5259 36.4382C29.4317 36.264 29.3041 36.1101 29.1505 35.9852C28.9968 35.8603 28.82 35.7669 28.6302 35.7103C28.4404 35.6537 28.2414 35.6351 28.0444 35.6554C27.8474 35.6758 27.6564 35.7348 27.4822 35.8289C27.308 35.9231 27.154 36.0507 27.0291 36.2044C26.9042 36.3581 26.8108 36.5348 26.7543 36.7246C26.6977 36.9144 26.679 37.1135 26.6994 37.3105L27.0094 40.3105C27.0465 40.68 27.2195 41.0227 27.4947 41.272C27.77 41.5214 28.128 41.6598 28.4994 41.6604L28.6994 41.6804Z" fill="black"/>
<path d="M31.8301 72.3802C32.0261 72.3614 32.2165 72.304 32.3902 72.2113C32.5639 72.1185 32.7175 71.9922 32.8421 71.8397C32.9668 71.6872 33.0599 71.5115 33.1162 71.3228C33.1725 71.134 33.1908 70.936 33.1701 70.7402L32.6501 65.6202C32.6304 65.4232 32.5721 65.232 32.4785 65.0576C32.3849 64.8831 32.2579 64.7288 32.1047 64.6035C31.9514 64.4781 31.775 64.3841 31.5855 64.327C31.396 64.2698 31.197 64.2505 31.0001 64.2702C30.8031 64.2899 30.6119 64.3482 30.4375 64.4418C30.263 64.5353 30.1087 64.6624 29.9833 64.8156C29.858 64.9688 29.764 65.1452 29.7068 65.3347C29.6497 65.5243 29.6304 65.7232 29.6501 65.9202L30.1901 71.0002C30.2272 71.3697 30.4001 71.7124 30.6754 71.9618C30.9506 72.2112 31.3086 72.3496 31.6801 72.3502L31.8301 72.3802Z" fill="black"/>
<path d="M30.791 62.1507C31.1867 62.1078 31.5495 61.9104 31.8005 61.6014C32.0514 61.2924 32.1702 60.8968 32.131 60.5007L31.611 55.3907C31.5913 55.1937 31.533 55.0025 31.4394 54.8281C31.3458 54.6536 31.2188 54.4993 31.0656 54.374C30.9124 54.2486 30.736 54.1546 30.5464 54.0975C30.3569 54.0403 30.158 54.021 29.961 54.0407C29.764 54.0604 29.5728 54.1187 29.3984 54.2123C29.2239 54.3058 29.0696 54.4329 28.9443 54.5861C28.8189 54.7393 28.725 54.9157 28.6678 55.1052C28.6106 55.2948 28.5913 55.4937 28.611 55.6907L29.141 60.8107C29.1781 61.1802 29.3511 61.5229 29.6263 61.7723C29.9016 62.0217 30.2596 62.1601 30.631 62.1607L30.791 62.1507Z" fill="black"/>
<path d="M29.7507 51.9199C30.1454 51.8745 30.5066 51.6764 30.7571 51.368C31.0075 51.0596 31.1273 50.6655 31.0907 50.2699L30.5607 45.1499C30.5404 44.9529 30.4814 44.7618 30.3872 44.5876C30.293 44.4134 30.1655 44.2595 30.0118 44.1346C29.8581 44.0097 29.6813 43.9163 29.4915 43.8597C29.3018 43.8031 29.1027 43.7845 28.9057 43.8049C28.7087 43.8252 28.5177 43.8842 28.3435 43.9784C28.1693 44.0725 28.0154 44.2001 27.8905 44.3538C27.7656 44.5075 27.6722 44.6843 27.6156 44.874C27.559 45.0638 27.5404 45.2629 27.5607 45.4599L28.0807 50.5799C28.1202 50.9476 28.2941 51.2878 28.5691 51.5352C28.8441 51.7825 29.2008 51.9195 29.5707 51.9199H29.7507Z" fill="black"/>
<path d="M33.6994 75.8501C33.6583 75.4522 33.4608 75.087 33.1505 74.8348C32.8401 74.5826 32.4422 74.464 32.0444 74.5051C31.6466 74.5462 31.2814 74.7436 31.0291 75.054C30.7769 75.3644 30.6583 75.7622 30.6994 76.1601L31.0094 79.1601C31.0465 79.5296 31.2195 79.8723 31.4947 80.1217C31.77 80.3711 32.128 80.5095 32.4994 80.5101H32.6494C32.8486 80.4914 33.0421 80.4331 33.2185 80.3386C33.3949 80.2441 33.5505 80.1152 33.6763 79.9596C33.8021 79.8039 33.8955 79.6247 33.951 79.4325C34.0065 79.2402 34.0229 79.0388 33.9994 78.8401L33.6994 75.8501Z" fill="black"/>
</svg>
