<svg width="62" height="62" viewBox="0 0 62 62" fill="none" xmlns="http://www.w3.org/2000/svg">
<path d="M62.0009 45.0001C61.9953 42.7 61.1108 40.4889 59.5284 38.8195C57.946 37.1502 55.7855 36.1487 53.4889 36.0201C53.2095 35.6085 52.8968 35.2205 52.5539 34.8601L58.7079 28.7071C58.8009 28.6142 58.8746 28.504 58.9249 28.3826C58.9753 28.2612 59.0012 28.131 59.0012 27.9996C59.0012 27.8682 58.9753 27.7381 58.9249 27.6167C58.8746 27.4953 58.8009 27.385 58.7079 27.2921L58.4149 27.0001L59.2929 26.1221C59.8307 25.5798 60.1414 24.8527 60.1617 24.0892C60.1819 23.3257 59.9102 22.5832 59.4019 22.0131L61.7019 19.7131C61.7949 19.6202 61.8686 19.51 61.9189 19.3886C61.9693 19.2672 61.9952 19.137 61.9952 19.0056C61.9952 18.8742 61.9693 18.7441 61.9189 18.6227C61.8686 18.5013 61.7949 18.391 61.7019 18.2981L57.7019 14.2981C57.609 14.2051 57.4987 14.1314 57.3773 14.0811C57.2559 14.0307 57.1258 14.0048 56.9944 14.0048C56.863 14.0048 56.7328 14.0307 56.6115 14.0811C56.4901 14.1314 56.3798 14.2051 56.2869 14.2981L53.9869 16.6031C53.4175 16.0936 52.6748 15.8212 51.911 15.8417C51.1472 15.8621 50.4202 16.1739 49.8789 16.7131L49.0009 17.5851L48.7079 17.2921C48.615 17.1991 48.5047 17.1254 48.3833 17.0751C48.2619 17.0247 48.1318 16.9988 48.0004 16.9988C47.869 16.9988 47.7388 17.0247 47.6174 17.0751C47.496 17.1254 47.3858 17.1991 47.2929 17.2921L44.0009 20.5861V7.00011C44.0009 6.7349 43.8955 6.48054 43.708 6.29301C43.5205 6.10547 43.2661 6.00011 43.0009 6.00011H39.0009C38.7357 6.00011 38.4813 6.10547 38.2938 6.29301C38.1062 6.48054 38.0009 6.7349 38.0009 7.00011V11.0001H34.0009V7.00011C34.0009 6.7349 33.8955 6.48054 33.708 6.29301C33.5205 6.10547 33.2661 6.00011 33.0009 6.00011H29.0009C28.7357 6.00011 28.4813 6.10547 28.2938 6.29301C28.1062 6.48054 28.0009 6.7349 28.0009 7.00011V18.2521C25.9851 18.7226 24.191 19.8687 22.9169 21.5001L20.4009 18.9891L25.6389 16.0791L24.6669 14.3311L18.9289 17.5181L17.4009 15.9891L22.6389 13.0791L21.6669 11.3311L15.9289 14.5181L14.6579 13.2471L19.8579 10.3551L18.8869 8.60611L13.1869 11.7761L11.5039 10.0931L15.0799 6.52011C15.409 6.19428 15.6552 5.79438 15.798 5.35387C15.9409 4.91336 15.9761 4.44505 15.9009 3.98811C15.8248 3.51444 15.6381 3.06538 15.3559 2.67739C15.0738 2.28941 14.7041 1.97343 14.2769 1.75511L13.4839 1.35511C11.8025 0.494814 9.94633 0.0312824 8.05789 0.000113547H7.93989C6.89559 -0.00548849 5.86057 0.196252 4.89482 0.59364C3.92907 0.991028 3.05181 1.57616 2.31389 2.31511C1.56612 3.07069 0.976439 3.96772 0.579299 4.95379C0.182159 5.93986 -0.0144745 6.99519 0.000887538 8.05811C0.0319308 9.94449 0.494049 11.7988 1.35189 13.4791L1.75189 14.2711C1.96963 14.6998 2.28573 15.0709 2.67436 15.354C3.06298 15.6371 3.51309 15.8243 3.98789 15.9001C4.14566 15.9251 4.30514 15.9378 4.46489 15.9381C4.84688 15.939 5.22526 15.8641 5.57816 15.7179C5.93105 15.5716 6.25147 15.3569 6.52089 15.0861L10.0929 11.5131L11.7759 13.1951L8.60589 18.9001L10.3549 19.8711L13.2469 14.6711L14.5329 15.9571L11.3829 21.6281L13.1319 22.5991L16.0009 17.4191L17.5289 18.9481L14.3789 24.6191L16.1279 25.5901L19.0009 20.4191L21.8269 23.2451L21.8109 23.2721C19.5929 23.821 17.6692 25.1982 16.4349 27.1211C15.1485 26.9111 13.8318 26.9834 12.5761 27.3331C11.3205 27.6828 10.1559 28.3014 9.16327 29.1462C8.1706 29.9909 7.37359 31.0415 6.82751 32.225C6.28144 33.4085 5.99937 34.6967 6.00089 36.0001C6.00089 36.1681 6.00689 36.3391 6.01889 36.5151C4.81536 36.9357 3.71517 37.6077 2.79147 38.4864C1.86778 39.3651 1.14175 40.4304 0.661666 41.6114C0.181585 42.7925 -0.041544 44.0622 0.00711682 45.3362C0.0557776 46.6101 0.375113 47.8591 0.943887 49.0001C0.260385 50.3716 -0.0612194 51.895 0.00961056 53.4257C0.0804405 54.9564 0.541354 56.4436 1.34859 57.746C2.15582 59.0485 3.28258 60.123 4.62187 60.8676C5.96117 61.6121 7.46855 62.002 9.00089 62.0001H53.0009C54.5331 62.0018 56.0404 61.6118 57.3796 60.8672C58.7187 60.1226 59.8453 59.0481 60.6525 57.7456C61.4596 56.4432 61.9204 54.956 61.9912 53.4254C62.062 51.8948 61.7404 50.3715 61.0569 49.0001C61.6761 47.7575 61.9992 46.3884 62.0009 45.0001V45.0001ZM5.10089 13.6671C4.99763 13.7704 4.87103 13.8473 4.73179 13.8913C4.59255 13.9354 4.44475 13.9452 4.30089 13.9201C4.13807 13.895 3.98367 13.8311 3.85071 13.7338C3.71775 13.6365 3.61012 13.5087 3.53689 13.3611L3.13689 12.5691C2.41696 11.1622 2.02838 9.60928 2.00089 8.02911C1.98444 7.24037 2.12619 6.45632 2.41776 5.72326C2.70933 4.9902 3.14481 4.32298 3.69849 3.761C4.25218 3.19902 4.91285 2.75367 5.64149 2.45123C6.37013 2.14879 7.15198 1.9954 7.94089 2.00011H8.02889C9.60875 2.02623 11.1617 2.41344 12.5689 3.13211L13.3619 3.53711C13.5092 3.61045 13.6368 3.71799 13.734 3.85073C13.8313 3.98347 13.8954 4.13755 13.9209 4.30011C13.9457 4.44491 13.9354 4.59352 13.8911 4.73356C13.8467 4.8736 13.7695 5.00099 13.6659 5.10511L5.10089 13.6671ZM57.0009 16.4141L59.5849 19.0001L58.0009 20.5841L55.4149 18.0001L57.0009 16.4141ZM51.2939 18.1211C51.4843 17.9391 51.7375 17.8375 52.0009 17.8375C52.2643 17.8375 52.5175 17.9391 52.7079 18.1211L57.8789 23.2921C57.9719 23.385 58.0456 23.4953 58.0959 23.6167C58.1463 23.7381 58.1722 23.8682 58.1722 23.9996C58.1722 24.131 58.1463 24.2612 58.0959 24.3826C58.0456 24.504 57.9719 24.6142 57.8789 24.7071L57.0009 25.5851L50.4149 19.0001L51.2939 18.1211ZM48.0009 19.4141L56.5859 28.0001L47.5299 37.0561C46.9884 36.2276 46.3124 35.4952 45.5299 34.8891L51.7109 28.7081C51.8039 28.6152 51.8776 28.505 51.9279 28.3836C51.9783 28.2622 52.0042 28.132 52.0042 28.0006C52.0042 27.8692 51.9783 27.7391 51.9279 27.6177C51.8776 27.4963 51.8039 27.386 51.7109 27.2931L48.7109 24.2931C48.618 24.2001 48.5077 24.1264 48.3863 24.0761C48.2649 24.0257 48.1348 23.9998 48.0034 23.9998C47.872 23.9998 47.7418 24.0257 47.6204 24.0761C47.4991 24.1264 47.3888 24.2001 47.2959 24.2931L41.1109 30.4731C40.5044 29.6913 39.7725 29.0155 38.9449 28.4731L48.0009 19.4141ZM42.6149 33.3851C42.4952 32.9928 42.3485 32.6092 42.1759 32.2371L48.0009 26.4141L49.5849 28.0001L43.7609 33.8231C43.3893 33.6512 43.0064 33.5049 42.6149 33.3851V33.3851ZM30.0009 8.00011H32.0009V11.0001C32.0009 11.5305 32.2116 12.0393 32.5867 12.4143C32.9617 12.7894 33.4705 13.0001 34.0009 13.0001H38.0009C38.5313 13.0001 39.04 12.7894 39.4151 12.4143C39.7902 12.0393 40.0009 11.5305 40.0009 11.0001V8.00011H42.0009V22.0721C41.3361 21.9996 40.6653 22.0016 40.0009 22.0781V16.0001C40.0009 15.7349 39.8955 15.4805 39.708 15.293C39.5205 15.1055 39.2661 15.0001 39.0009 15.0001H33.0009C32.7357 15.0001 32.4813 15.1055 32.2938 15.293C32.1062 15.4805 32.0009 15.7349 32.0009 16.0001V18.2401C31.3453 18.0858 30.6744 18.0053 30.0009 18.0001V8.00011ZM38.0009 22.5291C37.9489 22.5471 37.8939 22.5561 37.8419 22.5761C36.9541 21.0109 35.6157 19.7491 34.0009 18.9551V17.0001H38.0009V22.5291ZM59.0559 49.5001C59.6732 50.5632 59.9992 51.7703 60.0011 52.9997C60.0029 54.229 59.6805 55.4371 59.0664 56.502C58.4522 57.567 57.5681 58.4511 56.5032 59.0653C55.4383 59.6794 54.2302 60.0019 53.0009 60.0001H9.00089C7.77162 60.0016 6.56368 59.6791 5.49884 59.0649C4.43399 58.4507 3.54989 57.5667 2.93565 56.5019C2.32141 55.4371 1.99875 54.2292 2.00019 52.9999C2.00164 51.7706 2.32714 50.5635 2.94389 49.5001C3.03166 49.3481 3.07786 49.1757 3.07786 49.0001C3.07786 48.8246 3.03166 48.6521 2.94389 48.5001C2.39821 47.56 2.07957 46.5055 2.01335 45.4205C1.94713 44.3355 2.13516 43.25 2.56246 42.2505C2.98977 41.251 3.64454 40.3651 4.47464 39.6633C5.30474 38.9615 6.28724 38.4632 7.34389 38.2081C7.58701 38.1487 7.79903 38.0003 7.93807 37.7922C8.07712 37.5841 8.13307 37.3315 8.09489 37.0841C8.03597 36.7257 8.00454 36.3633 8.00089 36.0001C7.99534 34.9351 8.23412 33.8829 8.69887 32.9246C9.16363 31.9663 9.84197 31.1273 10.6817 30.4722C11.5215 29.8171 12.5003 29.3633 13.543 29.1457C14.5856 28.9281 15.6642 28.9526 16.6959 29.2171C16.9122 29.2709 17.1402 29.251 17.3439 29.1604C17.5475 29.0698 17.715 28.9138 17.8199 28.7171C18.3121 27.787 19.0087 26.9806 19.8574 26.3584C20.7061 25.7363 21.6848 25.3146 22.7199 25.1251C22.9636 25.0786 23.1814 24.9432 23.3309 24.7451L25.1169 26.5311C24.3918 27.5425 24.0015 28.7556 24.0009 30.0001H26.0009C26.0009 28.9392 26.4223 27.9218 27.1725 27.1717C27.9226 26.4215 28.94 26.0001 30.0009 26.0001V24.0001C28.7563 24 27.5428 24.3895 26.5309 25.1141L24.3409 22.9251C25.0615 21.914 26.039 21.1135 27.1725 20.6066C28.3059 20.0996 29.5542 19.9045 30.7883 20.0415C32.0224 20.1784 33.1975 20.6423 34.1923 21.3854C35.1871 22.1284 35.9654 23.1236 36.4469 24.2681C36.5005 24.3945 36.5796 24.5084 36.6793 24.6029C36.7789 24.6973 36.8969 24.7702 37.0259 24.8171C37.1553 24.8652 37.2933 24.8857 37.4311 24.8773C37.5689 24.8688 37.7033 24.8317 37.8259 24.7681C38.6743 24.3428 39.6005 24.0947 40.5479 24.0391L37.0539 27.5301C36.0741 27.1799 35.0414 27.0006 34.0009 27.0001V29.0001C35.5858 28.9929 37.1257 29.5268 38.3661 30.5133C39.6066 31.4999 40.4732 32.8802 40.8229 34.4261C40.8649 34.6092 40.9576 34.7767 41.0904 34.9096C41.2233 35.0424 41.3908 35.1351 41.5739 35.1771C43.1199 35.5269 44.5004 36.3938 45.4871 37.6343C46.4739 38.8749 47.0079 40.415 47.0009 42.0001H49.0009C49.0007 40.9592 48.821 39.926 48.4699 38.9461L51.1329 36.2821C51.4849 36.6548 51.7951 37.0649 52.0579 37.5051C52.1621 37.6589 52.3028 37.7846 52.4673 37.8709C52.6318 37.9573 52.8151 38.0017 53.0009 38.0001C54.2303 37.998 55.4386 38.3203 56.5037 38.9344C57.5688 39.5485 58.4531 40.4327 59.0672 41.4977C59.6814 42.5628 60.0038 43.771 60.0018 45.0004C59.9998 46.2299 59.6735 47.4371 59.0559 48.5001C58.9681 48.6521 58.9219 48.8246 58.9219 49.0001C58.9219 49.1757 58.9681 49.3481 59.0559 49.5001V49.5001Z" fill="black"/>
<path d="M19.5 44C19.2033 44 18.9133 44.088 18.6666 44.2528C18.42 44.4176 18.2277 44.6519 18.1142 44.926C18.0007 45.2001 17.9709 45.5017 18.0288 45.7926C18.0867 46.0836 18.2296 46.3509 18.4393 46.5607C18.6491 46.7704 18.9164 46.9133 19.2074 46.9712C19.4983 47.0291 19.7999 46.9993 20.074 46.8858C20.3481 46.7723 20.5824 46.58 20.7472 46.3334C20.912 46.0867 21 45.7967 21 45.5C21 45.1022 20.842 44.7206 20.5607 44.4393C20.2794 44.158 19.8978 44 19.5 44ZM19.5 46C19.4011 46 19.3044 45.9707 19.2222 45.9157C19.14 45.8608 19.0759 45.7827 19.0381 45.6913C19.0002 45.6 18.9903 45.4994 19.0096 45.4025C19.0289 45.3055 19.0765 45.2164 19.1464 45.1464C19.2164 45.0765 19.3055 45.0289 19.4025 45.0096C19.4994 44.9903 19.6 45.0002 19.6913 45.0381C19.7827 45.0759 19.8608 45.14 19.9157 45.2222C19.9707 45.3044 20 45.4011 20 45.5C20 45.6326 19.9473 45.7598 19.8536 45.8536C19.7598 45.9473 19.6326 46 19.5 46Z" fill="black"/>
<path d="M24.5 44C24.2033 44 23.9133 44.088 23.6666 44.2528C23.42 44.4176 23.2277 44.6519 23.1142 44.926C23.0007 45.2001 22.9709 45.5017 23.0288 45.7926C23.0867 46.0836 23.2296 46.3509 23.4393 46.5607C23.6491 46.7704 23.9164 46.9133 24.2074 46.9712C24.4983 47.0291 24.7999 46.9993 25.074 46.8858C25.3481 46.7723 25.5824 46.58 25.7472 46.3334C25.912 46.0867 26 45.7967 26 45.5C26 45.1022 25.842 44.7206 25.5607 44.4393C25.2794 44.158 24.8978 44 24.5 44ZM24.5 46C24.4011 46 24.3044 45.9707 24.2222 45.9157C24.14 45.8608 24.0759 45.7827 24.0381 45.6913C24.0002 45.6 23.9903 45.4994 24.0096 45.4025C24.0289 45.3055 24.0765 45.2164 24.1464 45.1464C24.2164 45.0765 24.3055 45.0289 24.4025 45.0096C24.4994 44.9903 24.6 45.0002 24.6913 45.0381C24.7827 45.0759 24.8608 45.14 24.9157 45.2222C24.9707 45.3044 25 45.4011 25 45.5C25 45.6326 24.9473 45.7598 24.8536 45.8536C24.7598 45.9473 24.6326 46 24.5 46Z" fill="black"/>
<path d="M31 50.0002C30.5503 49.9982 30.1059 50.0976 29.7 50.2912L27.914 48.5002L28 48.4142C28.3181 48.098 28.5703 47.7218 28.7419 47.3074C28.9136 46.893 29.0013 46.4487 29 46.0002C28.9989 44.9867 28.7763 43.9857 28.348 43.0672L29.707 41.7082C30.0794 41.8836 30.484 41.9805 30.8954 41.9928C31.3069 42.0051 31.7165 41.9326 32.0988 41.7798C32.481 41.6271 32.8277 41.3972 33.1173 41.1047C33.4069 40.8121 33.6332 40.4631 33.7821 40.0793C33.931 39.6955 33.9994 39.2852 33.9829 38.8739C33.9664 38.4625 33.8654 38.059 33.6862 37.6884C33.507 37.3178 33.2535 36.988 32.9414 36.7196C32.6293 36.4512 32.2653 36.2499 31.872 36.1282C31.751 35.7341 31.5501 35.3692 31.2818 35.0563C31.0135 34.7433 30.6836 34.489 30.3127 34.3092C29.9418 34.1294 29.5378 34.028 29.1259 34.0113C28.714 33.9946 28.3031 34.0629 27.9188 34.212C27.5345 34.3612 27.1851 34.5879 26.8923 34.878C26.5996 35.1682 26.3697 35.5156 26.2172 35.8985C26.0646 36.2815 25.9926 36.6918 26.0057 37.1038C26.0187 37.5158 26.1165 37.9207 26.293 38.2932L24.934 39.6532C24.0161 39.2234 23.015 39.0007 22.0015 39.0007C20.988 39.0007 19.9869 39.2234 19.069 39.6532L17.709 38.2942C17.8865 37.9216 17.9852 37.5163 17.999 37.1038C18.0127 36.6913 17.9412 36.2804 17.7889 35.8968C17.6366 35.5132 17.4067 35.1651 17.1137 34.8744C16.8207 34.5837 16.4709 34.3565 16.0861 34.2072C15.7014 34.0578 15.2899 33.9895 14.8775 34.0064C14.4651 34.0234 14.0607 34.1252 13.6894 34.3056C13.3182 34.486 12.9882 34.7411 12.72 35.0549C12.4519 35.3686 12.2513 35.7344 12.131 36.1292C11.7374 36.2505 11.373 36.4516 11.0605 36.7199C10.748 36.9882 10.4941 37.318 10.3147 37.6887C10.1352 38.0594 10.034 38.4631 10.0173 38.8747C10.0006 39.2862 10.0689 39.6967 10.2178 40.0808C10.3667 40.4648 10.5931 40.814 10.8829 41.1067C11.1727 41.3994 11.5196 41.6293 11.9021 41.782C12.2846 41.9348 12.6945 42.0072 13.1061 41.9946C13.5178 41.9821 13.9225 41.8849 14.295 41.7092L15.654 43.0682C15.2246 43.9861 15.0014 44.9868 15 46.0002C14.9989 46.4487 15.0867 46.8929 15.2583 47.3073C15.43 47.7217 15.682 48.0979 16 48.4142L16.086 48.4992L14.294 50.2912C13.9214 50.1144 13.5164 50.0163 13.1042 50.003C12.692 49.9898 12.2814 50.0617 11.8983 50.2142C11.5151 50.3667 11.1675 50.5966 10.8771 50.8895C10.5868 51.1824 10.36 51.5321 10.2108 51.9166C10.0617 52.3011 9.99344 52.7122 10.0103 53.1243C10.0272 53.5364 10.1289 53.9405 10.309 54.3115C10.4891 54.6826 10.7437 55.0125 11.0571 55.2806C11.3704 55.5488 11.7356 55.7495 12.13 55.8702C12.2507 56.2645 12.4514 56.6298 12.7195 56.9431C12.9877 57.2564 13.3176 57.5111 13.6886 57.6912C14.0597 57.8713 14.4638 57.973 14.8759 57.9899C15.288 58.0067 15.6991 57.9385 16.0836 57.7893C16.4681 57.6402 16.8177 57.4134 17.1106 57.123C17.4035 56.8327 17.6334 56.4851 17.786 56.1019C17.9385 55.7187 18.0104 55.3082 17.9972 54.896C17.9839 54.4838 17.8858 54.0788 17.709 53.7062L18.49 52.9252C18.6561 52.9721 18.8275 52.9973 19 53.0002H25C25.1728 52.9977 25.3446 52.9728 25.511 52.9262L26.293 53.7072C26.1138 54.08 26.0137 54.4859 25.9989 54.8993C25.9841 55.3127 26.055 55.7247 26.207 56.1094C26.3591 56.4941 26.5891 56.8432 26.8825 57.1347C27.176 57.4263 27.5265 57.654 27.9122 57.8036C28.2979 57.9532 28.7103 58.0214 29.1236 58.0039C29.5369 57.9865 29.9421 57.8837 30.3138 57.7021C30.6855 57.5206 31.0156 57.2641 31.2834 56.9488C31.5512 56.6336 31.7509 56.2663 31.87 55.8702C32.5577 55.6609 33.1473 55.2116 33.5317 54.6041C33.916 53.9967 34.0694 53.2714 33.964 52.5603C33.8586 51.8493 33.5014 51.1997 32.9575 50.7298C32.4135 50.26 31.7188 50.001 31 50.0002V50.0002ZM28.292 39.1212C28.4795 38.9336 28.5848 38.6793 28.5848 38.4142C28.5848 38.149 28.4795 37.8947 28.292 37.7072C28.1759 37.5908 28.0903 37.4476 28.0428 37.2903C27.9952 37.133 27.9872 36.9663 28.0194 36.8051C28.0516 36.644 28.123 36.4932 28.2273 36.3662C28.3316 36.2392 28.4657 36.1399 28.6175 36.077C28.7694 36.0141 28.9344 35.9897 29.098 36.0058C29.2616 36.0219 29.4187 36.0781 29.5553 36.1693C29.692 36.2606 29.8041 36.3842 29.8817 36.5291C29.9592 36.674 29.9999 36.8358 30 37.0002C30 37.2654 30.1054 37.5197 30.2929 37.7073C30.4804 37.8948 30.7348 38.0002 31 38.0002C31.1645 38.0001 31.3265 38.0407 31.4716 38.1183C31.6167 38.1958 31.7404 38.308 31.8318 38.4448C31.9232 38.5816 31.9794 38.7389 31.9954 38.9026C32.0115 39.0664 31.9869 39.2315 31.9238 39.3835C31.8608 39.5354 31.7612 39.6695 31.6339 39.7738C31.5066 39.878 31.3556 39.9493 31.1942 39.9812C31.0328 40.0131 30.866 40.0047 30.7086 39.9567C30.5513 39.9088 30.4082 39.8227 30.292 39.7062C30.1045 39.5187 29.8502 39.4134 29.585 39.4134C29.3198 39.4134 29.0655 39.5187 28.878 39.7062L27.226 41.3582C27.0424 41.1521 26.8471 40.9568 26.641 40.7732L28.292 39.1212ZM15.121 39.7072C14.9335 39.5197 14.6792 39.4144 14.414 39.4144C14.1488 39.4144 13.8945 39.5197 13.707 39.7072C13.5907 39.8235 13.4476 39.9093 13.2902 39.9571C13.1328 40.0048 12.9661 40.0131 12.8048 39.981C12.6434 39.9489 12.4925 39.8775 12.3654 39.7732C12.2383 39.6689 12.1388 39.5348 12.0759 39.3828C12.013 39.2309 11.9885 39.0658 12.0046 38.9021C12.0207 38.7384 12.077 38.5812 12.1684 38.4445C12.2598 38.3078 12.3835 38.1957 12.5285 38.1182C12.6736 38.0407 12.8355 38.0001 13 38.0002C13.2652 38.0002 13.5196 37.8948 13.7071 37.7073C13.8946 37.5197 14 37.2654 14 37.0002C14 36.8357 14.0405 36.6737 14.1181 36.5286C14.1956 36.3835 14.3078 36.2597 14.4446 36.1684C14.5814 36.077 14.7387 36.0208 14.9024 36.0047C15.0662 35.9887 15.2313 36.0133 15.3833 36.0763C15.5353 36.1394 15.6693 36.239 15.7736 36.3663C15.8778 36.4935 15.9491 36.6446 15.981 36.806C16.0129 36.9674 16.0045 37.1342 15.9566 37.2915C15.9086 37.4489 15.8225 37.592 15.706 37.7082C15.5188 37.8957 15.4137 38.1498 15.4137 38.4147C15.4137 38.6796 15.5188 38.9337 15.706 39.1212L17.358 40.7732C17.1519 40.9571 16.9566 41.1528 16.773 41.3592L15.121 39.7072ZM15 56.0002C14.7348 56.0002 14.4804 55.8948 14.2929 55.7073C14.1054 55.5197 14 55.2654 14 55.0002C14 54.735 13.8946 54.4806 13.7071 54.2931C13.5196 54.1055 13.2652 54.0002 13 54.0002C12.8355 54.0002 12.6736 53.9597 12.5285 53.8822C12.3835 53.8047 12.2598 53.6926 12.1684 53.5558C12.077 53.4191 12.0207 53.2619 12.0046 53.0983C11.9885 52.9346 12.013 52.7695 12.0759 52.6175C12.1388 52.4656 12.2383 52.3315 12.3654 52.2272C12.4925 52.1228 12.6434 52.0515 12.8048 52.0194C12.9661 51.9873 13.1328 51.9955 13.2902 52.0433C13.4476 52.091 13.5907 52.1769 13.707 52.2932C13.8945 52.4806 14.1488 52.586 14.414 52.586C14.6792 52.586 14.9335 52.4806 15.121 52.2932L17 50.4152V51.0002C17.0025 51.173 17.0274 51.3448 17.074 51.5112L15.707 52.8792C15.5195 53.0667 15.4142 53.321 15.4142 53.5862C15.4142 53.8513 15.5195 54.1056 15.707 54.2932C15.8003 54.3857 15.8743 54.4958 15.9246 54.6172C15.9749 54.7386 16.0005 54.8688 16 55.0002C16 55.2654 15.8946 55.5197 15.7071 55.7073C15.5196 55.8948 15.2652 56.0002 15 56.0002ZM25 51.0002H23V49.0002H21V51.0002H19V50.0002C19.0012 49.5517 18.9135 49.1074 18.7418 48.693C18.5702 48.2786 18.318 47.9024 18 47.5862L17.414 47.0002C17.2824 46.8691 17.1781 46.7132 17.107 46.5416C17.0359 46.3699 16.9996 46.1859 17 46.0002C17 44.6741 17.5268 43.4023 18.4645 42.4646C19.4021 41.527 20.6739 41.0002 22 41.0002C23.3261 41.0002 24.5979 41.527 25.5355 42.4646C26.4732 43.4023 27 44.6741 27 46.0002C27.0008 46.186 26.9646 46.3701 26.8935 46.5418C26.8225 46.7135 26.7179 46.8693 26.586 47.0002L26 47.5852C25.682 47.9016 25.4298 48.278 25.2582 48.6925C25.0865 49.1071 24.9988 49.5515 25 50.0002V51.0002ZM31 54.0002C30.7348 54.0002 30.4804 54.1055 30.2929 54.2931C30.1054 54.4806 30 54.735 30 55.0002C29.9997 55.1645 29.9589 55.3262 29.8813 55.471C29.8036 55.6158 29.6914 55.7393 29.5547 55.8304C29.418 55.9216 29.2609 55.9776 29.0974 55.9936C28.9338 56.0096 28.7689 55.9851 28.6171 55.9222C28.4653 55.8592 28.3313 55.7599 28.2271 55.6329C28.1228 55.5059 28.0515 55.3551 28.0193 55.194C27.9872 55.0328 27.9952 54.8662 28.0428 54.7089C28.0904 54.5517 28.176 54.4085 28.292 54.2922C28.4795 54.1046 28.5848 53.8503 28.5848 53.5852C28.5848 53.32 28.4795 53.0657 28.292 52.8782L26.924 51.5102C26.9712 51.3442 26.9968 51.1727 27 51.0002V50.4142L28.879 52.2932C29.0665 52.4806 29.3208 52.586 29.586 52.586C29.8512 52.586 30.1055 52.4806 30.293 52.2932C30.4093 52.1769 30.5524 52.091 30.7098 52.0433C30.8672 51.9955 31.0339 51.9873 31.1952 52.0194C31.3566 52.0515 31.5075 52.1228 31.6346 52.2272C31.7617 52.3315 31.8612 52.4656 31.9241 52.6175C31.987 52.7695 32.0115 52.9346 31.9954 53.0983C31.9793 53.2619 31.923 53.4191 31.8316 53.5558C31.7402 53.6926 31.6165 53.8047 31.4715 53.8822C31.3264 53.9597 31.1645 54.0002 31 54.0002V54.0002Z" fill="black"/>
<path d="M7.5 4C7.20333 4 6.91332 4.08797 6.66665 4.2528C6.41997 4.41762 6.22771 4.65189 6.11418 4.92597C6.00065 5.20006 5.97094 5.50166 6.02882 5.79264C6.0867 6.08361 6.22956 6.35088 6.43934 6.56066C6.64912 6.77044 6.91639 6.9133 7.20736 6.97118C7.49834 7.02906 7.79994 6.99935 8.07403 6.88582C8.34812 6.77229 8.58238 6.58003 8.74721 6.33336C8.91203 6.08668 9 5.79667 9 5.5C9 5.10218 8.84197 4.72064 8.56066 4.43934C8.27936 4.15804 7.89783 4 7.5 4ZM7.5 6C7.40111 6 7.30444 5.97068 7.22222 5.91573C7.13999 5.86079 7.0759 5.7827 7.03806 5.69134C7.00022 5.59998 6.99032 5.49945 7.00961 5.40245C7.0289 5.30546 7.07652 5.21637 7.14645 5.14645C7.21637 5.07652 7.30546 5.0289 7.40246 5.00961C7.49945 4.99031 7.59998 5.00022 7.69134 5.03806C7.78271 5.0759 7.8608 5.13999 7.91574 5.22221C7.97068 5.30444 8 5.40111 8 5.5C8 5.63261 7.94732 5.75979 7.85355 5.85355C7.75979 5.94732 7.63261 6 7.5 6Z" fill="black"/>
<path d="M47.914 50.083C47.6987 48.9366 47.09 47.9013 46.1928 47.1559C45.2957 46.4105 44.1664 46.0016 43 46V48C43.7956 48 44.5587 48.3161 45.1213 48.8787C45.6839 49.4413 46 50.2044 46 51C46 51.2652 46.1054 51.5196 46.2929 51.7071C46.4804 51.8946 46.7348 52 47 52C47.7956 52 48.5587 52.3161 49.1213 52.8787C49.6839 53.4413 50 54.2044 50 55H52C51.9985 53.8327 51.5895 52.7026 50.8435 51.8049C50.0974 50.9071 49.0613 50.2981 47.914 50.083V50.083Z" fill="black"/>
<path d="M39 39C38.4067 39 37.8266 39.1759 37.3333 39.5056C36.8399 39.8352 36.4554 40.3038 36.2284 40.852C36.0013 41.4001 35.9419 42.0033 36.0576 42.5853C36.1734 43.1672 36.4591 43.7018 36.8787 44.1213C37.2982 44.5409 37.8328 44.8266 38.4147 44.9424C38.9967 45.0581 39.5999 44.9987 40.148 44.7716C40.6962 44.5446 41.1648 44.1601 41.4944 43.6667C41.8241 43.1734 42 42.5933 42 42C42 41.2044 41.6839 40.4413 41.1213 39.8787C40.5587 39.3161 39.7957 39 39 39ZM39 43C38.8022 43 38.6089 42.9414 38.4444 42.8315C38.28 42.7216 38.1518 42.5654 38.0761 42.3827C38.0004 42.2 37.9806 41.9989 38.0192 41.8049C38.0578 41.6109 38.153 41.4327 38.2929 41.2929C38.4327 41.153 38.6109 41.0578 38.8049 41.0192C38.9989 40.9806 39.2 41.0004 39.3827 41.0761C39.5654 41.1518 39.7216 41.28 39.8315 41.4444C39.9414 41.6089 40 41.8022 40 42C40 42.2652 39.8946 42.5196 39.7071 42.7071C39.5196 42.8946 39.2652 43 39 43Z" fill="black"/>
<path d="M54 41C53.4067 41 52.8266 41.1759 52.3333 41.5056C51.8399 41.8352 51.4554 42.3038 51.2284 42.852C51.0013 43.4001 50.9419 44.0033 51.0576 44.5853C51.1734 45.1672 51.4591 45.7018 51.8787 46.1213C52.2982 46.5409 52.8328 46.8266 53.4147 46.9424C53.9967 47.0581 54.5999 46.9987 55.148 46.7716C55.6962 46.5446 56.1648 46.1601 56.4944 45.6667C56.8241 45.1734 57 44.5933 57 44C57 43.2044 56.6839 42.4413 56.1213 41.8787C55.5587 41.3161 54.7957 41 54 41ZM54 45C53.8022 45 53.6089 44.9414 53.4444 44.8315C53.28 44.7216 53.1518 44.5654 53.0761 44.3827C53.0004 44.2 52.9806 43.9989 53.0192 43.8049C53.0578 43.6109 53.153 43.4327 53.2929 43.2929C53.4327 43.153 53.6109 43.0578 53.8049 43.0192C53.9989 42.9806 54.2 43.0004 54.3827 43.0761C54.5654 43.1518 54.7216 43.28 54.8315 43.4444C54.9414 43.6089 55 43.8022 55 44C55 44.2652 54.8946 44.5196 54.7071 44.7071C54.5196 44.8946 54.2652 45 54 45Z" fill="black"/>
<path d="M11 45C11 44.4067 10.8241 43.8266 10.4944 43.3333C10.1648 42.8399 9.69623 42.4554 9.14805 42.2284C8.59987 42.0013 7.99667 41.9419 7.41473 42.0576C6.83279 42.1734 6.29824 42.4591 5.87868 42.8787C5.45912 43.2982 5.1734 43.8328 5.05765 44.4147C4.94189 44.9967 5.0013 45.5999 5.22836 46.148C5.45543 46.6962 5.83994 47.1648 6.33329 47.4944C6.82664 47.8241 7.40666 48 8 48C8.79565 48 9.55871 47.6839 10.1213 47.1213C10.6839 46.5587 11 45.7957 11 45ZM8 46C7.80222 46 7.60888 45.9414 7.44443 45.8315C7.27998 45.7216 7.15181 45.5654 7.07612 45.3827C7.00043 45.2 6.98063 44.9989 7.01922 44.8049C7.0578 44.6109 7.15304 44.4327 7.29289 44.2929C7.43275 44.153 7.61093 44.0578 7.80491 44.0192C7.99889 43.9806 8.19996 44.0004 8.38268 44.0761C8.56541 44.1518 8.72159 44.28 8.83147 44.4444C8.94135 44.6089 9 44.8022 9 45C9 45.2652 8.89464 45.5196 8.70711 45.7071C8.51957 45.8946 8.26522 46 8 46Z" fill="black"/>
<path d="M38.999 54H37V56H38.999V54Z" fill="black"/>
<path d="M22.999 33H21V35H22.999V33Z" fill="black"/>
<path d="M55.999 52H54V54H55.999V52Z" fill="black"/>
<path d="M33.999 45H32V47H33.999V45Z" fill="black"/>
<path d="M44.999 55H43V57H44.999V55Z" fill="black"/>
<path d="M33.999 31H32V33H33.999V31Z" fill="black"/>
<path d="M48 10.0003C48 10.796 48.3161 11.559 48.8787 12.1217C49.4413 12.6843 50.2044 13.0003 51 13.0003H53C53.6531 13.0022 54.2889 12.7903 54.8103 12.3969C55.3318 12.0036 55.7101 11.4504 55.8877 10.8219C56.0653 10.1933 56.0324 9.52397 55.7939 8.91592C55.5554 8.30787 55.1245 7.79456 54.567 7.45434L55.833 5.55434L54.168 4.44434L52.464 7.00034H51.534L49.834 4.44534L48.167 5.55434L49.433 7.45434C48.9965 7.72092 48.6356 8.0949 48.3847 8.54061C48.1339 8.98632 48.0014 9.48888 48 10.0003V10.0003ZM53 11.0003H51C50.7348 11.0003 50.4804 10.895 50.2929 10.7074C50.1054 10.5199 50 10.2656 50 10.0003C50 9.73512 50.1054 9.48077 50.2929 9.29323C50.4804 9.10569 50.7348 9.00034 51 9.00034H53C53.2652 9.00034 53.5196 9.10569 53.7071 9.29323C53.8946 9.48077 54 9.73512 54 10.0003C54 10.2656 53.8946 10.5199 53.7071 10.7074C53.5196 10.895 53.2652 11.0003 53 11.0003Z" fill="black"/>
<path d="M0 25.0003C0 25.796 0.31607 26.559 0.87868 27.1217C1.44129 27.6843 2.20435 28.0003 3 28.0003H5C5.65314 28.0022 6.28893 27.7903 6.81035 27.3969C7.33176 27.0036 7.71013 26.4504 7.88772 25.8219C8.06531 25.1933 8.03236 24.524 7.79389 23.9159C7.55541 23.3079 7.12453 22.7946 6.567 22.4543L7.833 20.5543L6.168 19.4443L4.464 22.0003H3.534L1.834 19.4453L0.167 20.5543L1.433 22.4543C0.996508 22.7209 0.635611 23.0949 0.384746 23.5406C0.133881 23.9863 0.00141956 24.4889 0 25.0003V25.0003ZM5 26.0003H3C2.73478 26.0003 2.48043 25.895 2.29289 25.7074C2.10536 25.5199 2 25.2656 2 25.0003C2 24.7351 2.10536 24.4808 2.29289 24.2932C2.48043 24.1057 2.73478 24.0003 3 24.0003H5C5.26522 24.0003 5.51957 24.1057 5.70711 24.2932C5.89464 24.4808 6 24.7351 6 25.0003C6 25.2656 5.89464 25.5199 5.70711 25.7074C5.51957 25.895 5.26522 26.0003 5 26.0003Z" fill="black"/>
</svg>
