<svg width="71" height="79" viewBox="0 0 71 79" fill="none" xmlns="http://www.w3.org/2000/svg">
<path d="M60.5138 58.8281C61.0635 59.2693 68.0696 65.2074 67.8912 71.4394C67.8381 75.9937 64.6027 78.9133 60.5138 79C56.4249 78.9131 53.1847 75.9937 53.1364 71.4394C52.958 65.2072 59.9592 59.2693 60.5138 58.8281ZM56.4923 71.3455L56.4971 71.372V71.401C56.5116 72.686 56.9167 73.7588 57.6689 74.5014C58.3729 75.1958 59.3806 75.5983 60.5138 75.6369C61.6422 75.5983 62.6499 75.1958 63.3538 74.5014C64.106 73.7588 64.5158 72.686 64.5303 71.401V71.372V71.3455C64.6074 68.597 62.3701 65.511 60.5138 63.4811C58.6525 65.511 56.4152 68.597 56.4923 71.3455Z" fill="black"/>
<path d="M10.0873 15.1259C11.9436 15.1259 13.448 16.6327 13.448 18.4891V21.8498H21.9729C23.4628 19.2701 25.787 17.2354 28.5739 16.1047V11.7651H23.5352C20.7481 11.7651 18.4915 9.50854 18.4915 6.72148C18.4915 3.93688 20.7481 1.68029 23.5352 1.68029H31.9396C31.9396 0.752197 32.6918 0 33.6175 0C34.5481 0 35.3003 0.752197 35.3003 1.68045H43.7047C46.4868 1.68045 48.7483 3.93704 48.7483 6.72163C48.7483 9.5087 46.487 11.7653 43.7047 11.7653H38.661V16.1049C41.4481 17.2356 43.7721 19.2704 45.2669 21.85H55.4698C61.9696 21.85 67.235 27.1178 67.235 33.6176V45.3827C69.0913 45.3827 70.5957 46.8871 70.5957 48.7435V52.1067C70.5957 53.963 69.0913 55.4674 67.235 55.4674H53.7871C51.9307 55.4674 50.4263 53.963 50.4263 52.1067V48.7435C50.4263 46.8871 51.9307 45.3827 53.7871 45.3827V45.2622L53.7726 38.6636C53.7726 36.8168 52.273 35.2979 50.4262 35.2979H48.6132H45.2668C42.9426 39.3169 38.5935 42.0195 33.6174 42.0195C28.6413 42.0195 24.2969 39.3169 21.9727 35.2979H13.4478V38.6586C13.4478 40.515 11.9435 42.0194 10.0871 42.0194H-5.19753e-05V15.1259H10.0873ZM43.7047 8.4044C44.6305 8.4044 45.3827 7.64973 45.3827 6.72163C45.3827 5.79585 44.6305 5.04119 43.7047 5.04119H23.5352C22.6046 5.04119 21.8524 5.79585 21.8524 6.72163C21.8524 7.64988 22.6046 8.4044 23.5352 8.4044H43.7047ZM35.3004 11.7651H31.9397V15.232C32.4895 15.1621 33.0488 15.1259 33.6177 15.1259C34.1866 15.1259 34.7508 15.162 35.3004 15.232V11.7651V11.7651ZM53.7871 52.1065H67.235V48.7433H53.7871V52.1065ZM48.6133 31.9347H50.5468V31.9371C54.1921 32.0023 57.1335 34.9942 57.1335 38.6636L57.148 45.255V45.2597V45.2622V45.3827H63.8742V33.6176C63.8742 28.9814 60.1035 25.2132 55.4698 25.2132H46.6411C46.9159 26.286 47.0654 27.4119 47.0654 28.5739C47.0654 29.7336 46.9159 30.8618 46.6411 31.9347H48.6133V31.9347ZM33.6175 38.6586C39.177 38.6586 43.7047 34.1357 43.7047 28.5739C43.7047 23.0121 39.177 18.4892 33.6175 18.4892C28.0581 18.4892 23.5352 23.0121 23.5352 28.5739C23.5352 34.1357 28.0581 38.6586 33.6175 38.6586ZM20.5939 31.9347C20.3191 30.8618 20.1696 29.7335 20.1696 28.5739C20.1696 27.4119 20.3191 26.286 20.5939 25.2132H13.448V31.9348H20.5939V31.9347ZM3.36099 38.6586H10.0874V18.4891H3.36099V38.6586Z" fill="black"/>
</svg>
