<svg width="50" height="64" viewBox="0 0 50 64" fill="none" xmlns="http://www.w3.org/2000/svg">
<path d="M39.983 45.6254H36.254C36.521 45.1954 36.792 44.7674 37.029 44.3154C37.26 43.8894 37.456 43.4424 37.651 42.9944C37.76 42.7434 37.868 42.4944 37.985 42.2484C38.13 41.9484 38.254 41.7034 38.364 41.4874C38.732 40.8092 39.027 40.0939 39.244 39.3534C39.5889 38.2 39.7131 36.9919 39.61 35.7924C39.5231 34.4096 38.961 33.0994 38.019 32.0834C38.6812 30.6673 38.8283 29.0644 38.435 27.5514C38.3457 27.1637 38.1061 26.8273 37.7688 26.6162C37.4315 26.4051 37.0242 26.3367 36.6365 26.4259C36.2487 26.5152 35.9123 26.7548 35.7012 27.0921C35.4901 27.4294 35.4217 27.8367 35.511 28.2244C35.7212 28.9936 35.6863 29.8091 35.411 30.5574C35.387 30.5504 35.368 30.5404 35.343 30.5324C34.6848 30.3029 33.9762 30.2589 33.2947 30.4051C32.6132 30.5513 31.985 30.8822 31.479 31.3614C30.8753 31.9597 30.4667 32.7266 30.307 33.5614C29.7648 35.1548 28.7767 36.5591 27.46 37.6074C26.791 38.1764 26.122 38.7454 25.521 39.3074C25.464 39.3544 25.23 39.5424 24.935 39.7794C24.4216 38.1944 23.3989 36.8233 22.026 35.8794C19.988 34.4054 17.431 34.7144 15.777 35.1374C15.5715 34.3433 15.5886 33.5079 15.8264 32.7228C16.0641 31.9377 16.5134 31.2332 17.125 30.6864C17.2855 30.5634 17.4195 30.4091 17.5189 30.2329C17.6183 30.0567 17.681 29.8622 17.7032 29.6611C17.7255 29.4601 17.7069 29.2566 17.6485 29.0629C17.5901 28.8692 17.4931 28.6894 17.3634 28.5341C17.2337 28.3789 17.0739 28.2515 16.8937 28.1596C16.7134 28.0677 16.5165 28.0133 16.3147 27.9995C16.1128 27.9857 15.9103 28.0128 15.7193 28.0793C15.5282 28.1458 15.3526 28.2503 15.203 28.3864C14.2836 29.1688 13.5743 30.1683 13.1393 31.2943C12.7043 32.4204 12.5574 33.6372 12.712 34.8344C11.6768 34.6197 10.606 34.6464 9.58281 34.9124C8.5596 35.1784 7.61145 35.6767 6.81196 36.3684C5.59831 37.4474 4.7636 38.8879 4.43096 40.4774C4.06588 42.1791 4.09735 43.9419 4.52296 45.6294H1.52296C1.30725 45.6295 1.09409 45.6761 0.898028 45.766C0.701963 45.856 0.527603 45.9871 0.386839 46.1506C0.246075 46.314 0.14222 46.5059 0.0823569 46.7131C0.022494 46.9204 0.00803172 47.1381 0.0399566 47.3514C1.33996 56.0674 10.824 63.4334 20.749 63.4334C30.674 63.4334 40.158 56.0674 41.458 47.3514C41.4899 47.1381 41.4754 46.9204 41.4156 46.7131C41.3557 46.5059 41.2518 46.314 41.1111 46.1506C40.9703 45.9871 40.7959 45.856 40.5999 45.766C40.4038 45.6761 40.1907 45.6295 39.975 45.6294L39.983 45.6254ZM25.299 43.5004C25.299 43.4444 25.305 43.3874 25.307 43.3304L26.153 42.6514C26.812 42.1244 27.453 41.6074 27.516 41.5514C28.132 40.9804 28.768 40.4404 29.406 39.8964C31.2228 38.4409 32.5563 36.4694 33.231 34.2414C33.2664 33.9789 33.3784 33.7327 33.553 33.5334C33.653 33.4334 33.867 33.2334 34.489 33.4134C34.7468 33.486 34.996 33.5866 35.232 33.7134L35.449 33.8314C35.8173 34.0807 36.1174 34.4181 36.3219 34.813C36.5265 35.2079 36.6289 35.6478 36.62 36.0924C36.686 36.9092 36.5978 37.7312 36.36 38.5154C36.1958 39.0765 35.9705 39.6177 35.688 40.1294C35.568 40.3624 35.436 40.6244 35.277 40.9524C35.143 41.2334 35.019 41.5194 34.895 41.8044C34.734 42.1724 34.577 42.5394 34.379 42.9044C33.8703 43.8638 33.2759 44.7752 32.603 45.6274H24.919C25.1134 44.9322 25.2407 44.22 25.299 43.5004ZM7.36696 41.1224C7.56083 40.1564 8.06256 39.2793 8.79696 38.6224C8.83296 38.5914 8.86696 38.5594 8.89696 38.5224C8.91296 38.5064 10.522 36.9024 13.575 38.2014C13.9437 38.356 14.3382 38.4401 14.738 38.4494H14.756C14.788 38.4494 14.819 38.4414 14.85 38.4394C15.1963 38.4395 15.5401 38.381 15.867 38.2664C16.544 38.0174 18.867 37.2904 20.267 38.3044C22.128 39.6564 22.428 41.2844 22.307 43.3044C22.2284 44.0947 22.0548 44.8727 21.79 45.6214H7.66096C7.17159 44.1732 7.07023 42.622 7.36696 41.1224V41.1224ZM20.757 60.4294C13.057 60.4294 5.42596 55.0864 3.41096 48.6294H38.099C36.088 55.0864 28.459 60.4294 20.757 60.4294V60.4294Z" fill="black"/>
<path d="M22.1719 14.7513C22.5697 14.7513 22.9512 14.5933 23.2325 14.3119C23.5138 14.0306 23.6719 13.6491 23.6719 13.2513V11.7633C23.674 9.59146 24.5376 7.50917 26.0732 5.97336C27.6089 4.43755 29.691 3.57367 31.8629 3.57129H48.4629C48.8607 3.57129 49.2422 3.41325 49.5235 3.13195C49.8048 2.85064 49.9629 2.46911 49.9629 2.07129C49.9629 1.67346 49.8048 1.29193 49.5235 1.01063C49.2422 0.729324 48.8607 0.571289 48.4629 0.571289H31.8629C28.8954 0.573673 26.0502 1.75362 23.9519 3.85204C21.8537 5.95046 20.674 8.79581 20.6719 11.7633V13.2513C20.6719 13.6491 20.8299 14.0306 21.1112 14.3119C21.3925 14.5933 21.7741 14.7513 22.1719 14.7513V14.7513Z" fill="black"/>
<path d="M48.4667 6.75781H31.7797C30.5044 6.75914 29.2816 7.2663 28.3797 8.16803C27.4778 9.06976 26.9703 10.2924 26.9688 11.5678V13.5158C26.9688 13.9136 27.1268 14.2952 27.4081 14.5765C27.6894 14.8578 28.0709 15.0158 28.4688 15.0158C28.8666 15.0158 29.2481 14.8578 29.5294 14.5765C29.8107 14.2952 29.9688 13.9136 29.9688 13.5158V11.5678C29.9693 11.0878 30.1603 10.6275 30.4998 10.2882C30.8394 9.94883 31.2997 9.75808 31.7797 9.75781H48.4667C48.8646 9.75781 49.2461 9.59978 49.5274 9.31847C49.8087 9.03717 49.9667 8.65564 49.9667 8.25781C49.9667 7.85999 49.8087 7.47846 49.5274 7.19715C49.2461 6.91585 48.8646 6.75781 48.4667 6.75781V6.75781Z" fill="black"/>
<path d="M19.2279 22.3763C19.3998 22.4726 19.5889 22.534 19.7846 22.5572C19.9803 22.5804 20.1786 22.5648 20.3682 22.5113C20.5578 22.4578 20.735 22.3675 20.8898 22.2455C21.0445 22.1235 21.1736 21.9722 21.2699 21.8003L22.5839 19.4513C22.7781 19.1041 22.8265 18.694 22.7184 18.3111C22.6103 17.9283 22.3545 17.604 22.0074 17.4098C21.6602 17.2155 21.2501 17.1671 20.8672 17.2752C20.4844 17.3833 20.1601 17.6391 19.9659 17.9863L18.6519 20.3353C18.4577 20.6823 18.4093 21.0923 18.5173 21.475C18.6253 21.8577 18.8809 22.1819 19.2279 22.3763V22.3763Z" fill="black"/>
<path d="M31.4005 22.5684C31.662 22.5681 31.9188 22.4994 32.1456 22.3692C32.3724 22.239 32.5612 22.0518 32.6933 21.8261C32.8254 21.6004 32.8962 21.3441 32.8987 21.0826C32.9012 20.8211 32.8352 20.5635 32.7075 20.3354L31.4005 17.9864C31.2011 17.6493 30.8778 17.4035 30.4996 17.3016C30.1214 17.1998 29.7184 17.2498 29.3767 17.4411C29.0349 17.6324 28.7816 17.9498 28.6707 18.3255C28.5599 18.7011 28.6003 19.1052 28.7835 19.4514L30.0935 21.8004C30.2235 22.0329 30.4131 22.2267 30.6428 22.3616C30.8725 22.4966 31.134 22.568 31.4005 22.5684V22.5684Z" fill="black"/>
<path d="M24.1797 18.708V21.682C24.1797 22.0798 24.3377 22.4614 24.619 22.7427C24.9003 23.024 25.2819 23.182 25.6797 23.182C26.0775 23.182 26.459 23.024 26.7403 22.7427C27.0217 22.4614 27.1797 22.0798 27.1797 21.682V18.708C27.1797 18.3102 27.0217 17.9287 26.7403 17.6473C26.459 17.366 26.0775 17.208 25.6797 17.208C25.2819 17.208 24.9003 17.366 24.619 17.6473C24.3377 17.9287 24.1797 18.3102 24.1797 18.708V18.708Z" fill="black"/>
</svg>
