<svg width="48" height="48" viewBox="0 0 48 48" fill="none" xmlns="http://www.w3.org/2000/svg">
<path d="M45.0001 16H21.0001C20.2044 16 19.4414 16.3161 18.8788 16.8787C18.3162 17.4413 18.0001 18.2044 18.0001 19V20H16.0001V1C16.0001 0.734784 15.8947 0.48043 15.7072 0.292893C15.5197 0.105357 15.2653 0 15.0001 0H1.00009C0.734878 0 0.480524 0.105357 0.292988 0.292893C0.105451 0.48043 9.43748e-05 0.734784 9.43748e-05 1V27C-0.0112995 29.7521 1.00937 32.4085 2.86066 34.4449C4.71195 36.4814 7.25935 37.7498 10.0001 38V42.1C8.87073 42.3305 7.8557 42.9442 7.12679 43.8371C6.39788 44.73 5.99986 45.8473 6.00009 47C6.00009 47.2652 6.10545 47.5196 6.29299 47.7071C6.48052 47.8946 6.73488 48 7.00009 48H33.0001C33.2653 48 33.5197 47.8946 33.7072 47.7071C33.8947 47.5196 34.0001 47.2652 34.0001 47C34.0003 45.8473 33.6023 44.73 32.8734 43.8371C32.1445 42.9442 31.1295 42.3305 30.0001 42.1V38C34.1658 37.7614 38.0983 35.9991 41.0487 33.0486C43.9992 30.0982 45.7615 26.1657 46.0001 22H47.0001C47.2653 22 47.5197 21.8946 47.7072 21.7071C47.8947 21.5196 48.0001 21.2652 48.0001 21V19C48.0001 18.2044 47.684 17.4413 47.1214 16.8787C46.5588 16.3161 45.7957 16 45.0001 16V16ZM2.00009 6H14.0001V20H2.00009V6ZM2.00009 2H14.0001V4H2.00009V2ZM28.0001 42H12.0001V38H28.0001V42ZM31.8301 46H8.17009C8.37698 45.4148 8.76026 44.9083 9.26711 44.5501C9.77397 44.1919 10.3794 43.9997 11.0001 44H29.0001C29.6207 43.9997 30.2262 44.1919 30.7331 44.5501C31.2399 44.9083 31.6232 45.4148 31.8301 46V46ZM29.0001 36H11.0001C8.61315 36 6.32396 35.0518 4.63613 33.364C2.94831 31.6761 2.00009 29.3869 2.00009 27V22H44.0001C43.746 25.8024 42.0542 29.3656 39.2682 31.9659C36.4823 34.5661 32.811 36.0085 29.0001 36ZM46.0001 20H20.0001V19C20.0001 18.7348 20.1054 18.4804 20.293 18.2929C20.4805 18.1054 20.7349 18 21.0001 18H45.0001C45.2653 18 45.5197 18.1054 45.7072 18.2929C45.8947 18.4804 46.0001 18.7348 46.0001 19V20Z" fill="black"/>
</svg>
