<svg width="120" height="34" viewBox="0 0 120 34" fill="none" xmlns="http://www.w3.org/2000/svg">
<path fill-rule="evenodd" clip-rule="evenodd" d="M1.02004 30.9853C1.82149 32.7541 3.57013 33.913 6.7031 33.913C10.1275 33.913 11.7304 32.6322 12.6047 30.3754H12.969L15.0091 33.4251H19.8179V29.8178C19.2851 29.6067 18.8046 29.3888 18.3523 29.1835L18.3523 29.1835L18.3519 29.1834C16.7934 28.4759 15.5601 27.9169 12.9093 27.9169C10.2585 27.9169 9.02628 28.4752 7.4666 29.1834C5.94103 29.8755 4.09558 30.7125 0.999849 30.9403L1.02004 30.9853ZM12.9093 25C16.1535 25 18.2185 25.6165 19.8179 26.2724V23.8178C19.285 23.6067 18.8046 23.3887 18.3523 23.1835L18.3519 23.1834C16.7934 22.4759 15.5601 21.9169 12.9093 21.9169C10.2585 21.9169 9.02628 22.4752 7.4666 23.1834C5.78383 23.9468 3.71187 24.8865 0.00202967 24.9905C0.0092683 25.994 0.0423229 27.0266 0.193264 28.0607C2.2603 27.95 3.38186 27.4417 4.7585 26.8166C6.5423 26.0074 8.76343 25 12.9093 25ZM0.0360698 22.0683C0.0977551 20.5981 0.258018 19.2169 0.655738 18.1764C1.45719 16.0416 3.27869 15.0047 5.82878 15.0047C7.86885 15.0047 9.47177 15.3707 10.3461 16.6516L10.4918 16.5906V6.70942C10.4918 6.09947 10.1275 5.97748 9.90893 5.97748C9.61749 5.97748 9.32605 6.09947 9.32605 6.70942V13.9068H0C0 11.04 0 5.67251 1.23862 3.23272C2.33151 1.0979 5.6102 0 9.90893 0C13.9891 0 17.122 1.0979 18.4335 3.23272C19.8179 5.55052 19.8179 11.772 19.8179 14.2728V20.2724C18.2185 19.6165 16.1535 19 12.9093 19C8.76343 19 6.5423 20.0074 4.7585 20.8166C3.34736 21.4574 2.20425 21.9754 0.0360698 22.0683ZM24.4266 24.9077L24.864 27.9979C25.3484 28.053 25.8874 28.0831 26.5027 28.0831C29.1524 28.0831 30.3846 27.5248 31.9443 26.8166C33.3158 26.1944 34.9459 25.4551 37.5106 25.1465L37.6543 23.6659C37.683 23.4017 37.7145 22.8393 37.7466 22.1065C36.5355 22.3283 35.6622 22.7244 34.6513 23.1834L34.6494 23.1842C33.976 23.4897 33.2406 23.8234 32.3629 24.1204C32.3454 24.6045 32.3355 24.8858 32.3355 24.8858H31.8983C31.8983 24.8858 31.8918 24.6639 31.8802 24.2751C30.5113 24.6897 28.8038 25 26.5027 25C25.7502 25 25.0611 24.9668 24.4266 24.9077ZM31.7766 20.8927C30.2938 21.5644 29.0567 22.0831 26.5027 22.0831C25.4936 22.0831 24.6899 22.0021 23.9955 21.8627L20.9694 0.487958H30.3683L31.3883 10.6741C31.4797 11.7832 31.657 17.0892 31.7766 20.8927ZM32.4965 20.568C33.8217 19.9802 35.4364 19.3543 37.856 19.1082C37.9457 16.3063 38.0186 13.2968 38.0186 13.2968H38.31C38.31 13.2968 38.3819 16.2686 38.4708 19.0554C38.9776 19.0195 39.5177 19 40.0951 19C41.536 19 42.7443 19.1216 43.7825 19.3143C43.6398 15.7563 43.4562 11.6362 43.3373 10.6741L41.8801 0.487958H34.3027L32.9912 10.6741C32.858 11.752 32.6437 16.7937 32.4965 20.568ZM43.9058 22.4987C43.9593 23.9247 43.9931 24.8858 43.9931 24.8858H44.4302C44.4302 24.8858 44.4404 24.019 44.4593 22.7105C44.8156 22.8561 45.167 23.0156 45.5366 23.1834L45.537 23.1835C47.0454 23.8679 48.8659 24.6938 51.8985 24.9325L51.4759 27.9172C50.1941 27.7004 49.2939 27.2921 48.2459 26.8166L48.2456 26.8165C46.4619 26.0072 44.2418 25 40.0951 25C39.6436 25 39.2149 25.0119 38.8071 25.0343L38.6743 23.6659C38.6441 23.3877 38.6107 22.779 38.5768 21.9889C39.0295 21.9422 39.5296 21.9169 40.094 21.9169C41.7946 21.9169 42.9119 22.147 43.9058 22.4987ZM52.3102 22.0246C50.5542 21.8638 49.5071 21.3888 48.2459 20.8166L48.2456 20.8165C47.2326 20.3569 46.0789 19.8335 44.5115 19.4669C44.5755 15.8751 44.6739 11.65 44.7945 10.6741L45.9603 0.487958H55.3592L52.3102 22.0246ZM56.4958 24.825C56.5003 25.7835 56.5238 26.7701 56.6474 27.7606C57.5594 27.5301 58.299 27.1947 59.1323 26.8166L59.1327 26.8165C60.9172 26.0072 63.1384 25 67.2839 25C71.4297 25 73.6529 26.0074 75.4366 26.8166C75.7365 26.9527 76.0244 27.0832 76.3126 27.2053V24.4971C74.8214 24.133 73.7089 23.6287 72.7288 23.184L72.728 23.1837C71.1666 22.4757 69.9342 21.9169 67.2806 21.9169C64.631 21.9169 63.3976 22.4752 61.8379 23.1834L61.8361 23.1842C60.5049 23.7879 58.9312 24.5015 56.4958 24.825ZM76.3126 21.2053C76.0244 21.0832 75.7365 20.9527 75.4366 20.8166C73.6529 20.0074 71.4297 19 67.2839 19C63.1384 19 60.9172 20.0072 59.1327 20.8165L59.1323 20.8166C58.2678 21.2089 57.504 21.5552 56.544 21.7861C56.6141 20.4221 56.7783 19.15 57.1505 18.1764C57.952 16.0416 59.7734 15.0047 62.3235 15.0047C64.3636 15.0047 65.9665 15.3707 66.8408 16.6516L66.9866 16.5906V6.70942C66.9866 6.09947 66.6223 5.97748 66.4037 5.97748C66.1123 5.97748 65.8208 6.09947 65.8208 6.70942V13.9068H56.4948C56.4948 11.04 56.4948 5.67251 57.7334 3.23272C58.8263 1.0979 62.105 0 66.4037 0C70.4838 0 73.6168 1.0979 74.9283 3.23272C76.3126 5.55052 76.3126 11.772 76.3126 14.2728V21.2053ZM81.1511 24.9985L81.6127 28.0678C83.7745 27.9738 84.9163 27.4564 86.3253 26.8166L86.3257 26.8165C88.1102 26.0072 90.3313 25 94.4769 25C94.7747 25 95.0626 25.0052 95.3412 25.0151L95.7992 21.9705C95.398 21.9356 94.9601 21.9169 94.4747 21.9169C91.8239 21.9169 90.5917 22.4752 89.032 23.1834L89.0316 23.1835C88.8388 23.271 88.6409 23.3607 88.436 23.4512C88.4094 24.6784 88.3931 25.4958 88.3931 25.4958H88.1017C88.1017 25.4958 88.0868 24.7499 88.0623 23.6135C86.4677 24.2916 84.4233 24.9633 81.1511 24.9985ZM87.9824 20.108C87.3725 20.3418 86.8315 20.5871 86.3257 20.8165L86.3253 20.8166C84.7656 21.5248 83.5333 22.0831 80.8826 22.0831C80.8252 22.0831 80.7685 22.0828 80.7124 22.0823L77.4641 0.487958H86.863L87.7374 12.6259C87.813 13.6072 87.9082 17.0362 87.9824 20.108ZM88.5171 19.9131C89.98 19.4079 91.8388 19 94.4769 19C95.1059 19 95.6906 19.0231 96.2362 19.0652L99.0306 0.487958H89.6317L88.7574 12.6259C88.6834 13.5865 88.5905 16.8925 88.5171 19.9131ZM100.187 23.3023C100.183 23.586 100.182 23.8705 100.182 24.1539C100.182 24.7032 100.182 25.264 100.198 25.8315C101.141 26.1402 101.921 26.4937 102.632 26.8159C104.194 27.5241 105.427 28.0831 108.083 28.0831C110.736 28.0831 111.969 27.5242 113.532 26.8161L113.533 26.8159L113.535 26.8147C115.061 26.1235 116.905 25.2878 120 25.0598V22.0072C118.422 22.1928 117.424 22.6452 116.235 23.1839L116.235 23.184L116.233 23.1847C114.449 23.9932 112.227 25 108.08 25C104.134 25 101.929 24.0879 100.187 23.3023ZM120 19.0598C116.905 19.2878 115.061 20.1235 113.535 20.8147L113.533 20.8159L113.532 20.8161C111.969 21.5242 110.736 22.0831 108.083 22.0831C105.427 22.0831 104.194 21.5241 102.632 20.8159C101.975 20.5183 101.26 20.1939 100.411 19.9028C100.508 19.2663 100.645 18.6812 100.838 18.1764C101.639 16.0416 103.461 15.0047 106.011 15.0047C108.051 15.0047 109.654 15.3707 110.528 16.6516L110.674 16.5906V6.70942C110.674 6.09947 110.31 5.97748 110.091 5.97748C109.8 5.97748 109.508 6.09947 109.508 6.70942V13.9068H100.182C100.182 11.04 100.182 5.67251 101.421 3.23272C102.514 1.0979 105.792 0 110.091 0C114.171 0 117.304 1.0979 118.616 3.23272C120 5.55052 120 11.772 120 14.2728V19.0598ZM25.6324 33.4251L25.2847 30.9694C25.6715 30.9894 26.077 31 26.5027 31C30.6471 31 32.8659 29.9934 34.6494 29.1842L34.6513 29.1834C35.5074 28.7947 36.2648 28.4511 37.2122 28.2203L36.7071 33.4251H25.6324ZM39.6215 33.4251L39.0898 27.9466C39.4013 27.9271 39.7346 27.9169 40.094 27.9169C42.7448 27.9169 43.9781 28.4759 45.5366 29.1834L45.537 29.1835C46.9011 29.8024 48.5206 30.5372 51.0609 30.8485L50.6962 33.4251H39.6215ZM57.5148 30.9853C57.4694 30.885 57.4261 30.7844 57.3847 30.6836C59.3277 30.3217 60.6743 29.7111 61.8361 29.1842L61.8379 29.1834C63.3976 28.4752 64.631 27.9169 67.2806 27.9169C69.9342 27.9169 71.1666 28.4757 72.728 29.1837L72.7288 29.184C73.7089 29.6287 74.8214 30.133 76.3126 30.4971V33.4251H71.5039L69.4638 30.3754H69.0995C68.2252 32.6322 66.6223 33.913 63.1979 33.913C60.0649 33.913 58.3162 32.7541 57.5148 30.9853ZM82.4186 33.4251L82.0496 30.9719C85.4588 30.8037 87.4226 29.9131 89.0316 29.1835L89.032 29.1834C90.5917 28.4752 91.8239 27.9169 94.4747 27.9169C94.622 27.9169 94.765 27.9186 94.9039 27.922L94.0761 33.4251H82.4186ZM101.202 30.9853C100.983 30.5015 100.812 30.012 100.677 29.5199C102.346 30.2469 104.494 31 108.08 31C109.999 31 111.506 30.7843 112.749 30.4724C111.866 32.6688 110.26 33.913 106.885 33.913C103.752 33.913 102.004 32.7541 101.202 30.9853ZM113.151 30.3754H113.116C114.378 30.0256 115.358 29.5813 116.233 29.1847L116.235 29.184L116.235 29.1839C117.424 28.6452 118.422 28.1928 120 28.0072V33.4251H115.191L113.151 30.3754Z" fill="#4D4116"/>
</svg>
